%TF.GenerationSoftware,KiCad,Pcbnew,9.0.7*%
%TF.CreationDate,2026-08-27T20:56:38+07:00*%
%TF.ProjectId,ESC_3S,4553435f-3353-42e6-9b69-6361645f7063,rev?*%
%TF.SameCoordinates,Original*%
%TF.FileFunction,Soldermask,Bot*%
%TF.FilePolarity,Negative*%
%FSLAX46Y46*%
G04 Gerber Fmt 4.6, Leading zero omitted, Abs format (unit mm)*
G04 Created by KiCad (PCBNEW 9.0.7) date 2026-08-27 20:56:38*
%MOMM*%
%LPD*%
G01*
G04 APERTURE LIST*
G04 Aperture macros list*
%AMRoundRect*
0 Rectangle with rounded corners*
0 $1 Rounding radius*
0 $2 $3 $4 $5 $6 $7 $8 $9 X,Y pos of 4 corners*
0 Add a 4 corners polygon primitive as box body*
4,1,4,$2,$3,$4,$5,$6,$7,$8,$9,$2,$3,0*
0 Add four circle primitives for the rounded corners*
1,1,$1+$1,$2,$3*
1,1,$1+$1,$4,$5*
1,1,$1+$1,$6,$7*
1,1,$1+$1,$8,$9*
0 Add four rect primitives between the rounded corners*
20,1,$1+$1,$2,$3,$4,$5,0*
20,1,$1+$1,$4,$5,$6,$7,0*
20,1,$1+$1,$6,$7,$8,$9,0*
20,1,$1+$1,$8,$9,$2,$3,0*%
G04 Aperture macros list end*
%ADD10RoundRect,0.675675X1.824325X1.824325X-1.824325X1.824325X-1.824325X-1.824325X1.824325X-1.824325X0*%
%ADD11R,1.000000X1.000000*%
%ADD12C,1.000000*%
%ADD13RoundRect,0.237500X0.250000X0.237500X-0.250000X0.237500X-0.250000X-0.237500X0.250000X-0.237500X0*%
%ADD14RoundRect,0.237500X0.237500X-0.250000X0.237500X0.250000X-0.237500X0.250000X-0.237500X-0.250000X0*%
%ADD15RoundRect,0.249999X1.425001X-0.450001X1.425001X0.450001X-1.425001X0.450001X-1.425001X-0.450001X0*%
%ADD16C,1.400000*%
%ADD17RoundRect,0.237500X-0.250000X-0.237500X0.250000X-0.237500X0.250000X0.237500X-0.250000X0.237500X0*%
%ADD18RoundRect,0.237500X0.300000X0.237500X-0.300000X0.237500X-0.300000X-0.237500X0.300000X-0.237500X0*%
%ADD19RoundRect,0.150000X-0.150000X0.590000X-0.150000X-0.590000X0.150000X-0.590000X0.150000X0.590000X0*%
%ADD20R,1.700000X0.600000*%
%ADD21R,2.700000X1.000000*%
%ADD22RoundRect,0.237500X-0.237500X0.250000X-0.237500X-0.250000X0.237500X-0.250000X0.237500X0.250000X0*%
G04 APERTURE END LIST*
D10*
%TO.C,BAT-*%
X105400000Y-165162500D03*
%TD*%
%TO.C,BAT+*%
X137100000Y-165262500D03*
%TD*%
D11*
%TO.C,FLASH*%
X111400000Y-128627500D03*
D12*
X111400000Y-129897500D03*
X111400000Y-131167500D03*
X111400000Y-132437500D03*
%TD*%
D11*
%TO.C,UART*%
X103400000Y-135940000D03*
D12*
X103400000Y-134670000D03*
X103400000Y-133400000D03*
%TD*%
D13*
%TO.C,R23*%
X133112500Y-131000000D03*
X131287500Y-131000000D03*
%TD*%
D14*
%TO.C,R22*%
X121600000Y-144900000D03*
X121600000Y-143075000D03*
%TD*%
D15*
%TO.C,R20*%
X112900000Y-100050000D03*
X112900000Y-93950000D03*
%TD*%
D16*
%TO.C,TH1*%
X126200000Y-129320000D03*
X126200000Y-126780000D03*
%TD*%
D13*
%TO.C,R30*%
X116212500Y-143000000D03*
X114387500Y-143000000D03*
%TD*%
D14*
%TO.C,R24*%
X123200000Y-143012500D03*
X123200000Y-141187500D03*
%TD*%
D15*
%TO.C,R21*%
X125100000Y-100050000D03*
X125100000Y-93950000D03*
%TD*%
D17*
%TO.C,R26*%
X131287500Y-132600000D03*
X133112500Y-132600000D03*
%TD*%
D13*
%TO.C,R36*%
X133125000Y-137250000D03*
X131300000Y-137250000D03*
%TD*%
D17*
%TO.C,R37*%
X131300000Y-135700000D03*
X133125000Y-135700000D03*
%TD*%
D14*
%TO.C,R29*%
X103000000Y-155750000D03*
X103000000Y-153925000D03*
%TD*%
D17*
%TO.C,R27*%
X131287500Y-129400000D03*
X133112500Y-129400000D03*
%TD*%
D18*
%TO.C,C43*%
X116162500Y-144600000D03*
X114437500Y-144600000D03*
%TD*%
D14*
%TO.C,R34*%
X111000000Y-145912500D03*
X111000000Y-144087500D03*
%TD*%
D15*
%TO.C,R35*%
X137200000Y-100050000D03*
X137200000Y-93950000D03*
%TD*%
D19*
%TO.C,D5*%
X117950000Y-143260000D03*
X119850000Y-143260000D03*
X118900000Y-145140000D03*
%TD*%
D20*
%TO.C,U6*%
X106960000Y-147210000D03*
X106960000Y-145960000D03*
X106960000Y-144710000D03*
X106960000Y-143460000D03*
D21*
X103760000Y-141610000D03*
X103760000Y-149050000D03*
%TD*%
D17*
%TO.C,R38*%
X131300000Y-134150000D03*
X133125000Y-134150000D03*
%TD*%
D22*
%TO.C,R25*%
X124800000Y-143075000D03*
X124800000Y-144900000D03*
%TD*%
M02*
