%TF.GenerationSoftware,KiCad,Pcbnew,9.0.7*%
%TF.CreationDate,2026-08-27T20:56:38+07:00*%
%TF.ProjectId,ESC_3S,4553435f-3353-42e6-9b69-6361645f7063,rev?*%
%TF.SameCoordinates,Original*%
%TF.FileFunction,Legend,Top*%
%TF.FilePolarity,Positive*%
%FSLAX46Y46*%
G04 Gerber Fmt 4.6, Leading zero omitted, Abs format (unit mm)*
G04 Created by KiCad (PCBNEW 9.0.7) date 2026-08-27 20:56:38*
%MOMM*%
%LPD*%
G01*
G04 APERTURE LIST*
%ADD10C,0.150000*%
%ADD11C,0.120000*%
%ADD12C,0.250000*%
%ADD13C,0.060000*%
%ADD14C,0.127000*%
G04 APERTURE END LIST*
D10*
X104959580Y-110462857D02*
X105007200Y-110510476D01*
X105007200Y-110510476D02*
X105054819Y-110653333D01*
X105054819Y-110653333D02*
X105054819Y-110748571D01*
X105054819Y-110748571D02*
X105007200Y-110891428D01*
X105007200Y-110891428D02*
X104911961Y-110986666D01*
X104911961Y-110986666D02*
X104816723Y-111034285D01*
X104816723Y-111034285D02*
X104626247Y-111081904D01*
X104626247Y-111081904D02*
X104483390Y-111081904D01*
X104483390Y-111081904D02*
X104292914Y-111034285D01*
X104292914Y-111034285D02*
X104197676Y-110986666D01*
X104197676Y-110986666D02*
X104102438Y-110891428D01*
X104102438Y-110891428D02*
X104054819Y-110748571D01*
X104054819Y-110748571D02*
X104054819Y-110653333D01*
X104054819Y-110653333D02*
X104102438Y-110510476D01*
X104102438Y-110510476D02*
X104150057Y-110462857D01*
X104054819Y-110129523D02*
X104054819Y-109510476D01*
X104054819Y-109510476D02*
X104435771Y-109843809D01*
X104435771Y-109843809D02*
X104435771Y-109700952D01*
X104435771Y-109700952D02*
X104483390Y-109605714D01*
X104483390Y-109605714D02*
X104531009Y-109558095D01*
X104531009Y-109558095D02*
X104626247Y-109510476D01*
X104626247Y-109510476D02*
X104864342Y-109510476D01*
X104864342Y-109510476D02*
X104959580Y-109558095D01*
X104959580Y-109558095D02*
X105007200Y-109605714D01*
X105007200Y-109605714D02*
X105054819Y-109700952D01*
X105054819Y-109700952D02*
X105054819Y-109986666D01*
X105054819Y-109986666D02*
X105007200Y-110081904D01*
X105007200Y-110081904D02*
X104959580Y-110129523D01*
X104054819Y-108653333D02*
X104054819Y-108843809D01*
X104054819Y-108843809D02*
X104102438Y-108939047D01*
X104102438Y-108939047D02*
X104150057Y-108986666D01*
X104150057Y-108986666D02*
X104292914Y-109081904D01*
X104292914Y-109081904D02*
X104483390Y-109129523D01*
X104483390Y-109129523D02*
X104864342Y-109129523D01*
X104864342Y-109129523D02*
X104959580Y-109081904D01*
X104959580Y-109081904D02*
X105007200Y-109034285D01*
X105007200Y-109034285D02*
X105054819Y-108939047D01*
X105054819Y-108939047D02*
X105054819Y-108748571D01*
X105054819Y-108748571D02*
X105007200Y-108653333D01*
X105007200Y-108653333D02*
X104959580Y-108605714D01*
X104959580Y-108605714D02*
X104864342Y-108558095D01*
X104864342Y-108558095D02*
X104626247Y-108558095D01*
X104626247Y-108558095D02*
X104531009Y-108605714D01*
X104531009Y-108605714D02*
X104483390Y-108653333D01*
X104483390Y-108653333D02*
X104435771Y-108748571D01*
X104435771Y-108748571D02*
X104435771Y-108939047D01*
X104435771Y-108939047D02*
X104483390Y-109034285D01*
X104483390Y-109034285D02*
X104531009Y-109081904D01*
X104531009Y-109081904D02*
X104626247Y-109129523D01*
X127982142Y-132829580D02*
X127934523Y-132877200D01*
X127934523Y-132877200D02*
X127791666Y-132924819D01*
X127791666Y-132924819D02*
X127696428Y-132924819D01*
X127696428Y-132924819D02*
X127553571Y-132877200D01*
X127553571Y-132877200D02*
X127458333Y-132781961D01*
X127458333Y-132781961D02*
X127410714Y-132686723D01*
X127410714Y-132686723D02*
X127363095Y-132496247D01*
X127363095Y-132496247D02*
X127363095Y-132353390D01*
X127363095Y-132353390D02*
X127410714Y-132162914D01*
X127410714Y-132162914D02*
X127458333Y-132067676D01*
X127458333Y-132067676D02*
X127553571Y-131972438D01*
X127553571Y-131972438D02*
X127696428Y-131924819D01*
X127696428Y-131924819D02*
X127791666Y-131924819D01*
X127791666Y-131924819D02*
X127934523Y-131972438D01*
X127934523Y-131972438D02*
X127982142Y-132020057D01*
X128934523Y-132924819D02*
X128363095Y-132924819D01*
X128648809Y-132924819D02*
X128648809Y-131924819D01*
X128648809Y-131924819D02*
X128553571Y-132067676D01*
X128553571Y-132067676D02*
X128458333Y-132162914D01*
X128458333Y-132162914D02*
X128363095Y-132210533D01*
X129267857Y-131924819D02*
X129934523Y-131924819D01*
X129934523Y-131924819D02*
X129505952Y-132924819D01*
X105633333Y-159354819D02*
X105300000Y-158878628D01*
X105061905Y-159354819D02*
X105061905Y-158354819D01*
X105061905Y-158354819D02*
X105442857Y-158354819D01*
X105442857Y-158354819D02*
X105538095Y-158402438D01*
X105538095Y-158402438D02*
X105585714Y-158450057D01*
X105585714Y-158450057D02*
X105633333Y-158545295D01*
X105633333Y-158545295D02*
X105633333Y-158688152D01*
X105633333Y-158688152D02*
X105585714Y-158783390D01*
X105585714Y-158783390D02*
X105538095Y-158831009D01*
X105538095Y-158831009D02*
X105442857Y-158878628D01*
X105442857Y-158878628D02*
X105061905Y-158878628D01*
X106014286Y-158450057D02*
X106061905Y-158402438D01*
X106061905Y-158402438D02*
X106157143Y-158354819D01*
X106157143Y-158354819D02*
X106395238Y-158354819D01*
X106395238Y-158354819D02*
X106490476Y-158402438D01*
X106490476Y-158402438D02*
X106538095Y-158450057D01*
X106538095Y-158450057D02*
X106585714Y-158545295D01*
X106585714Y-158545295D02*
X106585714Y-158640533D01*
X106585714Y-158640533D02*
X106538095Y-158783390D01*
X106538095Y-158783390D02*
X105966667Y-159354819D01*
X105966667Y-159354819D02*
X106585714Y-159354819D01*
X113354819Y-143038094D02*
X112354819Y-143038094D01*
X112354819Y-143038094D02*
X112354819Y-142799999D01*
X112354819Y-142799999D02*
X112402438Y-142657142D01*
X112402438Y-142657142D02*
X112497676Y-142561904D01*
X112497676Y-142561904D02*
X112592914Y-142514285D01*
X112592914Y-142514285D02*
X112783390Y-142466666D01*
X112783390Y-142466666D02*
X112926247Y-142466666D01*
X112926247Y-142466666D02*
X113116723Y-142514285D01*
X113116723Y-142514285D02*
X113211961Y-142561904D01*
X113211961Y-142561904D02*
X113307200Y-142657142D01*
X113307200Y-142657142D02*
X113354819Y-142799999D01*
X113354819Y-142799999D02*
X113354819Y-143038094D01*
X112354819Y-141609523D02*
X112354819Y-141799999D01*
X112354819Y-141799999D02*
X112402438Y-141895237D01*
X112402438Y-141895237D02*
X112450057Y-141942856D01*
X112450057Y-141942856D02*
X112592914Y-142038094D01*
X112592914Y-142038094D02*
X112783390Y-142085713D01*
X112783390Y-142085713D02*
X113164342Y-142085713D01*
X113164342Y-142085713D02*
X113259580Y-142038094D01*
X113259580Y-142038094D02*
X113307200Y-141990475D01*
X113307200Y-141990475D02*
X113354819Y-141895237D01*
X113354819Y-141895237D02*
X113354819Y-141704761D01*
X113354819Y-141704761D02*
X113307200Y-141609523D01*
X113307200Y-141609523D02*
X113259580Y-141561904D01*
X113259580Y-141561904D02*
X113164342Y-141514285D01*
X113164342Y-141514285D02*
X112926247Y-141514285D01*
X112926247Y-141514285D02*
X112831009Y-141561904D01*
X112831009Y-141561904D02*
X112783390Y-141609523D01*
X112783390Y-141609523D02*
X112735771Y-141704761D01*
X112735771Y-141704761D02*
X112735771Y-141895237D01*
X112735771Y-141895237D02*
X112783390Y-141990475D01*
X112783390Y-141990475D02*
X112831009Y-142038094D01*
X112831009Y-142038094D02*
X112926247Y-142085713D01*
X113657142Y-108754819D02*
X113323809Y-108278628D01*
X113085714Y-108754819D02*
X113085714Y-107754819D01*
X113085714Y-107754819D02*
X113466666Y-107754819D01*
X113466666Y-107754819D02*
X113561904Y-107802438D01*
X113561904Y-107802438D02*
X113609523Y-107850057D01*
X113609523Y-107850057D02*
X113657142Y-107945295D01*
X113657142Y-107945295D02*
X113657142Y-108088152D01*
X113657142Y-108088152D02*
X113609523Y-108183390D01*
X113609523Y-108183390D02*
X113561904Y-108231009D01*
X113561904Y-108231009D02*
X113466666Y-108278628D01*
X113466666Y-108278628D02*
X113085714Y-108278628D01*
X114609523Y-108754819D02*
X114038095Y-108754819D01*
X114323809Y-108754819D02*
X114323809Y-107754819D01*
X114323809Y-107754819D02*
X114228571Y-107897676D01*
X114228571Y-107897676D02*
X114133333Y-107992914D01*
X114133333Y-107992914D02*
X114038095Y-108040533D01*
X114990476Y-107850057D02*
X115038095Y-107802438D01*
X115038095Y-107802438D02*
X115133333Y-107754819D01*
X115133333Y-107754819D02*
X115371428Y-107754819D01*
X115371428Y-107754819D02*
X115466666Y-107802438D01*
X115466666Y-107802438D02*
X115514285Y-107850057D01*
X115514285Y-107850057D02*
X115561904Y-107945295D01*
X115561904Y-107945295D02*
X115561904Y-108040533D01*
X115561904Y-108040533D02*
X115514285Y-108183390D01*
X115514285Y-108183390D02*
X114942857Y-108754819D01*
X114942857Y-108754819D02*
X115561904Y-108754819D01*
X132357142Y-111659580D02*
X132309523Y-111707200D01*
X132309523Y-111707200D02*
X132166666Y-111754819D01*
X132166666Y-111754819D02*
X132071428Y-111754819D01*
X132071428Y-111754819D02*
X131928571Y-111707200D01*
X131928571Y-111707200D02*
X131833333Y-111611961D01*
X131833333Y-111611961D02*
X131785714Y-111516723D01*
X131785714Y-111516723D02*
X131738095Y-111326247D01*
X131738095Y-111326247D02*
X131738095Y-111183390D01*
X131738095Y-111183390D02*
X131785714Y-110992914D01*
X131785714Y-110992914D02*
X131833333Y-110897676D01*
X131833333Y-110897676D02*
X131928571Y-110802438D01*
X131928571Y-110802438D02*
X132071428Y-110754819D01*
X132071428Y-110754819D02*
X132166666Y-110754819D01*
X132166666Y-110754819D02*
X132309523Y-110802438D01*
X132309523Y-110802438D02*
X132357142Y-110850057D01*
X132690476Y-110754819D02*
X133309523Y-110754819D01*
X133309523Y-110754819D02*
X132976190Y-111135771D01*
X132976190Y-111135771D02*
X133119047Y-111135771D01*
X133119047Y-111135771D02*
X133214285Y-111183390D01*
X133214285Y-111183390D02*
X133261904Y-111231009D01*
X133261904Y-111231009D02*
X133309523Y-111326247D01*
X133309523Y-111326247D02*
X133309523Y-111564342D01*
X133309523Y-111564342D02*
X133261904Y-111659580D01*
X133261904Y-111659580D02*
X133214285Y-111707200D01*
X133214285Y-111707200D02*
X133119047Y-111754819D01*
X133119047Y-111754819D02*
X132833333Y-111754819D01*
X132833333Y-111754819D02*
X132738095Y-111707200D01*
X132738095Y-111707200D02*
X132690476Y-111659580D01*
X133880952Y-111183390D02*
X133785714Y-111135771D01*
X133785714Y-111135771D02*
X133738095Y-111088152D01*
X133738095Y-111088152D02*
X133690476Y-110992914D01*
X133690476Y-110992914D02*
X133690476Y-110945295D01*
X133690476Y-110945295D02*
X133738095Y-110850057D01*
X133738095Y-110850057D02*
X133785714Y-110802438D01*
X133785714Y-110802438D02*
X133880952Y-110754819D01*
X133880952Y-110754819D02*
X134071428Y-110754819D01*
X134071428Y-110754819D02*
X134166666Y-110802438D01*
X134166666Y-110802438D02*
X134214285Y-110850057D01*
X134214285Y-110850057D02*
X134261904Y-110945295D01*
X134261904Y-110945295D02*
X134261904Y-110992914D01*
X134261904Y-110992914D02*
X134214285Y-111088152D01*
X134214285Y-111088152D02*
X134166666Y-111135771D01*
X134166666Y-111135771D02*
X134071428Y-111183390D01*
X134071428Y-111183390D02*
X133880952Y-111183390D01*
X133880952Y-111183390D02*
X133785714Y-111231009D01*
X133785714Y-111231009D02*
X133738095Y-111278628D01*
X133738095Y-111278628D02*
X133690476Y-111373866D01*
X133690476Y-111373866D02*
X133690476Y-111564342D01*
X133690476Y-111564342D02*
X133738095Y-111659580D01*
X133738095Y-111659580D02*
X133785714Y-111707200D01*
X133785714Y-111707200D02*
X133880952Y-111754819D01*
X133880952Y-111754819D02*
X134071428Y-111754819D01*
X134071428Y-111754819D02*
X134166666Y-111707200D01*
X134166666Y-111707200D02*
X134214285Y-111659580D01*
X134214285Y-111659580D02*
X134261904Y-111564342D01*
X134261904Y-111564342D02*
X134261904Y-111373866D01*
X134261904Y-111373866D02*
X134214285Y-111278628D01*
X134214285Y-111278628D02*
X134166666Y-111231009D01*
X134166666Y-111231009D02*
X134071428Y-111183390D01*
X115739580Y-162442857D02*
X115787200Y-162490476D01*
X115787200Y-162490476D02*
X115834819Y-162633333D01*
X115834819Y-162633333D02*
X115834819Y-162728571D01*
X115834819Y-162728571D02*
X115787200Y-162871428D01*
X115787200Y-162871428D02*
X115691961Y-162966666D01*
X115691961Y-162966666D02*
X115596723Y-163014285D01*
X115596723Y-163014285D02*
X115406247Y-163061904D01*
X115406247Y-163061904D02*
X115263390Y-163061904D01*
X115263390Y-163061904D02*
X115072914Y-163014285D01*
X115072914Y-163014285D02*
X114977676Y-162966666D01*
X114977676Y-162966666D02*
X114882438Y-162871428D01*
X114882438Y-162871428D02*
X114834819Y-162728571D01*
X114834819Y-162728571D02*
X114834819Y-162633333D01*
X114834819Y-162633333D02*
X114882438Y-162490476D01*
X114882438Y-162490476D02*
X114930057Y-162442857D01*
X114930057Y-162061904D02*
X114882438Y-162014285D01*
X114882438Y-162014285D02*
X114834819Y-161919047D01*
X114834819Y-161919047D02*
X114834819Y-161680952D01*
X114834819Y-161680952D02*
X114882438Y-161585714D01*
X114882438Y-161585714D02*
X114930057Y-161538095D01*
X114930057Y-161538095D02*
X115025295Y-161490476D01*
X115025295Y-161490476D02*
X115120533Y-161490476D01*
X115120533Y-161490476D02*
X115263390Y-161538095D01*
X115263390Y-161538095D02*
X115834819Y-162109523D01*
X115834819Y-162109523D02*
X115834819Y-161490476D01*
X115263390Y-160919047D02*
X115215771Y-161014285D01*
X115215771Y-161014285D02*
X115168152Y-161061904D01*
X115168152Y-161061904D02*
X115072914Y-161109523D01*
X115072914Y-161109523D02*
X115025295Y-161109523D01*
X115025295Y-161109523D02*
X114930057Y-161061904D01*
X114930057Y-161061904D02*
X114882438Y-161014285D01*
X114882438Y-161014285D02*
X114834819Y-160919047D01*
X114834819Y-160919047D02*
X114834819Y-160728571D01*
X114834819Y-160728571D02*
X114882438Y-160633333D01*
X114882438Y-160633333D02*
X114930057Y-160585714D01*
X114930057Y-160585714D02*
X115025295Y-160538095D01*
X115025295Y-160538095D02*
X115072914Y-160538095D01*
X115072914Y-160538095D02*
X115168152Y-160585714D01*
X115168152Y-160585714D02*
X115215771Y-160633333D01*
X115215771Y-160633333D02*
X115263390Y-160728571D01*
X115263390Y-160728571D02*
X115263390Y-160919047D01*
X115263390Y-160919047D02*
X115311009Y-161014285D01*
X115311009Y-161014285D02*
X115358628Y-161061904D01*
X115358628Y-161061904D02*
X115453866Y-161109523D01*
X115453866Y-161109523D02*
X115644342Y-161109523D01*
X115644342Y-161109523D02*
X115739580Y-161061904D01*
X115739580Y-161061904D02*
X115787200Y-161014285D01*
X115787200Y-161014285D02*
X115834819Y-160919047D01*
X115834819Y-160919047D02*
X115834819Y-160728571D01*
X115834819Y-160728571D02*
X115787200Y-160633333D01*
X115787200Y-160633333D02*
X115739580Y-160585714D01*
X115739580Y-160585714D02*
X115644342Y-160538095D01*
X115644342Y-160538095D02*
X115453866Y-160538095D01*
X115453866Y-160538095D02*
X115358628Y-160585714D01*
X115358628Y-160585714D02*
X115311009Y-160633333D01*
X115311009Y-160633333D02*
X115263390Y-160728571D01*
X122559580Y-110469124D02*
X122607200Y-110516743D01*
X122607200Y-110516743D02*
X122654819Y-110659600D01*
X122654819Y-110659600D02*
X122654819Y-110754838D01*
X122654819Y-110754838D02*
X122607200Y-110897695D01*
X122607200Y-110897695D02*
X122511961Y-110992933D01*
X122511961Y-110992933D02*
X122416723Y-111040552D01*
X122416723Y-111040552D02*
X122226247Y-111088171D01*
X122226247Y-111088171D02*
X122083390Y-111088171D01*
X122083390Y-111088171D02*
X121892914Y-111040552D01*
X121892914Y-111040552D02*
X121797676Y-110992933D01*
X121797676Y-110992933D02*
X121702438Y-110897695D01*
X121702438Y-110897695D02*
X121654819Y-110754838D01*
X121654819Y-110754838D02*
X121654819Y-110659600D01*
X121654819Y-110659600D02*
X121702438Y-110516743D01*
X121702438Y-110516743D02*
X121750057Y-110469124D01*
X121654819Y-110135790D02*
X121654819Y-109516743D01*
X121654819Y-109516743D02*
X122035771Y-109850076D01*
X122035771Y-109850076D02*
X122035771Y-109707219D01*
X122035771Y-109707219D02*
X122083390Y-109611981D01*
X122083390Y-109611981D02*
X122131009Y-109564362D01*
X122131009Y-109564362D02*
X122226247Y-109516743D01*
X122226247Y-109516743D02*
X122464342Y-109516743D01*
X122464342Y-109516743D02*
X122559580Y-109564362D01*
X122559580Y-109564362D02*
X122607200Y-109611981D01*
X122607200Y-109611981D02*
X122654819Y-109707219D01*
X122654819Y-109707219D02*
X122654819Y-109992933D01*
X122654819Y-109992933D02*
X122607200Y-110088171D01*
X122607200Y-110088171D02*
X122559580Y-110135790D01*
X121654819Y-109183409D02*
X121654819Y-108516743D01*
X121654819Y-108516743D02*
X122654819Y-108945314D01*
X132257142Y-158459580D02*
X132209523Y-158507200D01*
X132209523Y-158507200D02*
X132066666Y-158554819D01*
X132066666Y-158554819D02*
X131971428Y-158554819D01*
X131971428Y-158554819D02*
X131828571Y-158507200D01*
X131828571Y-158507200D02*
X131733333Y-158411961D01*
X131733333Y-158411961D02*
X131685714Y-158316723D01*
X131685714Y-158316723D02*
X131638095Y-158126247D01*
X131638095Y-158126247D02*
X131638095Y-157983390D01*
X131638095Y-157983390D02*
X131685714Y-157792914D01*
X131685714Y-157792914D02*
X131733333Y-157697676D01*
X131733333Y-157697676D02*
X131828571Y-157602438D01*
X131828571Y-157602438D02*
X131971428Y-157554819D01*
X131971428Y-157554819D02*
X132066666Y-157554819D01*
X132066666Y-157554819D02*
X132209523Y-157602438D01*
X132209523Y-157602438D02*
X132257142Y-157650057D01*
X133114285Y-157888152D02*
X133114285Y-158554819D01*
X132876190Y-157507200D02*
X132638095Y-158221485D01*
X132638095Y-158221485D02*
X133257142Y-158221485D01*
X134114285Y-157554819D02*
X133638095Y-157554819D01*
X133638095Y-157554819D02*
X133590476Y-158031009D01*
X133590476Y-158031009D02*
X133638095Y-157983390D01*
X133638095Y-157983390D02*
X133733333Y-157935771D01*
X133733333Y-157935771D02*
X133971428Y-157935771D01*
X133971428Y-157935771D02*
X134066666Y-157983390D01*
X134066666Y-157983390D02*
X134114285Y-158031009D01*
X134114285Y-158031009D02*
X134161904Y-158126247D01*
X134161904Y-158126247D02*
X134161904Y-158364342D01*
X134161904Y-158364342D02*
X134114285Y-158459580D01*
X134114285Y-158459580D02*
X134066666Y-158507200D01*
X134066666Y-158507200D02*
X133971428Y-158554819D01*
X133971428Y-158554819D02*
X133733333Y-158554819D01*
X133733333Y-158554819D02*
X133638095Y-158507200D01*
X133638095Y-158507200D02*
X133590476Y-158459580D01*
X122859580Y-126442857D02*
X122907200Y-126490476D01*
X122907200Y-126490476D02*
X122954819Y-126633333D01*
X122954819Y-126633333D02*
X122954819Y-126728571D01*
X122954819Y-126728571D02*
X122907200Y-126871428D01*
X122907200Y-126871428D02*
X122811961Y-126966666D01*
X122811961Y-126966666D02*
X122716723Y-127014285D01*
X122716723Y-127014285D02*
X122526247Y-127061904D01*
X122526247Y-127061904D02*
X122383390Y-127061904D01*
X122383390Y-127061904D02*
X122192914Y-127014285D01*
X122192914Y-127014285D02*
X122097676Y-126966666D01*
X122097676Y-126966666D02*
X122002438Y-126871428D01*
X122002438Y-126871428D02*
X121954819Y-126728571D01*
X121954819Y-126728571D02*
X121954819Y-126633333D01*
X121954819Y-126633333D02*
X122002438Y-126490476D01*
X122002438Y-126490476D02*
X122050057Y-126442857D01*
X122288152Y-125585714D02*
X122954819Y-125585714D01*
X121907200Y-125823809D02*
X122621485Y-126061904D01*
X122621485Y-126061904D02*
X122621485Y-125442857D01*
X122050057Y-125109523D02*
X122002438Y-125061904D01*
X122002438Y-125061904D02*
X121954819Y-124966666D01*
X121954819Y-124966666D02*
X121954819Y-124728571D01*
X121954819Y-124728571D02*
X122002438Y-124633333D01*
X122002438Y-124633333D02*
X122050057Y-124585714D01*
X122050057Y-124585714D02*
X122145295Y-124538095D01*
X122145295Y-124538095D02*
X122240533Y-124538095D01*
X122240533Y-124538095D02*
X122383390Y-124585714D01*
X122383390Y-124585714D02*
X122954819Y-125157142D01*
X122954819Y-125157142D02*
X122954819Y-124538095D01*
X125994761Y-105865057D02*
X125899523Y-105817438D01*
X125899523Y-105817438D02*
X125804285Y-105722200D01*
X125804285Y-105722200D02*
X125661428Y-105579342D01*
X125661428Y-105579342D02*
X125566190Y-105531723D01*
X125566190Y-105531723D02*
X125470952Y-105531723D01*
X125518571Y-105769819D02*
X125423333Y-105722200D01*
X125423333Y-105722200D02*
X125328095Y-105626961D01*
X125328095Y-105626961D02*
X125280476Y-105436485D01*
X125280476Y-105436485D02*
X125280476Y-105103152D01*
X125280476Y-105103152D02*
X125328095Y-104912676D01*
X125328095Y-104912676D02*
X125423333Y-104817438D01*
X125423333Y-104817438D02*
X125518571Y-104769819D01*
X125518571Y-104769819D02*
X125709047Y-104769819D01*
X125709047Y-104769819D02*
X125804285Y-104817438D01*
X125804285Y-104817438D02*
X125899523Y-104912676D01*
X125899523Y-104912676D02*
X125947142Y-105103152D01*
X125947142Y-105103152D02*
X125947142Y-105436485D01*
X125947142Y-105436485D02*
X125899523Y-105626961D01*
X125899523Y-105626961D02*
X125804285Y-105722200D01*
X125804285Y-105722200D02*
X125709047Y-105769819D01*
X125709047Y-105769819D02*
X125518571Y-105769819D01*
X126280476Y-104769819D02*
X126899523Y-104769819D01*
X126899523Y-104769819D02*
X126566190Y-105150771D01*
X126566190Y-105150771D02*
X126709047Y-105150771D01*
X126709047Y-105150771D02*
X126804285Y-105198390D01*
X126804285Y-105198390D02*
X126851904Y-105246009D01*
X126851904Y-105246009D02*
X126899523Y-105341247D01*
X126899523Y-105341247D02*
X126899523Y-105579342D01*
X126899523Y-105579342D02*
X126851904Y-105674580D01*
X126851904Y-105674580D02*
X126804285Y-105722200D01*
X126804285Y-105722200D02*
X126709047Y-105769819D01*
X126709047Y-105769819D02*
X126423333Y-105769819D01*
X126423333Y-105769819D02*
X126328095Y-105722200D01*
X126328095Y-105722200D02*
X126280476Y-105674580D01*
X111666666Y-89854819D02*
X111666666Y-90569104D01*
X111666666Y-90569104D02*
X111619047Y-90711961D01*
X111619047Y-90711961D02*
X111523809Y-90807200D01*
X111523809Y-90807200D02*
X111380952Y-90854819D01*
X111380952Y-90854819D02*
X111285714Y-90854819D01*
X112142857Y-90854819D02*
X112142857Y-89854819D01*
X112142857Y-89854819D02*
X112523809Y-89854819D01*
X112523809Y-89854819D02*
X112619047Y-89902438D01*
X112619047Y-89902438D02*
X112666666Y-89950057D01*
X112666666Y-89950057D02*
X112714285Y-90045295D01*
X112714285Y-90045295D02*
X112714285Y-90188152D01*
X112714285Y-90188152D02*
X112666666Y-90283390D01*
X112666666Y-90283390D02*
X112619047Y-90331009D01*
X112619047Y-90331009D02*
X112523809Y-90378628D01*
X112523809Y-90378628D02*
X112142857Y-90378628D01*
X113666666Y-90854819D02*
X113095238Y-90854819D01*
X113380952Y-90854819D02*
X113380952Y-89854819D01*
X113380952Y-89854819D02*
X113285714Y-89997676D01*
X113285714Y-89997676D02*
X113190476Y-90092914D01*
X113190476Y-90092914D02*
X113095238Y-90140533D01*
X112796405Y-151054819D02*
X112320215Y-151054819D01*
X112320215Y-151054819D02*
X112320215Y-150054819D01*
X113653548Y-151054819D02*
X113082120Y-151054819D01*
X113367834Y-151054819D02*
X113367834Y-150054819D01*
X113367834Y-150054819D02*
X113272596Y-150197676D01*
X113272596Y-150197676D02*
X113177358Y-150292914D01*
X113177358Y-150292914D02*
X113082120Y-150340533D01*
X111410875Y-135759580D02*
X111363256Y-135807200D01*
X111363256Y-135807200D02*
X111220399Y-135854819D01*
X111220399Y-135854819D02*
X111125161Y-135854819D01*
X111125161Y-135854819D02*
X110982304Y-135807200D01*
X110982304Y-135807200D02*
X110887066Y-135711961D01*
X110887066Y-135711961D02*
X110839447Y-135616723D01*
X110839447Y-135616723D02*
X110791828Y-135426247D01*
X110791828Y-135426247D02*
X110791828Y-135283390D01*
X110791828Y-135283390D02*
X110839447Y-135092914D01*
X110839447Y-135092914D02*
X110887066Y-134997676D01*
X110887066Y-134997676D02*
X110982304Y-134902438D01*
X110982304Y-134902438D02*
X111125161Y-134854819D01*
X111125161Y-134854819D02*
X111220399Y-134854819D01*
X111220399Y-134854819D02*
X111363256Y-134902438D01*
X111363256Y-134902438D02*
X111410875Y-134950057D01*
X112363256Y-135854819D02*
X111791828Y-135854819D01*
X112077542Y-135854819D02*
X112077542Y-134854819D01*
X112077542Y-134854819D02*
X111982304Y-134997676D01*
X111982304Y-134997676D02*
X111887066Y-135092914D01*
X111887066Y-135092914D02*
X111791828Y-135140533D01*
X112744209Y-134950057D02*
X112791828Y-134902438D01*
X112791828Y-134902438D02*
X112887066Y-134854819D01*
X112887066Y-134854819D02*
X113125161Y-134854819D01*
X113125161Y-134854819D02*
X113220399Y-134902438D01*
X113220399Y-134902438D02*
X113268018Y-134950057D01*
X113268018Y-134950057D02*
X113315637Y-135045295D01*
X113315637Y-135045295D02*
X113315637Y-135140533D01*
X113315637Y-135140533D02*
X113268018Y-135283390D01*
X113268018Y-135283390D02*
X112696590Y-135854819D01*
X112696590Y-135854819D02*
X113315637Y-135854819D01*
X137938095Y-157154819D02*
X137938095Y-157964342D01*
X137938095Y-157964342D02*
X137985714Y-158059580D01*
X137985714Y-158059580D02*
X138033333Y-158107200D01*
X138033333Y-158107200D02*
X138128571Y-158154819D01*
X138128571Y-158154819D02*
X138319047Y-158154819D01*
X138319047Y-158154819D02*
X138414285Y-158107200D01*
X138414285Y-158107200D02*
X138461904Y-158059580D01*
X138461904Y-158059580D02*
X138509523Y-157964342D01*
X138509523Y-157964342D02*
X138509523Y-157154819D01*
X138890476Y-157154819D02*
X139557142Y-157154819D01*
X139557142Y-157154819D02*
X139128571Y-158154819D01*
X126729580Y-162442857D02*
X126777200Y-162490476D01*
X126777200Y-162490476D02*
X126824819Y-162633333D01*
X126824819Y-162633333D02*
X126824819Y-162728571D01*
X126824819Y-162728571D02*
X126777200Y-162871428D01*
X126777200Y-162871428D02*
X126681961Y-162966666D01*
X126681961Y-162966666D02*
X126586723Y-163014285D01*
X126586723Y-163014285D02*
X126396247Y-163061904D01*
X126396247Y-163061904D02*
X126253390Y-163061904D01*
X126253390Y-163061904D02*
X126062914Y-163014285D01*
X126062914Y-163014285D02*
X125967676Y-162966666D01*
X125967676Y-162966666D02*
X125872438Y-162871428D01*
X125872438Y-162871428D02*
X125824819Y-162728571D01*
X125824819Y-162728571D02*
X125824819Y-162633333D01*
X125824819Y-162633333D02*
X125872438Y-162490476D01*
X125872438Y-162490476D02*
X125920057Y-162442857D01*
X125824819Y-162109523D02*
X125824819Y-161490476D01*
X125824819Y-161490476D02*
X126205771Y-161823809D01*
X126205771Y-161823809D02*
X126205771Y-161680952D01*
X126205771Y-161680952D02*
X126253390Y-161585714D01*
X126253390Y-161585714D02*
X126301009Y-161538095D01*
X126301009Y-161538095D02*
X126396247Y-161490476D01*
X126396247Y-161490476D02*
X126634342Y-161490476D01*
X126634342Y-161490476D02*
X126729580Y-161538095D01*
X126729580Y-161538095D02*
X126777200Y-161585714D01*
X126777200Y-161585714D02*
X126824819Y-161680952D01*
X126824819Y-161680952D02*
X126824819Y-161966666D01*
X126824819Y-161966666D02*
X126777200Y-162061904D01*
X126777200Y-162061904D02*
X126729580Y-162109523D01*
X125824819Y-160585714D02*
X125824819Y-161061904D01*
X125824819Y-161061904D02*
X126301009Y-161109523D01*
X126301009Y-161109523D02*
X126253390Y-161061904D01*
X126253390Y-161061904D02*
X126205771Y-160966666D01*
X126205771Y-160966666D02*
X126205771Y-160728571D01*
X126205771Y-160728571D02*
X126253390Y-160633333D01*
X126253390Y-160633333D02*
X126301009Y-160585714D01*
X126301009Y-160585714D02*
X126396247Y-160538095D01*
X126396247Y-160538095D02*
X126634342Y-160538095D01*
X126634342Y-160538095D02*
X126729580Y-160585714D01*
X126729580Y-160585714D02*
X126777200Y-160633333D01*
X126777200Y-160633333D02*
X126824819Y-160728571D01*
X126824819Y-160728571D02*
X126824819Y-160966666D01*
X126824819Y-160966666D02*
X126777200Y-161061904D01*
X126777200Y-161061904D02*
X126729580Y-161109523D01*
X125854819Y-113111942D02*
X125378628Y-113445275D01*
X125854819Y-113683370D02*
X124854819Y-113683370D01*
X124854819Y-113683370D02*
X124854819Y-113302418D01*
X124854819Y-113302418D02*
X124902438Y-113207180D01*
X124902438Y-113207180D02*
X124950057Y-113159561D01*
X124950057Y-113159561D02*
X125045295Y-113111942D01*
X125045295Y-113111942D02*
X125188152Y-113111942D01*
X125188152Y-113111942D02*
X125283390Y-113159561D01*
X125283390Y-113159561D02*
X125331009Y-113207180D01*
X125331009Y-113207180D02*
X125378628Y-113302418D01*
X125378628Y-113302418D02*
X125378628Y-113683370D01*
X124854819Y-112254799D02*
X124854819Y-112445275D01*
X124854819Y-112445275D02*
X124902438Y-112540513D01*
X124902438Y-112540513D02*
X124950057Y-112588132D01*
X124950057Y-112588132D02*
X125092914Y-112683370D01*
X125092914Y-112683370D02*
X125283390Y-112730989D01*
X125283390Y-112730989D02*
X125664342Y-112730989D01*
X125664342Y-112730989D02*
X125759580Y-112683370D01*
X125759580Y-112683370D02*
X125807200Y-112635751D01*
X125807200Y-112635751D02*
X125854819Y-112540513D01*
X125854819Y-112540513D02*
X125854819Y-112350037D01*
X125854819Y-112350037D02*
X125807200Y-112254799D01*
X125807200Y-112254799D02*
X125759580Y-112207180D01*
X125759580Y-112207180D02*
X125664342Y-112159561D01*
X125664342Y-112159561D02*
X125426247Y-112159561D01*
X125426247Y-112159561D02*
X125331009Y-112207180D01*
X125331009Y-112207180D02*
X125283390Y-112254799D01*
X125283390Y-112254799D02*
X125235771Y-112350037D01*
X125235771Y-112350037D02*
X125235771Y-112540513D01*
X125235771Y-112540513D02*
X125283390Y-112635751D01*
X125283390Y-112635751D02*
X125331009Y-112683370D01*
X125331009Y-112683370D02*
X125426247Y-112730989D01*
X104042857Y-169093509D02*
X104185714Y-169141128D01*
X104185714Y-169141128D02*
X104233333Y-169188747D01*
X104233333Y-169188747D02*
X104280952Y-169283985D01*
X104280952Y-169283985D02*
X104280952Y-169426842D01*
X104280952Y-169426842D02*
X104233333Y-169522080D01*
X104233333Y-169522080D02*
X104185714Y-169569700D01*
X104185714Y-169569700D02*
X104090476Y-169617319D01*
X104090476Y-169617319D02*
X103709524Y-169617319D01*
X103709524Y-169617319D02*
X103709524Y-168617319D01*
X103709524Y-168617319D02*
X104042857Y-168617319D01*
X104042857Y-168617319D02*
X104138095Y-168664938D01*
X104138095Y-168664938D02*
X104185714Y-168712557D01*
X104185714Y-168712557D02*
X104233333Y-168807795D01*
X104233333Y-168807795D02*
X104233333Y-168903033D01*
X104233333Y-168903033D02*
X104185714Y-168998271D01*
X104185714Y-168998271D02*
X104138095Y-169045890D01*
X104138095Y-169045890D02*
X104042857Y-169093509D01*
X104042857Y-169093509D02*
X103709524Y-169093509D01*
X104661905Y-169331604D02*
X105138095Y-169331604D01*
X104566667Y-169617319D02*
X104900000Y-168617319D01*
X104900000Y-168617319D02*
X105233333Y-169617319D01*
X105423810Y-168617319D02*
X105995238Y-168617319D01*
X105709524Y-169617319D02*
X105709524Y-168617319D01*
X106328572Y-169236366D02*
X107090477Y-169236366D01*
X125557142Y-117124819D02*
X125223809Y-116648628D01*
X124985714Y-117124819D02*
X124985714Y-116124819D01*
X124985714Y-116124819D02*
X125366666Y-116124819D01*
X125366666Y-116124819D02*
X125461904Y-116172438D01*
X125461904Y-116172438D02*
X125509523Y-116220057D01*
X125509523Y-116220057D02*
X125557142Y-116315295D01*
X125557142Y-116315295D02*
X125557142Y-116458152D01*
X125557142Y-116458152D02*
X125509523Y-116553390D01*
X125509523Y-116553390D02*
X125461904Y-116601009D01*
X125461904Y-116601009D02*
X125366666Y-116648628D01*
X125366666Y-116648628D02*
X124985714Y-116648628D01*
X126509523Y-117124819D02*
X125938095Y-117124819D01*
X126223809Y-117124819D02*
X126223809Y-116124819D01*
X126223809Y-116124819D02*
X126128571Y-116267676D01*
X126128571Y-116267676D02*
X126033333Y-116362914D01*
X126033333Y-116362914D02*
X125938095Y-116410533D01*
X127366666Y-116124819D02*
X127176190Y-116124819D01*
X127176190Y-116124819D02*
X127080952Y-116172438D01*
X127080952Y-116172438D02*
X127033333Y-116220057D01*
X127033333Y-116220057D02*
X126938095Y-116362914D01*
X126938095Y-116362914D02*
X126890476Y-116553390D01*
X126890476Y-116553390D02*
X126890476Y-116934342D01*
X126890476Y-116934342D02*
X126938095Y-117029580D01*
X126938095Y-117029580D02*
X126985714Y-117077200D01*
X126985714Y-117077200D02*
X127080952Y-117124819D01*
X127080952Y-117124819D02*
X127271428Y-117124819D01*
X127271428Y-117124819D02*
X127366666Y-117077200D01*
X127366666Y-117077200D02*
X127414285Y-117029580D01*
X127414285Y-117029580D02*
X127461904Y-116934342D01*
X127461904Y-116934342D02*
X127461904Y-116696247D01*
X127461904Y-116696247D02*
X127414285Y-116601009D01*
X127414285Y-116601009D02*
X127366666Y-116553390D01*
X127366666Y-116553390D02*
X127271428Y-116505771D01*
X127271428Y-116505771D02*
X127080952Y-116505771D01*
X127080952Y-116505771D02*
X126985714Y-116553390D01*
X126985714Y-116553390D02*
X126938095Y-116601009D01*
X126938095Y-116601009D02*
X126890476Y-116696247D01*
X109459580Y-162442857D02*
X109507200Y-162490476D01*
X109507200Y-162490476D02*
X109554819Y-162633333D01*
X109554819Y-162633333D02*
X109554819Y-162728571D01*
X109554819Y-162728571D02*
X109507200Y-162871428D01*
X109507200Y-162871428D02*
X109411961Y-162966666D01*
X109411961Y-162966666D02*
X109316723Y-163014285D01*
X109316723Y-163014285D02*
X109126247Y-163061904D01*
X109126247Y-163061904D02*
X108983390Y-163061904D01*
X108983390Y-163061904D02*
X108792914Y-163014285D01*
X108792914Y-163014285D02*
X108697676Y-162966666D01*
X108697676Y-162966666D02*
X108602438Y-162871428D01*
X108602438Y-162871428D02*
X108554819Y-162728571D01*
X108554819Y-162728571D02*
X108554819Y-162633333D01*
X108554819Y-162633333D02*
X108602438Y-162490476D01*
X108602438Y-162490476D02*
X108650057Y-162442857D01*
X108554819Y-162109523D02*
X108554819Y-161490476D01*
X108554819Y-161490476D02*
X108935771Y-161823809D01*
X108935771Y-161823809D02*
X108935771Y-161680952D01*
X108935771Y-161680952D02*
X108983390Y-161585714D01*
X108983390Y-161585714D02*
X109031009Y-161538095D01*
X109031009Y-161538095D02*
X109126247Y-161490476D01*
X109126247Y-161490476D02*
X109364342Y-161490476D01*
X109364342Y-161490476D02*
X109459580Y-161538095D01*
X109459580Y-161538095D02*
X109507200Y-161585714D01*
X109507200Y-161585714D02*
X109554819Y-161680952D01*
X109554819Y-161680952D02*
X109554819Y-161966666D01*
X109554819Y-161966666D02*
X109507200Y-162061904D01*
X109507200Y-162061904D02*
X109459580Y-162109523D01*
X108650057Y-161109523D02*
X108602438Y-161061904D01*
X108602438Y-161061904D02*
X108554819Y-160966666D01*
X108554819Y-160966666D02*
X108554819Y-160728571D01*
X108554819Y-160728571D02*
X108602438Y-160633333D01*
X108602438Y-160633333D02*
X108650057Y-160585714D01*
X108650057Y-160585714D02*
X108745295Y-160538095D01*
X108745295Y-160538095D02*
X108840533Y-160538095D01*
X108840533Y-160538095D02*
X108983390Y-160585714D01*
X108983390Y-160585714D02*
X109554819Y-161157142D01*
X109554819Y-161157142D02*
X109554819Y-160538095D01*
X115775750Y-116653246D02*
X116348170Y-117225666D01*
X116348170Y-117225666D02*
X116449185Y-117259338D01*
X116449185Y-117259338D02*
X116516529Y-117259338D01*
X116516529Y-117259338D02*
X116617544Y-117225666D01*
X116617544Y-117225666D02*
X116752231Y-117090979D01*
X116752231Y-117090979D02*
X116785903Y-116989964D01*
X116785903Y-116989964D02*
X116785903Y-116922620D01*
X116785903Y-116922620D02*
X116752231Y-116821605D01*
X116752231Y-116821605D02*
X116179811Y-116249185D01*
X117055277Y-115845124D02*
X117526681Y-116316529D01*
X116617544Y-115744109D02*
X116954262Y-116417544D01*
X116954262Y-116417544D02*
X117391994Y-115979811D01*
X103233333Y-154492319D02*
X102900000Y-154016128D01*
X102661905Y-154492319D02*
X102661905Y-153492319D01*
X102661905Y-153492319D02*
X103042857Y-153492319D01*
X103042857Y-153492319D02*
X103138095Y-153539938D01*
X103138095Y-153539938D02*
X103185714Y-153587557D01*
X103185714Y-153587557D02*
X103233333Y-153682795D01*
X103233333Y-153682795D02*
X103233333Y-153825652D01*
X103233333Y-153825652D02*
X103185714Y-153920890D01*
X103185714Y-153920890D02*
X103138095Y-153968509D01*
X103138095Y-153968509D02*
X103042857Y-154016128D01*
X103042857Y-154016128D02*
X102661905Y-154016128D01*
X104185714Y-154492319D02*
X103614286Y-154492319D01*
X103900000Y-154492319D02*
X103900000Y-153492319D01*
X103900000Y-153492319D02*
X103804762Y-153635176D01*
X103804762Y-153635176D02*
X103709524Y-153730414D01*
X103709524Y-153730414D02*
X103614286Y-153778033D01*
X135233333Y-149459580D02*
X135185714Y-149507200D01*
X135185714Y-149507200D02*
X135042857Y-149554819D01*
X135042857Y-149554819D02*
X134947619Y-149554819D01*
X134947619Y-149554819D02*
X134804762Y-149507200D01*
X134804762Y-149507200D02*
X134709524Y-149411961D01*
X134709524Y-149411961D02*
X134661905Y-149316723D01*
X134661905Y-149316723D02*
X134614286Y-149126247D01*
X134614286Y-149126247D02*
X134614286Y-148983390D01*
X134614286Y-148983390D02*
X134661905Y-148792914D01*
X134661905Y-148792914D02*
X134709524Y-148697676D01*
X134709524Y-148697676D02*
X134804762Y-148602438D01*
X134804762Y-148602438D02*
X134947619Y-148554819D01*
X134947619Y-148554819D02*
X135042857Y-148554819D01*
X135042857Y-148554819D02*
X135185714Y-148602438D01*
X135185714Y-148602438D02*
X135233333Y-148650057D01*
X136090476Y-148554819D02*
X135900000Y-148554819D01*
X135900000Y-148554819D02*
X135804762Y-148602438D01*
X135804762Y-148602438D02*
X135757143Y-148650057D01*
X135757143Y-148650057D02*
X135661905Y-148792914D01*
X135661905Y-148792914D02*
X135614286Y-148983390D01*
X135614286Y-148983390D02*
X135614286Y-149364342D01*
X135614286Y-149364342D02*
X135661905Y-149459580D01*
X135661905Y-149459580D02*
X135709524Y-149507200D01*
X135709524Y-149507200D02*
X135804762Y-149554819D01*
X135804762Y-149554819D02*
X135995238Y-149554819D01*
X135995238Y-149554819D02*
X136090476Y-149507200D01*
X136090476Y-149507200D02*
X136138095Y-149459580D01*
X136138095Y-149459580D02*
X136185714Y-149364342D01*
X136185714Y-149364342D02*
X136185714Y-149126247D01*
X136185714Y-149126247D02*
X136138095Y-149031009D01*
X136138095Y-149031009D02*
X136090476Y-148983390D01*
X136090476Y-148983390D02*
X135995238Y-148935771D01*
X135995238Y-148935771D02*
X135804762Y-148935771D01*
X135804762Y-148935771D02*
X135709524Y-148983390D01*
X135709524Y-148983390D02*
X135661905Y-149031009D01*
X135661905Y-149031009D02*
X135614286Y-149126247D01*
X118957142Y-112559580D02*
X118909523Y-112607200D01*
X118909523Y-112607200D02*
X118766666Y-112654819D01*
X118766666Y-112654819D02*
X118671428Y-112654819D01*
X118671428Y-112654819D02*
X118528571Y-112607200D01*
X118528571Y-112607200D02*
X118433333Y-112511961D01*
X118433333Y-112511961D02*
X118385714Y-112416723D01*
X118385714Y-112416723D02*
X118338095Y-112226247D01*
X118338095Y-112226247D02*
X118338095Y-112083390D01*
X118338095Y-112083390D02*
X118385714Y-111892914D01*
X118385714Y-111892914D02*
X118433333Y-111797676D01*
X118433333Y-111797676D02*
X118528571Y-111702438D01*
X118528571Y-111702438D02*
X118671428Y-111654819D01*
X118671428Y-111654819D02*
X118766666Y-111654819D01*
X118766666Y-111654819D02*
X118909523Y-111702438D01*
X118909523Y-111702438D02*
X118957142Y-111750057D01*
X119814285Y-111988152D02*
X119814285Y-112654819D01*
X119576190Y-111607200D02*
X119338095Y-112321485D01*
X119338095Y-112321485D02*
X119957142Y-112321485D01*
X120861904Y-112654819D02*
X120290476Y-112654819D01*
X120576190Y-112654819D02*
X120576190Y-111654819D01*
X120576190Y-111654819D02*
X120480952Y-111797676D01*
X120480952Y-111797676D02*
X120385714Y-111892914D01*
X120385714Y-111892914D02*
X120290476Y-111940533D01*
X109154819Y-110066666D02*
X108678628Y-110399999D01*
X109154819Y-110638094D02*
X108154819Y-110638094D01*
X108154819Y-110638094D02*
X108154819Y-110257142D01*
X108154819Y-110257142D02*
X108202438Y-110161904D01*
X108202438Y-110161904D02*
X108250057Y-110114285D01*
X108250057Y-110114285D02*
X108345295Y-110066666D01*
X108345295Y-110066666D02*
X108488152Y-110066666D01*
X108488152Y-110066666D02*
X108583390Y-110114285D01*
X108583390Y-110114285D02*
X108631009Y-110161904D01*
X108631009Y-110161904D02*
X108678628Y-110257142D01*
X108678628Y-110257142D02*
X108678628Y-110638094D01*
X108154819Y-109161904D02*
X108154819Y-109638094D01*
X108154819Y-109638094D02*
X108631009Y-109685713D01*
X108631009Y-109685713D02*
X108583390Y-109638094D01*
X108583390Y-109638094D02*
X108535771Y-109542856D01*
X108535771Y-109542856D02*
X108535771Y-109304761D01*
X108535771Y-109304761D02*
X108583390Y-109209523D01*
X108583390Y-109209523D02*
X108631009Y-109161904D01*
X108631009Y-109161904D02*
X108726247Y-109114285D01*
X108726247Y-109114285D02*
X108964342Y-109114285D01*
X108964342Y-109114285D02*
X109059580Y-109161904D01*
X109059580Y-109161904D02*
X109107200Y-109209523D01*
X109107200Y-109209523D02*
X109154819Y-109304761D01*
X109154819Y-109304761D02*
X109154819Y-109542856D01*
X109154819Y-109542856D02*
X109107200Y-109638094D01*
X109107200Y-109638094D02*
X109059580Y-109685713D01*
X125557142Y-115524819D02*
X125223809Y-115048628D01*
X124985714Y-115524819D02*
X124985714Y-114524819D01*
X124985714Y-114524819D02*
X125366666Y-114524819D01*
X125366666Y-114524819D02*
X125461904Y-114572438D01*
X125461904Y-114572438D02*
X125509523Y-114620057D01*
X125509523Y-114620057D02*
X125557142Y-114715295D01*
X125557142Y-114715295D02*
X125557142Y-114858152D01*
X125557142Y-114858152D02*
X125509523Y-114953390D01*
X125509523Y-114953390D02*
X125461904Y-115001009D01*
X125461904Y-115001009D02*
X125366666Y-115048628D01*
X125366666Y-115048628D02*
X124985714Y-115048628D01*
X126509523Y-115524819D02*
X125938095Y-115524819D01*
X126223809Y-115524819D02*
X126223809Y-114524819D01*
X126223809Y-114524819D02*
X126128571Y-114667676D01*
X126128571Y-114667676D02*
X126033333Y-114762914D01*
X126033333Y-114762914D02*
X125938095Y-114810533D01*
X127461904Y-115524819D02*
X126890476Y-115524819D01*
X127176190Y-115524819D02*
X127176190Y-114524819D01*
X127176190Y-114524819D02*
X127080952Y-114667676D01*
X127080952Y-114667676D02*
X126985714Y-114762914D01*
X126985714Y-114762914D02*
X126890476Y-114810533D01*
X128512261Y-100435057D02*
X128417023Y-100387438D01*
X128417023Y-100387438D02*
X128321785Y-100292200D01*
X128321785Y-100292200D02*
X128178928Y-100149342D01*
X128178928Y-100149342D02*
X128083690Y-100101723D01*
X128083690Y-100101723D02*
X127988452Y-100101723D01*
X128036071Y-100339819D02*
X127940833Y-100292200D01*
X127940833Y-100292200D02*
X127845595Y-100196961D01*
X127845595Y-100196961D02*
X127797976Y-100006485D01*
X127797976Y-100006485D02*
X127797976Y-99673152D01*
X127797976Y-99673152D02*
X127845595Y-99482676D01*
X127845595Y-99482676D02*
X127940833Y-99387438D01*
X127940833Y-99387438D02*
X128036071Y-99339819D01*
X128036071Y-99339819D02*
X128226547Y-99339819D01*
X128226547Y-99339819D02*
X128321785Y-99387438D01*
X128321785Y-99387438D02*
X128417023Y-99482676D01*
X128417023Y-99482676D02*
X128464642Y-99673152D01*
X128464642Y-99673152D02*
X128464642Y-100006485D01*
X128464642Y-100006485D02*
X128417023Y-100196961D01*
X128417023Y-100196961D02*
X128321785Y-100292200D01*
X128321785Y-100292200D02*
X128226547Y-100339819D01*
X128226547Y-100339819D02*
X128036071Y-100339819D01*
X129321785Y-99339819D02*
X129131309Y-99339819D01*
X129131309Y-99339819D02*
X129036071Y-99387438D01*
X129036071Y-99387438D02*
X128988452Y-99435057D01*
X128988452Y-99435057D02*
X128893214Y-99577914D01*
X128893214Y-99577914D02*
X128845595Y-99768390D01*
X128845595Y-99768390D02*
X128845595Y-100149342D01*
X128845595Y-100149342D02*
X128893214Y-100244580D01*
X128893214Y-100244580D02*
X128940833Y-100292200D01*
X128940833Y-100292200D02*
X129036071Y-100339819D01*
X129036071Y-100339819D02*
X129226547Y-100339819D01*
X129226547Y-100339819D02*
X129321785Y-100292200D01*
X129321785Y-100292200D02*
X129369404Y-100244580D01*
X129369404Y-100244580D02*
X129417023Y-100149342D01*
X129417023Y-100149342D02*
X129417023Y-99911247D01*
X129417023Y-99911247D02*
X129369404Y-99816009D01*
X129369404Y-99816009D02*
X129321785Y-99768390D01*
X129321785Y-99768390D02*
X129226547Y-99720771D01*
X129226547Y-99720771D02*
X129036071Y-99720771D01*
X129036071Y-99720771D02*
X128940833Y-99768390D01*
X128940833Y-99768390D02*
X128893214Y-99816009D01*
X128893214Y-99816009D02*
X128845595Y-99911247D01*
X140184819Y-99442857D02*
X139708628Y-99776190D01*
X140184819Y-100014285D02*
X139184819Y-100014285D01*
X139184819Y-100014285D02*
X139184819Y-99633333D01*
X139184819Y-99633333D02*
X139232438Y-99538095D01*
X139232438Y-99538095D02*
X139280057Y-99490476D01*
X139280057Y-99490476D02*
X139375295Y-99442857D01*
X139375295Y-99442857D02*
X139518152Y-99442857D01*
X139518152Y-99442857D02*
X139613390Y-99490476D01*
X139613390Y-99490476D02*
X139661009Y-99538095D01*
X139661009Y-99538095D02*
X139708628Y-99633333D01*
X139708628Y-99633333D02*
X139708628Y-100014285D01*
X140184819Y-98490476D02*
X140184819Y-99061904D01*
X140184819Y-98776190D02*
X139184819Y-98776190D01*
X139184819Y-98776190D02*
X139327676Y-98871428D01*
X139327676Y-98871428D02*
X139422914Y-98966666D01*
X139422914Y-98966666D02*
X139470533Y-99061904D01*
X139613390Y-97919047D02*
X139565771Y-98014285D01*
X139565771Y-98014285D02*
X139518152Y-98061904D01*
X139518152Y-98061904D02*
X139422914Y-98109523D01*
X139422914Y-98109523D02*
X139375295Y-98109523D01*
X139375295Y-98109523D02*
X139280057Y-98061904D01*
X139280057Y-98061904D02*
X139232438Y-98014285D01*
X139232438Y-98014285D02*
X139184819Y-97919047D01*
X139184819Y-97919047D02*
X139184819Y-97728571D01*
X139184819Y-97728571D02*
X139232438Y-97633333D01*
X139232438Y-97633333D02*
X139280057Y-97585714D01*
X139280057Y-97585714D02*
X139375295Y-97538095D01*
X139375295Y-97538095D02*
X139422914Y-97538095D01*
X139422914Y-97538095D02*
X139518152Y-97585714D01*
X139518152Y-97585714D02*
X139565771Y-97633333D01*
X139565771Y-97633333D02*
X139613390Y-97728571D01*
X139613390Y-97728571D02*
X139613390Y-97919047D01*
X139613390Y-97919047D02*
X139661009Y-98014285D01*
X139661009Y-98014285D02*
X139708628Y-98061904D01*
X139708628Y-98061904D02*
X139803866Y-98109523D01*
X139803866Y-98109523D02*
X139994342Y-98109523D01*
X139994342Y-98109523D02*
X140089580Y-98061904D01*
X140089580Y-98061904D02*
X140137200Y-98014285D01*
X140137200Y-98014285D02*
X140184819Y-97919047D01*
X140184819Y-97919047D02*
X140184819Y-97728571D01*
X140184819Y-97728571D02*
X140137200Y-97633333D01*
X140137200Y-97633333D02*
X140089580Y-97585714D01*
X140089580Y-97585714D02*
X139994342Y-97538095D01*
X139994342Y-97538095D02*
X139803866Y-97538095D01*
X139803866Y-97538095D02*
X139708628Y-97585714D01*
X139708628Y-97585714D02*
X139661009Y-97633333D01*
X139661009Y-97633333D02*
X139613390Y-97728571D01*
X120859580Y-127942857D02*
X120907200Y-127990476D01*
X120907200Y-127990476D02*
X120954819Y-128133333D01*
X120954819Y-128133333D02*
X120954819Y-128228571D01*
X120954819Y-128228571D02*
X120907200Y-128371428D01*
X120907200Y-128371428D02*
X120811961Y-128466666D01*
X120811961Y-128466666D02*
X120716723Y-128514285D01*
X120716723Y-128514285D02*
X120526247Y-128561904D01*
X120526247Y-128561904D02*
X120383390Y-128561904D01*
X120383390Y-128561904D02*
X120192914Y-128514285D01*
X120192914Y-128514285D02*
X120097676Y-128466666D01*
X120097676Y-128466666D02*
X120002438Y-128371428D01*
X120002438Y-128371428D02*
X119954819Y-128228571D01*
X119954819Y-128228571D02*
X119954819Y-128133333D01*
X119954819Y-128133333D02*
X120002438Y-127990476D01*
X120002438Y-127990476D02*
X120050057Y-127942857D01*
X120050057Y-127561904D02*
X120002438Y-127514285D01*
X120002438Y-127514285D02*
X119954819Y-127419047D01*
X119954819Y-127419047D02*
X119954819Y-127180952D01*
X119954819Y-127180952D02*
X120002438Y-127085714D01*
X120002438Y-127085714D02*
X120050057Y-127038095D01*
X120050057Y-127038095D02*
X120145295Y-126990476D01*
X120145295Y-126990476D02*
X120240533Y-126990476D01*
X120240533Y-126990476D02*
X120383390Y-127038095D01*
X120383390Y-127038095D02*
X120954819Y-127609523D01*
X120954819Y-127609523D02*
X120954819Y-126990476D01*
X119954819Y-126371428D02*
X119954819Y-126276190D01*
X119954819Y-126276190D02*
X120002438Y-126180952D01*
X120002438Y-126180952D02*
X120050057Y-126133333D01*
X120050057Y-126133333D02*
X120145295Y-126085714D01*
X120145295Y-126085714D02*
X120335771Y-126038095D01*
X120335771Y-126038095D02*
X120573866Y-126038095D01*
X120573866Y-126038095D02*
X120764342Y-126085714D01*
X120764342Y-126085714D02*
X120859580Y-126133333D01*
X120859580Y-126133333D02*
X120907200Y-126180952D01*
X120907200Y-126180952D02*
X120954819Y-126276190D01*
X120954819Y-126276190D02*
X120954819Y-126371428D01*
X120954819Y-126371428D02*
X120907200Y-126466666D01*
X120907200Y-126466666D02*
X120859580Y-126514285D01*
X120859580Y-126514285D02*
X120764342Y-126561904D01*
X120764342Y-126561904D02*
X120573866Y-126609523D01*
X120573866Y-126609523D02*
X120335771Y-126609523D01*
X120335771Y-126609523D02*
X120145295Y-126561904D01*
X120145295Y-126561904D02*
X120050057Y-126514285D01*
X120050057Y-126514285D02*
X120002438Y-126466666D01*
X120002438Y-126466666D02*
X119954819Y-126371428D01*
X114333333Y-149259580D02*
X114285714Y-149307200D01*
X114285714Y-149307200D02*
X114142857Y-149354819D01*
X114142857Y-149354819D02*
X114047619Y-149354819D01*
X114047619Y-149354819D02*
X113904762Y-149307200D01*
X113904762Y-149307200D02*
X113809524Y-149211961D01*
X113809524Y-149211961D02*
X113761905Y-149116723D01*
X113761905Y-149116723D02*
X113714286Y-148926247D01*
X113714286Y-148926247D02*
X113714286Y-148783390D01*
X113714286Y-148783390D02*
X113761905Y-148592914D01*
X113761905Y-148592914D02*
X113809524Y-148497676D01*
X113809524Y-148497676D02*
X113904762Y-148402438D01*
X113904762Y-148402438D02*
X114047619Y-148354819D01*
X114047619Y-148354819D02*
X114142857Y-148354819D01*
X114142857Y-148354819D02*
X114285714Y-148402438D01*
X114285714Y-148402438D02*
X114333333Y-148450057D01*
X114666667Y-148354819D02*
X115333333Y-148354819D01*
X115333333Y-148354819D02*
X114904762Y-149354819D01*
X111057142Y-149354819D02*
X110723809Y-148878628D01*
X110485714Y-149354819D02*
X110485714Y-148354819D01*
X110485714Y-148354819D02*
X110866666Y-148354819D01*
X110866666Y-148354819D02*
X110961904Y-148402438D01*
X110961904Y-148402438D02*
X111009523Y-148450057D01*
X111009523Y-148450057D02*
X111057142Y-148545295D01*
X111057142Y-148545295D02*
X111057142Y-148688152D01*
X111057142Y-148688152D02*
X111009523Y-148783390D01*
X111009523Y-148783390D02*
X110961904Y-148831009D01*
X110961904Y-148831009D02*
X110866666Y-148878628D01*
X110866666Y-148878628D02*
X110485714Y-148878628D01*
X111390476Y-148354819D02*
X112009523Y-148354819D01*
X112009523Y-148354819D02*
X111676190Y-148735771D01*
X111676190Y-148735771D02*
X111819047Y-148735771D01*
X111819047Y-148735771D02*
X111914285Y-148783390D01*
X111914285Y-148783390D02*
X111961904Y-148831009D01*
X111961904Y-148831009D02*
X112009523Y-148926247D01*
X112009523Y-148926247D02*
X112009523Y-149164342D01*
X112009523Y-149164342D02*
X111961904Y-149259580D01*
X111961904Y-149259580D02*
X111914285Y-149307200D01*
X111914285Y-149307200D02*
X111819047Y-149354819D01*
X111819047Y-149354819D02*
X111533333Y-149354819D01*
X111533333Y-149354819D02*
X111438095Y-149307200D01*
X111438095Y-149307200D02*
X111390476Y-149259580D01*
X112961904Y-149354819D02*
X112390476Y-149354819D01*
X112676190Y-149354819D02*
X112676190Y-148354819D01*
X112676190Y-148354819D02*
X112580952Y-148497676D01*
X112580952Y-148497676D02*
X112485714Y-148592914D01*
X112485714Y-148592914D02*
X112390476Y-148640533D01*
X127982142Y-135929580D02*
X127934523Y-135977200D01*
X127934523Y-135977200D02*
X127791666Y-136024819D01*
X127791666Y-136024819D02*
X127696428Y-136024819D01*
X127696428Y-136024819D02*
X127553571Y-135977200D01*
X127553571Y-135977200D02*
X127458333Y-135881961D01*
X127458333Y-135881961D02*
X127410714Y-135786723D01*
X127410714Y-135786723D02*
X127363095Y-135596247D01*
X127363095Y-135596247D02*
X127363095Y-135453390D01*
X127363095Y-135453390D02*
X127410714Y-135262914D01*
X127410714Y-135262914D02*
X127458333Y-135167676D01*
X127458333Y-135167676D02*
X127553571Y-135072438D01*
X127553571Y-135072438D02*
X127696428Y-135024819D01*
X127696428Y-135024819D02*
X127791666Y-135024819D01*
X127791666Y-135024819D02*
X127934523Y-135072438D01*
X127934523Y-135072438D02*
X127982142Y-135120057D01*
X128934523Y-136024819D02*
X128363095Y-136024819D01*
X128648809Y-136024819D02*
X128648809Y-135024819D01*
X128648809Y-135024819D02*
X128553571Y-135167676D01*
X128553571Y-135167676D02*
X128458333Y-135262914D01*
X128458333Y-135262914D02*
X128363095Y-135310533D01*
X129839285Y-135024819D02*
X129363095Y-135024819D01*
X129363095Y-135024819D02*
X129315476Y-135501009D01*
X129315476Y-135501009D02*
X129363095Y-135453390D01*
X129363095Y-135453390D02*
X129458333Y-135405771D01*
X129458333Y-135405771D02*
X129696428Y-135405771D01*
X129696428Y-135405771D02*
X129791666Y-135453390D01*
X129791666Y-135453390D02*
X129839285Y-135501009D01*
X129839285Y-135501009D02*
X129886904Y-135596247D01*
X129886904Y-135596247D02*
X129886904Y-135834342D01*
X129886904Y-135834342D02*
X129839285Y-135929580D01*
X129839285Y-135929580D02*
X129791666Y-135977200D01*
X129791666Y-135977200D02*
X129696428Y-136024819D01*
X129696428Y-136024819D02*
X129458333Y-136024819D01*
X129458333Y-136024819D02*
X129363095Y-135977200D01*
X129363095Y-135977200D02*
X129315476Y-135929580D01*
X135742857Y-169231009D02*
X135885714Y-169278628D01*
X135885714Y-169278628D02*
X135933333Y-169326247D01*
X135933333Y-169326247D02*
X135980952Y-169421485D01*
X135980952Y-169421485D02*
X135980952Y-169564342D01*
X135980952Y-169564342D02*
X135933333Y-169659580D01*
X135933333Y-169659580D02*
X135885714Y-169707200D01*
X135885714Y-169707200D02*
X135790476Y-169754819D01*
X135790476Y-169754819D02*
X135409524Y-169754819D01*
X135409524Y-169754819D02*
X135409524Y-168754819D01*
X135409524Y-168754819D02*
X135742857Y-168754819D01*
X135742857Y-168754819D02*
X135838095Y-168802438D01*
X135838095Y-168802438D02*
X135885714Y-168850057D01*
X135885714Y-168850057D02*
X135933333Y-168945295D01*
X135933333Y-168945295D02*
X135933333Y-169040533D01*
X135933333Y-169040533D02*
X135885714Y-169135771D01*
X135885714Y-169135771D02*
X135838095Y-169183390D01*
X135838095Y-169183390D02*
X135742857Y-169231009D01*
X135742857Y-169231009D02*
X135409524Y-169231009D01*
X136361905Y-169469104D02*
X136838095Y-169469104D01*
X136266667Y-169754819D02*
X136600000Y-168754819D01*
X136600000Y-168754819D02*
X136933333Y-169754819D01*
X137123810Y-168754819D02*
X137695238Y-168754819D01*
X137409524Y-169754819D02*
X137409524Y-168754819D01*
X138028572Y-169373866D02*
X138790477Y-169373866D01*
X138409524Y-169754819D02*
X138409524Y-168992914D01*
X124646666Y-89654819D02*
X124646666Y-90369104D01*
X124646666Y-90369104D02*
X124599047Y-90511961D01*
X124599047Y-90511961D02*
X124503809Y-90607200D01*
X124503809Y-90607200D02*
X124360952Y-90654819D01*
X124360952Y-90654819D02*
X124265714Y-90654819D01*
X125122857Y-90654819D02*
X125122857Y-89654819D01*
X125122857Y-89654819D02*
X125503809Y-89654819D01*
X125503809Y-89654819D02*
X125599047Y-89702438D01*
X125599047Y-89702438D02*
X125646666Y-89750057D01*
X125646666Y-89750057D02*
X125694285Y-89845295D01*
X125694285Y-89845295D02*
X125694285Y-89988152D01*
X125694285Y-89988152D02*
X125646666Y-90083390D01*
X125646666Y-90083390D02*
X125599047Y-90131009D01*
X125599047Y-90131009D02*
X125503809Y-90178628D01*
X125503809Y-90178628D02*
X125122857Y-90178628D01*
X126027619Y-89654819D02*
X126646666Y-89654819D01*
X126646666Y-89654819D02*
X126313333Y-90035771D01*
X126313333Y-90035771D02*
X126456190Y-90035771D01*
X126456190Y-90035771D02*
X126551428Y-90083390D01*
X126551428Y-90083390D02*
X126599047Y-90131009D01*
X126599047Y-90131009D02*
X126646666Y-90226247D01*
X126646666Y-90226247D02*
X126646666Y-90464342D01*
X126646666Y-90464342D02*
X126599047Y-90559580D01*
X126599047Y-90559580D02*
X126551428Y-90607200D01*
X126551428Y-90607200D02*
X126456190Y-90654819D01*
X126456190Y-90654819D02*
X126170476Y-90654819D01*
X126170476Y-90654819D02*
X126075238Y-90607200D01*
X126075238Y-90607200D02*
X126027619Y-90559580D01*
X120383333Y-149359580D02*
X120335714Y-149407200D01*
X120335714Y-149407200D02*
X120192857Y-149454819D01*
X120192857Y-149454819D02*
X120097619Y-149454819D01*
X120097619Y-149454819D02*
X119954762Y-149407200D01*
X119954762Y-149407200D02*
X119859524Y-149311961D01*
X119859524Y-149311961D02*
X119811905Y-149216723D01*
X119811905Y-149216723D02*
X119764286Y-149026247D01*
X119764286Y-149026247D02*
X119764286Y-148883390D01*
X119764286Y-148883390D02*
X119811905Y-148692914D01*
X119811905Y-148692914D02*
X119859524Y-148597676D01*
X119859524Y-148597676D02*
X119954762Y-148502438D01*
X119954762Y-148502438D02*
X120097619Y-148454819D01*
X120097619Y-148454819D02*
X120192857Y-148454819D01*
X120192857Y-148454819D02*
X120335714Y-148502438D01*
X120335714Y-148502438D02*
X120383333Y-148550057D01*
X120859524Y-149454819D02*
X121050000Y-149454819D01*
X121050000Y-149454819D02*
X121145238Y-149407200D01*
X121145238Y-149407200D02*
X121192857Y-149359580D01*
X121192857Y-149359580D02*
X121288095Y-149216723D01*
X121288095Y-149216723D02*
X121335714Y-149026247D01*
X121335714Y-149026247D02*
X121335714Y-148645295D01*
X121335714Y-148645295D02*
X121288095Y-148550057D01*
X121288095Y-148550057D02*
X121240476Y-148502438D01*
X121240476Y-148502438D02*
X121145238Y-148454819D01*
X121145238Y-148454819D02*
X120954762Y-148454819D01*
X120954762Y-148454819D02*
X120859524Y-148502438D01*
X120859524Y-148502438D02*
X120811905Y-148550057D01*
X120811905Y-148550057D02*
X120764286Y-148645295D01*
X120764286Y-148645295D02*
X120764286Y-148883390D01*
X120764286Y-148883390D02*
X120811905Y-148978628D01*
X120811905Y-148978628D02*
X120859524Y-149026247D01*
X120859524Y-149026247D02*
X120954762Y-149073866D01*
X120954762Y-149073866D02*
X121145238Y-149073866D01*
X121145238Y-149073866D02*
X121240476Y-149026247D01*
X121240476Y-149026247D02*
X121288095Y-148978628D01*
X121288095Y-148978628D02*
X121335714Y-148883390D01*
X131361905Y-160317319D02*
X131361905Y-159317319D01*
X131361905Y-159317319D02*
X131600000Y-159317319D01*
X131600000Y-159317319D02*
X131742857Y-159364938D01*
X131742857Y-159364938D02*
X131838095Y-159460176D01*
X131838095Y-159460176D02*
X131885714Y-159555414D01*
X131885714Y-159555414D02*
X131933333Y-159745890D01*
X131933333Y-159745890D02*
X131933333Y-159888747D01*
X131933333Y-159888747D02*
X131885714Y-160079223D01*
X131885714Y-160079223D02*
X131838095Y-160174461D01*
X131838095Y-160174461D02*
X131742857Y-160269700D01*
X131742857Y-160269700D02*
X131600000Y-160317319D01*
X131600000Y-160317319D02*
X131361905Y-160317319D01*
X132885714Y-160317319D02*
X132314286Y-160317319D01*
X132600000Y-160317319D02*
X132600000Y-159317319D01*
X132600000Y-159317319D02*
X132504762Y-159460176D01*
X132504762Y-159460176D02*
X132409524Y-159555414D01*
X132409524Y-159555414D02*
X132314286Y-159603033D01*
X136066666Y-89954819D02*
X136066666Y-90669104D01*
X136066666Y-90669104D02*
X136019047Y-90811961D01*
X136019047Y-90811961D02*
X135923809Y-90907200D01*
X135923809Y-90907200D02*
X135780952Y-90954819D01*
X135780952Y-90954819D02*
X135685714Y-90954819D01*
X136542857Y-90954819D02*
X136542857Y-89954819D01*
X136542857Y-89954819D02*
X136923809Y-89954819D01*
X136923809Y-89954819D02*
X137019047Y-90002438D01*
X137019047Y-90002438D02*
X137066666Y-90050057D01*
X137066666Y-90050057D02*
X137114285Y-90145295D01*
X137114285Y-90145295D02*
X137114285Y-90288152D01*
X137114285Y-90288152D02*
X137066666Y-90383390D01*
X137066666Y-90383390D02*
X137019047Y-90431009D01*
X137019047Y-90431009D02*
X136923809Y-90478628D01*
X136923809Y-90478628D02*
X136542857Y-90478628D01*
X137495238Y-90050057D02*
X137542857Y-90002438D01*
X137542857Y-90002438D02*
X137638095Y-89954819D01*
X137638095Y-89954819D02*
X137876190Y-89954819D01*
X137876190Y-89954819D02*
X137971428Y-90002438D01*
X137971428Y-90002438D02*
X138019047Y-90050057D01*
X138019047Y-90050057D02*
X138066666Y-90145295D01*
X138066666Y-90145295D02*
X138066666Y-90240533D01*
X138066666Y-90240533D02*
X138019047Y-90383390D01*
X138019047Y-90383390D02*
X137447619Y-90954819D01*
X137447619Y-90954819D02*
X138066666Y-90954819D01*
X123589580Y-162442857D02*
X123637200Y-162490476D01*
X123637200Y-162490476D02*
X123684819Y-162633333D01*
X123684819Y-162633333D02*
X123684819Y-162728571D01*
X123684819Y-162728571D02*
X123637200Y-162871428D01*
X123637200Y-162871428D02*
X123541961Y-162966666D01*
X123541961Y-162966666D02*
X123446723Y-163014285D01*
X123446723Y-163014285D02*
X123256247Y-163061904D01*
X123256247Y-163061904D02*
X123113390Y-163061904D01*
X123113390Y-163061904D02*
X122922914Y-163014285D01*
X122922914Y-163014285D02*
X122827676Y-162966666D01*
X122827676Y-162966666D02*
X122732438Y-162871428D01*
X122732438Y-162871428D02*
X122684819Y-162728571D01*
X122684819Y-162728571D02*
X122684819Y-162633333D01*
X122684819Y-162633333D02*
X122732438Y-162490476D01*
X122732438Y-162490476D02*
X122780057Y-162442857D01*
X122780057Y-162061904D02*
X122732438Y-162014285D01*
X122732438Y-162014285D02*
X122684819Y-161919047D01*
X122684819Y-161919047D02*
X122684819Y-161680952D01*
X122684819Y-161680952D02*
X122732438Y-161585714D01*
X122732438Y-161585714D02*
X122780057Y-161538095D01*
X122780057Y-161538095D02*
X122875295Y-161490476D01*
X122875295Y-161490476D02*
X122970533Y-161490476D01*
X122970533Y-161490476D02*
X123113390Y-161538095D01*
X123113390Y-161538095D02*
X123684819Y-162109523D01*
X123684819Y-162109523D02*
X123684819Y-161490476D01*
X123018152Y-160633333D02*
X123684819Y-160633333D01*
X122637200Y-160871428D02*
X123351485Y-161109523D01*
X123351485Y-161109523D02*
X123351485Y-160490476D01*
X113787319Y-134311904D02*
X114596842Y-134311904D01*
X114596842Y-134311904D02*
X114692080Y-134264285D01*
X114692080Y-134264285D02*
X114739700Y-134216666D01*
X114739700Y-134216666D02*
X114787319Y-134121428D01*
X114787319Y-134121428D02*
X114787319Y-133930952D01*
X114787319Y-133930952D02*
X114739700Y-133835714D01*
X114739700Y-133835714D02*
X114692080Y-133788095D01*
X114692080Y-133788095D02*
X114596842Y-133740476D01*
X114596842Y-133740476D02*
X113787319Y-133740476D01*
X113787319Y-133359523D02*
X113787319Y-132740476D01*
X113787319Y-132740476D02*
X114168271Y-133073809D01*
X114168271Y-133073809D02*
X114168271Y-132930952D01*
X114168271Y-132930952D02*
X114215890Y-132835714D01*
X114215890Y-132835714D02*
X114263509Y-132788095D01*
X114263509Y-132788095D02*
X114358747Y-132740476D01*
X114358747Y-132740476D02*
X114596842Y-132740476D01*
X114596842Y-132740476D02*
X114692080Y-132788095D01*
X114692080Y-132788095D02*
X114739700Y-132835714D01*
X114739700Y-132835714D02*
X114787319Y-132930952D01*
X114787319Y-132930952D02*
X114787319Y-133216666D01*
X114787319Y-133216666D02*
X114739700Y-133311904D01*
X114739700Y-133311904D02*
X114692080Y-133359523D01*
X111029580Y-162442857D02*
X111077200Y-162490476D01*
X111077200Y-162490476D02*
X111124819Y-162633333D01*
X111124819Y-162633333D02*
X111124819Y-162728571D01*
X111124819Y-162728571D02*
X111077200Y-162871428D01*
X111077200Y-162871428D02*
X110981961Y-162966666D01*
X110981961Y-162966666D02*
X110886723Y-163014285D01*
X110886723Y-163014285D02*
X110696247Y-163061904D01*
X110696247Y-163061904D02*
X110553390Y-163061904D01*
X110553390Y-163061904D02*
X110362914Y-163014285D01*
X110362914Y-163014285D02*
X110267676Y-162966666D01*
X110267676Y-162966666D02*
X110172438Y-162871428D01*
X110172438Y-162871428D02*
X110124819Y-162728571D01*
X110124819Y-162728571D02*
X110124819Y-162633333D01*
X110124819Y-162633333D02*
X110172438Y-162490476D01*
X110172438Y-162490476D02*
X110220057Y-162442857D01*
X110124819Y-162109523D02*
X110124819Y-161490476D01*
X110124819Y-161490476D02*
X110505771Y-161823809D01*
X110505771Y-161823809D02*
X110505771Y-161680952D01*
X110505771Y-161680952D02*
X110553390Y-161585714D01*
X110553390Y-161585714D02*
X110601009Y-161538095D01*
X110601009Y-161538095D02*
X110696247Y-161490476D01*
X110696247Y-161490476D02*
X110934342Y-161490476D01*
X110934342Y-161490476D02*
X111029580Y-161538095D01*
X111029580Y-161538095D02*
X111077200Y-161585714D01*
X111077200Y-161585714D02*
X111124819Y-161680952D01*
X111124819Y-161680952D02*
X111124819Y-161966666D01*
X111124819Y-161966666D02*
X111077200Y-162061904D01*
X111077200Y-162061904D02*
X111029580Y-162109523D01*
X111124819Y-160538095D02*
X111124819Y-161109523D01*
X111124819Y-160823809D02*
X110124819Y-160823809D01*
X110124819Y-160823809D02*
X110267676Y-160919047D01*
X110267676Y-160919047D02*
X110362914Y-161014285D01*
X110362914Y-161014285D02*
X110410533Y-161109523D01*
X113599693Y-114008830D02*
X113599693Y-114076174D01*
X113599693Y-114076174D02*
X113532349Y-114210861D01*
X113532349Y-114210861D02*
X113465006Y-114278204D01*
X113465006Y-114278204D02*
X113330319Y-114345548D01*
X113330319Y-114345548D02*
X113195632Y-114345548D01*
X113195632Y-114345548D02*
X113094617Y-114311876D01*
X113094617Y-114311876D02*
X112926258Y-114210861D01*
X112926258Y-114210861D02*
X112825243Y-114109846D01*
X112825243Y-114109846D02*
X112724227Y-113941487D01*
X112724227Y-113941487D02*
X112690556Y-113840472D01*
X112690556Y-113840472D02*
X112690556Y-113705785D01*
X112690556Y-113705785D02*
X112757899Y-113571098D01*
X112757899Y-113571098D02*
X112825243Y-113503754D01*
X112825243Y-113503754D02*
X112959930Y-113436411D01*
X112959930Y-113436411D02*
X113027273Y-113436411D01*
X113801723Y-112998678D02*
X114273128Y-113470082D01*
X113363991Y-112897663D02*
X113700708Y-113571098D01*
X113700708Y-113571098D02*
X114138441Y-113133365D01*
X114071098Y-112257899D02*
X114138441Y-112190556D01*
X114138441Y-112190556D02*
X114239456Y-112156884D01*
X114239456Y-112156884D02*
X114306800Y-112156884D01*
X114306800Y-112156884D02*
X114407815Y-112190556D01*
X114407815Y-112190556D02*
X114576174Y-112291571D01*
X114576174Y-112291571D02*
X114744533Y-112459930D01*
X114744533Y-112459930D02*
X114845548Y-112628288D01*
X114845548Y-112628288D02*
X114879220Y-112729304D01*
X114879220Y-112729304D02*
X114879220Y-112796647D01*
X114879220Y-112796647D02*
X114845548Y-112897662D01*
X114845548Y-112897662D02*
X114778204Y-112965006D01*
X114778204Y-112965006D02*
X114677189Y-112998678D01*
X114677189Y-112998678D02*
X114609846Y-112998678D01*
X114609846Y-112998678D02*
X114508830Y-112965006D01*
X114508830Y-112965006D02*
X114340472Y-112863991D01*
X114340472Y-112863991D02*
X114172113Y-112695632D01*
X114172113Y-112695632D02*
X114071098Y-112527273D01*
X114071098Y-112527273D02*
X114037426Y-112426258D01*
X114037426Y-112426258D02*
X114037426Y-112358914D01*
X114037426Y-112358914D02*
X114071098Y-112257899D01*
X114169580Y-162442857D02*
X114217200Y-162490476D01*
X114217200Y-162490476D02*
X114264819Y-162633333D01*
X114264819Y-162633333D02*
X114264819Y-162728571D01*
X114264819Y-162728571D02*
X114217200Y-162871428D01*
X114217200Y-162871428D02*
X114121961Y-162966666D01*
X114121961Y-162966666D02*
X114026723Y-163014285D01*
X114026723Y-163014285D02*
X113836247Y-163061904D01*
X113836247Y-163061904D02*
X113693390Y-163061904D01*
X113693390Y-163061904D02*
X113502914Y-163014285D01*
X113502914Y-163014285D02*
X113407676Y-162966666D01*
X113407676Y-162966666D02*
X113312438Y-162871428D01*
X113312438Y-162871428D02*
X113264819Y-162728571D01*
X113264819Y-162728571D02*
X113264819Y-162633333D01*
X113264819Y-162633333D02*
X113312438Y-162490476D01*
X113312438Y-162490476D02*
X113360057Y-162442857D01*
X113360057Y-162061904D02*
X113312438Y-162014285D01*
X113312438Y-162014285D02*
X113264819Y-161919047D01*
X113264819Y-161919047D02*
X113264819Y-161680952D01*
X113264819Y-161680952D02*
X113312438Y-161585714D01*
X113312438Y-161585714D02*
X113360057Y-161538095D01*
X113360057Y-161538095D02*
X113455295Y-161490476D01*
X113455295Y-161490476D02*
X113550533Y-161490476D01*
X113550533Y-161490476D02*
X113693390Y-161538095D01*
X113693390Y-161538095D02*
X114264819Y-162109523D01*
X114264819Y-162109523D02*
X114264819Y-161490476D01*
X114264819Y-161014285D02*
X114264819Y-160823809D01*
X114264819Y-160823809D02*
X114217200Y-160728571D01*
X114217200Y-160728571D02*
X114169580Y-160680952D01*
X114169580Y-160680952D02*
X114026723Y-160585714D01*
X114026723Y-160585714D02*
X113836247Y-160538095D01*
X113836247Y-160538095D02*
X113455295Y-160538095D01*
X113455295Y-160538095D02*
X113360057Y-160585714D01*
X113360057Y-160585714D02*
X113312438Y-160633333D01*
X113312438Y-160633333D02*
X113264819Y-160728571D01*
X113264819Y-160728571D02*
X113264819Y-160919047D01*
X113264819Y-160919047D02*
X113312438Y-161014285D01*
X113312438Y-161014285D02*
X113360057Y-161061904D01*
X113360057Y-161061904D02*
X113455295Y-161109523D01*
X113455295Y-161109523D02*
X113693390Y-161109523D01*
X113693390Y-161109523D02*
X113788628Y-161061904D01*
X113788628Y-161061904D02*
X113836247Y-161014285D01*
X113836247Y-161014285D02*
X113883866Y-160919047D01*
X113883866Y-160919047D02*
X113883866Y-160728571D01*
X113883866Y-160728571D02*
X113836247Y-160633333D01*
X113836247Y-160633333D02*
X113788628Y-160585714D01*
X113788628Y-160585714D02*
X113693390Y-160538095D01*
X125957142Y-120959580D02*
X125909523Y-121007200D01*
X125909523Y-121007200D02*
X125766666Y-121054819D01*
X125766666Y-121054819D02*
X125671428Y-121054819D01*
X125671428Y-121054819D02*
X125528571Y-121007200D01*
X125528571Y-121007200D02*
X125433333Y-120911961D01*
X125433333Y-120911961D02*
X125385714Y-120816723D01*
X125385714Y-120816723D02*
X125338095Y-120626247D01*
X125338095Y-120626247D02*
X125338095Y-120483390D01*
X125338095Y-120483390D02*
X125385714Y-120292914D01*
X125385714Y-120292914D02*
X125433333Y-120197676D01*
X125433333Y-120197676D02*
X125528571Y-120102438D01*
X125528571Y-120102438D02*
X125671428Y-120054819D01*
X125671428Y-120054819D02*
X125766666Y-120054819D01*
X125766666Y-120054819D02*
X125909523Y-120102438D01*
X125909523Y-120102438D02*
X125957142Y-120150057D01*
X126909523Y-121054819D02*
X126338095Y-121054819D01*
X126623809Y-121054819D02*
X126623809Y-120054819D01*
X126623809Y-120054819D02*
X126528571Y-120197676D01*
X126528571Y-120197676D02*
X126433333Y-120292914D01*
X126433333Y-120292914D02*
X126338095Y-120340533D01*
X127480952Y-120483390D02*
X127385714Y-120435771D01*
X127385714Y-120435771D02*
X127338095Y-120388152D01*
X127338095Y-120388152D02*
X127290476Y-120292914D01*
X127290476Y-120292914D02*
X127290476Y-120245295D01*
X127290476Y-120245295D02*
X127338095Y-120150057D01*
X127338095Y-120150057D02*
X127385714Y-120102438D01*
X127385714Y-120102438D02*
X127480952Y-120054819D01*
X127480952Y-120054819D02*
X127671428Y-120054819D01*
X127671428Y-120054819D02*
X127766666Y-120102438D01*
X127766666Y-120102438D02*
X127814285Y-120150057D01*
X127814285Y-120150057D02*
X127861904Y-120245295D01*
X127861904Y-120245295D02*
X127861904Y-120292914D01*
X127861904Y-120292914D02*
X127814285Y-120388152D01*
X127814285Y-120388152D02*
X127766666Y-120435771D01*
X127766666Y-120435771D02*
X127671428Y-120483390D01*
X127671428Y-120483390D02*
X127480952Y-120483390D01*
X127480952Y-120483390D02*
X127385714Y-120531009D01*
X127385714Y-120531009D02*
X127338095Y-120578628D01*
X127338095Y-120578628D02*
X127290476Y-120673866D01*
X127290476Y-120673866D02*
X127290476Y-120864342D01*
X127290476Y-120864342D02*
X127338095Y-120959580D01*
X127338095Y-120959580D02*
X127385714Y-121007200D01*
X127385714Y-121007200D02*
X127480952Y-121054819D01*
X127480952Y-121054819D02*
X127671428Y-121054819D01*
X127671428Y-121054819D02*
X127766666Y-121007200D01*
X127766666Y-121007200D02*
X127814285Y-120959580D01*
X127814285Y-120959580D02*
X127861904Y-120864342D01*
X127861904Y-120864342D02*
X127861904Y-120673866D01*
X127861904Y-120673866D02*
X127814285Y-120578628D01*
X127814285Y-120578628D02*
X127766666Y-120531009D01*
X127766666Y-120531009D02*
X127671428Y-120483390D01*
X111559580Y-159666666D02*
X111607200Y-159714285D01*
X111607200Y-159714285D02*
X111654819Y-159857142D01*
X111654819Y-159857142D02*
X111654819Y-159952380D01*
X111654819Y-159952380D02*
X111607200Y-160095237D01*
X111607200Y-160095237D02*
X111511961Y-160190475D01*
X111511961Y-160190475D02*
X111416723Y-160238094D01*
X111416723Y-160238094D02*
X111226247Y-160285713D01*
X111226247Y-160285713D02*
X111083390Y-160285713D01*
X111083390Y-160285713D02*
X110892914Y-160238094D01*
X110892914Y-160238094D02*
X110797676Y-160190475D01*
X110797676Y-160190475D02*
X110702438Y-160095237D01*
X110702438Y-160095237D02*
X110654819Y-159952380D01*
X110654819Y-159952380D02*
X110654819Y-159857142D01*
X110654819Y-159857142D02*
X110702438Y-159714285D01*
X110702438Y-159714285D02*
X110750057Y-159666666D01*
X111654819Y-158714285D02*
X111654819Y-159285713D01*
X111654819Y-158999999D02*
X110654819Y-158999999D01*
X110654819Y-158999999D02*
X110797676Y-159095237D01*
X110797676Y-159095237D02*
X110892914Y-159190475D01*
X110892914Y-159190475D02*
X110940533Y-159285713D01*
X130154819Y-126542857D02*
X129678628Y-126876190D01*
X130154819Y-127114285D02*
X129154819Y-127114285D01*
X129154819Y-127114285D02*
X129154819Y-126733333D01*
X129154819Y-126733333D02*
X129202438Y-126638095D01*
X129202438Y-126638095D02*
X129250057Y-126590476D01*
X129250057Y-126590476D02*
X129345295Y-126542857D01*
X129345295Y-126542857D02*
X129488152Y-126542857D01*
X129488152Y-126542857D02*
X129583390Y-126590476D01*
X129583390Y-126590476D02*
X129631009Y-126638095D01*
X129631009Y-126638095D02*
X129678628Y-126733333D01*
X129678628Y-126733333D02*
X129678628Y-127114285D01*
X129250057Y-126161904D02*
X129202438Y-126114285D01*
X129202438Y-126114285D02*
X129154819Y-126019047D01*
X129154819Y-126019047D02*
X129154819Y-125780952D01*
X129154819Y-125780952D02*
X129202438Y-125685714D01*
X129202438Y-125685714D02*
X129250057Y-125638095D01*
X129250057Y-125638095D02*
X129345295Y-125590476D01*
X129345295Y-125590476D02*
X129440533Y-125590476D01*
X129440533Y-125590476D02*
X129583390Y-125638095D01*
X129583390Y-125638095D02*
X130154819Y-126209523D01*
X130154819Y-126209523D02*
X130154819Y-125590476D01*
X129583390Y-125019047D02*
X129535771Y-125114285D01*
X129535771Y-125114285D02*
X129488152Y-125161904D01*
X129488152Y-125161904D02*
X129392914Y-125209523D01*
X129392914Y-125209523D02*
X129345295Y-125209523D01*
X129345295Y-125209523D02*
X129250057Y-125161904D01*
X129250057Y-125161904D02*
X129202438Y-125114285D01*
X129202438Y-125114285D02*
X129154819Y-125019047D01*
X129154819Y-125019047D02*
X129154819Y-124828571D01*
X129154819Y-124828571D02*
X129202438Y-124733333D01*
X129202438Y-124733333D02*
X129250057Y-124685714D01*
X129250057Y-124685714D02*
X129345295Y-124638095D01*
X129345295Y-124638095D02*
X129392914Y-124638095D01*
X129392914Y-124638095D02*
X129488152Y-124685714D01*
X129488152Y-124685714D02*
X129535771Y-124733333D01*
X129535771Y-124733333D02*
X129583390Y-124828571D01*
X129583390Y-124828571D02*
X129583390Y-125019047D01*
X129583390Y-125019047D02*
X129631009Y-125114285D01*
X129631009Y-125114285D02*
X129678628Y-125161904D01*
X129678628Y-125161904D02*
X129773866Y-125209523D01*
X129773866Y-125209523D02*
X129964342Y-125209523D01*
X129964342Y-125209523D02*
X130059580Y-125161904D01*
X130059580Y-125161904D02*
X130107200Y-125114285D01*
X130107200Y-125114285D02*
X130154819Y-125019047D01*
X130154819Y-125019047D02*
X130154819Y-124828571D01*
X130154819Y-124828571D02*
X130107200Y-124733333D01*
X130107200Y-124733333D02*
X130059580Y-124685714D01*
X130059580Y-124685714D02*
X129964342Y-124638095D01*
X129964342Y-124638095D02*
X129773866Y-124638095D01*
X129773866Y-124638095D02*
X129678628Y-124685714D01*
X129678628Y-124685714D02*
X129631009Y-124733333D01*
X129631009Y-124733333D02*
X129583390Y-124828571D01*
X126157142Y-110854819D02*
X125823809Y-110378628D01*
X125585714Y-110854819D02*
X125585714Y-109854819D01*
X125585714Y-109854819D02*
X125966666Y-109854819D01*
X125966666Y-109854819D02*
X126061904Y-109902438D01*
X126061904Y-109902438D02*
X126109523Y-109950057D01*
X126109523Y-109950057D02*
X126157142Y-110045295D01*
X126157142Y-110045295D02*
X126157142Y-110188152D01*
X126157142Y-110188152D02*
X126109523Y-110283390D01*
X126109523Y-110283390D02*
X126061904Y-110331009D01*
X126061904Y-110331009D02*
X125966666Y-110378628D01*
X125966666Y-110378628D02*
X125585714Y-110378628D01*
X127109523Y-110854819D02*
X126538095Y-110854819D01*
X126823809Y-110854819D02*
X126823809Y-109854819D01*
X126823809Y-109854819D02*
X126728571Y-109997676D01*
X126728571Y-109997676D02*
X126633333Y-110092914D01*
X126633333Y-110092914D02*
X126538095Y-110140533D01*
X127585714Y-110854819D02*
X127776190Y-110854819D01*
X127776190Y-110854819D02*
X127871428Y-110807200D01*
X127871428Y-110807200D02*
X127919047Y-110759580D01*
X127919047Y-110759580D02*
X128014285Y-110616723D01*
X128014285Y-110616723D02*
X128061904Y-110426247D01*
X128061904Y-110426247D02*
X128061904Y-110045295D01*
X128061904Y-110045295D02*
X128014285Y-109950057D01*
X128014285Y-109950057D02*
X127966666Y-109902438D01*
X127966666Y-109902438D02*
X127871428Y-109854819D01*
X127871428Y-109854819D02*
X127680952Y-109854819D01*
X127680952Y-109854819D02*
X127585714Y-109902438D01*
X127585714Y-109902438D02*
X127538095Y-109950057D01*
X127538095Y-109950057D02*
X127490476Y-110045295D01*
X127490476Y-110045295D02*
X127490476Y-110283390D01*
X127490476Y-110283390D02*
X127538095Y-110378628D01*
X127538095Y-110378628D02*
X127585714Y-110426247D01*
X127585714Y-110426247D02*
X127680952Y-110473866D01*
X127680952Y-110473866D02*
X127871428Y-110473866D01*
X127871428Y-110473866D02*
X127966666Y-110426247D01*
X127966666Y-110426247D02*
X128014285Y-110378628D01*
X128014285Y-110378628D02*
X128061904Y-110283390D01*
X127957142Y-99000095D02*
X127623809Y-98523904D01*
X127385714Y-99000095D02*
X127385714Y-98000095D01*
X127385714Y-98000095D02*
X127766666Y-98000095D01*
X127766666Y-98000095D02*
X127861904Y-98047714D01*
X127861904Y-98047714D02*
X127909523Y-98095333D01*
X127909523Y-98095333D02*
X127957142Y-98190571D01*
X127957142Y-98190571D02*
X127957142Y-98333428D01*
X127957142Y-98333428D02*
X127909523Y-98428666D01*
X127909523Y-98428666D02*
X127861904Y-98476285D01*
X127861904Y-98476285D02*
X127766666Y-98523904D01*
X127766666Y-98523904D02*
X127385714Y-98523904D01*
X128909523Y-99000095D02*
X128338095Y-99000095D01*
X128623809Y-99000095D02*
X128623809Y-98000095D01*
X128623809Y-98000095D02*
X128528571Y-98142952D01*
X128528571Y-98142952D02*
X128433333Y-98238190D01*
X128433333Y-98238190D02*
X128338095Y-98285809D01*
X129242857Y-98000095D02*
X129861904Y-98000095D01*
X129861904Y-98000095D02*
X129528571Y-98381047D01*
X129528571Y-98381047D02*
X129671428Y-98381047D01*
X129671428Y-98381047D02*
X129766666Y-98428666D01*
X129766666Y-98428666D02*
X129814285Y-98476285D01*
X129814285Y-98476285D02*
X129861904Y-98571523D01*
X129861904Y-98571523D02*
X129861904Y-98809618D01*
X129861904Y-98809618D02*
X129814285Y-98904856D01*
X129814285Y-98904856D02*
X129766666Y-98952476D01*
X129766666Y-98952476D02*
X129671428Y-99000095D01*
X129671428Y-99000095D02*
X129385714Y-99000095D01*
X129385714Y-99000095D02*
X129290476Y-98952476D01*
X129290476Y-98952476D02*
X129242857Y-98904856D01*
X122257142Y-116554819D02*
X121923809Y-116078628D01*
X121685714Y-116554819D02*
X121685714Y-115554819D01*
X121685714Y-115554819D02*
X122066666Y-115554819D01*
X122066666Y-115554819D02*
X122161904Y-115602438D01*
X122161904Y-115602438D02*
X122209523Y-115650057D01*
X122209523Y-115650057D02*
X122257142Y-115745295D01*
X122257142Y-115745295D02*
X122257142Y-115888152D01*
X122257142Y-115888152D02*
X122209523Y-115983390D01*
X122209523Y-115983390D02*
X122161904Y-116031009D01*
X122161904Y-116031009D02*
X122066666Y-116078628D01*
X122066666Y-116078628D02*
X121685714Y-116078628D01*
X123209523Y-116554819D02*
X122638095Y-116554819D01*
X122923809Y-116554819D02*
X122923809Y-115554819D01*
X122923809Y-115554819D02*
X122828571Y-115697676D01*
X122828571Y-115697676D02*
X122733333Y-115792914D01*
X122733333Y-115792914D02*
X122638095Y-115840533D01*
X124114285Y-115554819D02*
X123638095Y-115554819D01*
X123638095Y-115554819D02*
X123590476Y-116031009D01*
X123590476Y-116031009D02*
X123638095Y-115983390D01*
X123638095Y-115983390D02*
X123733333Y-115935771D01*
X123733333Y-115935771D02*
X123971428Y-115935771D01*
X123971428Y-115935771D02*
X124066666Y-115983390D01*
X124066666Y-115983390D02*
X124114285Y-116031009D01*
X124114285Y-116031009D02*
X124161904Y-116126247D01*
X124161904Y-116126247D02*
X124161904Y-116364342D01*
X124161904Y-116364342D02*
X124114285Y-116459580D01*
X124114285Y-116459580D02*
X124066666Y-116507200D01*
X124066666Y-116507200D02*
X123971428Y-116554819D01*
X123971428Y-116554819D02*
X123733333Y-116554819D01*
X123733333Y-116554819D02*
X123638095Y-116507200D01*
X123638095Y-116507200D02*
X123590476Y-116459580D01*
X127982142Y-134379580D02*
X127934523Y-134427200D01*
X127934523Y-134427200D02*
X127791666Y-134474819D01*
X127791666Y-134474819D02*
X127696428Y-134474819D01*
X127696428Y-134474819D02*
X127553571Y-134427200D01*
X127553571Y-134427200D02*
X127458333Y-134331961D01*
X127458333Y-134331961D02*
X127410714Y-134236723D01*
X127410714Y-134236723D02*
X127363095Y-134046247D01*
X127363095Y-134046247D02*
X127363095Y-133903390D01*
X127363095Y-133903390D02*
X127410714Y-133712914D01*
X127410714Y-133712914D02*
X127458333Y-133617676D01*
X127458333Y-133617676D02*
X127553571Y-133522438D01*
X127553571Y-133522438D02*
X127696428Y-133474819D01*
X127696428Y-133474819D02*
X127791666Y-133474819D01*
X127791666Y-133474819D02*
X127934523Y-133522438D01*
X127934523Y-133522438D02*
X127982142Y-133570057D01*
X128934523Y-134474819D02*
X128363095Y-134474819D01*
X128648809Y-134474819D02*
X128648809Y-133474819D01*
X128648809Y-133474819D02*
X128553571Y-133617676D01*
X128553571Y-133617676D02*
X128458333Y-133712914D01*
X128458333Y-133712914D02*
X128363095Y-133760533D01*
X129791666Y-133474819D02*
X129601190Y-133474819D01*
X129601190Y-133474819D02*
X129505952Y-133522438D01*
X129505952Y-133522438D02*
X129458333Y-133570057D01*
X129458333Y-133570057D02*
X129363095Y-133712914D01*
X129363095Y-133712914D02*
X129315476Y-133903390D01*
X129315476Y-133903390D02*
X129315476Y-134284342D01*
X129315476Y-134284342D02*
X129363095Y-134379580D01*
X129363095Y-134379580D02*
X129410714Y-134427200D01*
X129410714Y-134427200D02*
X129505952Y-134474819D01*
X129505952Y-134474819D02*
X129696428Y-134474819D01*
X129696428Y-134474819D02*
X129791666Y-134427200D01*
X129791666Y-134427200D02*
X129839285Y-134379580D01*
X129839285Y-134379580D02*
X129886904Y-134284342D01*
X129886904Y-134284342D02*
X129886904Y-134046247D01*
X129886904Y-134046247D02*
X129839285Y-133951009D01*
X129839285Y-133951009D02*
X129791666Y-133903390D01*
X129791666Y-133903390D02*
X129696428Y-133855771D01*
X129696428Y-133855771D02*
X129505952Y-133855771D01*
X129505952Y-133855771D02*
X129410714Y-133903390D01*
X129410714Y-133903390D02*
X129363095Y-133951009D01*
X129363095Y-133951009D02*
X129315476Y-134046247D01*
X118879580Y-162442857D02*
X118927200Y-162490476D01*
X118927200Y-162490476D02*
X118974819Y-162633333D01*
X118974819Y-162633333D02*
X118974819Y-162728571D01*
X118974819Y-162728571D02*
X118927200Y-162871428D01*
X118927200Y-162871428D02*
X118831961Y-162966666D01*
X118831961Y-162966666D02*
X118736723Y-163014285D01*
X118736723Y-163014285D02*
X118546247Y-163061904D01*
X118546247Y-163061904D02*
X118403390Y-163061904D01*
X118403390Y-163061904D02*
X118212914Y-163014285D01*
X118212914Y-163014285D02*
X118117676Y-162966666D01*
X118117676Y-162966666D02*
X118022438Y-162871428D01*
X118022438Y-162871428D02*
X117974819Y-162728571D01*
X117974819Y-162728571D02*
X117974819Y-162633333D01*
X117974819Y-162633333D02*
X118022438Y-162490476D01*
X118022438Y-162490476D02*
X118070057Y-162442857D01*
X118070057Y-162061904D02*
X118022438Y-162014285D01*
X118022438Y-162014285D02*
X117974819Y-161919047D01*
X117974819Y-161919047D02*
X117974819Y-161680952D01*
X117974819Y-161680952D02*
X118022438Y-161585714D01*
X118022438Y-161585714D02*
X118070057Y-161538095D01*
X118070057Y-161538095D02*
X118165295Y-161490476D01*
X118165295Y-161490476D02*
X118260533Y-161490476D01*
X118260533Y-161490476D02*
X118403390Y-161538095D01*
X118403390Y-161538095D02*
X118974819Y-162109523D01*
X118974819Y-162109523D02*
X118974819Y-161490476D01*
X117974819Y-160633333D02*
X117974819Y-160823809D01*
X117974819Y-160823809D02*
X118022438Y-160919047D01*
X118022438Y-160919047D02*
X118070057Y-160966666D01*
X118070057Y-160966666D02*
X118212914Y-161061904D01*
X118212914Y-161061904D02*
X118403390Y-161109523D01*
X118403390Y-161109523D02*
X118784342Y-161109523D01*
X118784342Y-161109523D02*
X118879580Y-161061904D01*
X118879580Y-161061904D02*
X118927200Y-161014285D01*
X118927200Y-161014285D02*
X118974819Y-160919047D01*
X118974819Y-160919047D02*
X118974819Y-160728571D01*
X118974819Y-160728571D02*
X118927200Y-160633333D01*
X118927200Y-160633333D02*
X118879580Y-160585714D01*
X118879580Y-160585714D02*
X118784342Y-160538095D01*
X118784342Y-160538095D02*
X118546247Y-160538095D01*
X118546247Y-160538095D02*
X118451009Y-160585714D01*
X118451009Y-160585714D02*
X118403390Y-160633333D01*
X118403390Y-160633333D02*
X118355771Y-160728571D01*
X118355771Y-160728571D02*
X118355771Y-160919047D01*
X118355771Y-160919047D02*
X118403390Y-161014285D01*
X118403390Y-161014285D02*
X118451009Y-161061904D01*
X118451009Y-161061904D02*
X118546247Y-161109523D01*
X127982142Y-129729580D02*
X127934523Y-129777200D01*
X127934523Y-129777200D02*
X127791666Y-129824819D01*
X127791666Y-129824819D02*
X127696428Y-129824819D01*
X127696428Y-129824819D02*
X127553571Y-129777200D01*
X127553571Y-129777200D02*
X127458333Y-129681961D01*
X127458333Y-129681961D02*
X127410714Y-129586723D01*
X127410714Y-129586723D02*
X127363095Y-129396247D01*
X127363095Y-129396247D02*
X127363095Y-129253390D01*
X127363095Y-129253390D02*
X127410714Y-129062914D01*
X127410714Y-129062914D02*
X127458333Y-128967676D01*
X127458333Y-128967676D02*
X127553571Y-128872438D01*
X127553571Y-128872438D02*
X127696428Y-128824819D01*
X127696428Y-128824819D02*
X127791666Y-128824819D01*
X127791666Y-128824819D02*
X127934523Y-128872438D01*
X127934523Y-128872438D02*
X127982142Y-128920057D01*
X128934523Y-129824819D02*
X128363095Y-129824819D01*
X128648809Y-129824819D02*
X128648809Y-128824819D01*
X128648809Y-128824819D02*
X128553571Y-128967676D01*
X128553571Y-128967676D02*
X128458333Y-129062914D01*
X128458333Y-129062914D02*
X128363095Y-129110533D01*
X129267857Y-128824819D02*
X129886904Y-128824819D01*
X129886904Y-128824819D02*
X129553571Y-129205771D01*
X129553571Y-129205771D02*
X129696428Y-129205771D01*
X129696428Y-129205771D02*
X129791666Y-129253390D01*
X129791666Y-129253390D02*
X129839285Y-129301009D01*
X129839285Y-129301009D02*
X129886904Y-129396247D01*
X129886904Y-129396247D02*
X129886904Y-129634342D01*
X129886904Y-129634342D02*
X129839285Y-129729580D01*
X129839285Y-129729580D02*
X129791666Y-129777200D01*
X129791666Y-129777200D02*
X129696428Y-129824819D01*
X129696428Y-129824819D02*
X129410714Y-129824819D01*
X129410714Y-129824819D02*
X129315476Y-129777200D01*
X129315476Y-129777200D02*
X129267857Y-129729580D01*
X103066666Y-95454819D02*
X103066666Y-96169104D01*
X103066666Y-96169104D02*
X103019047Y-96311961D01*
X103019047Y-96311961D02*
X102923809Y-96407200D01*
X102923809Y-96407200D02*
X102780952Y-96454819D01*
X102780952Y-96454819D02*
X102685714Y-96454819D01*
X103971428Y-95454819D02*
X103780952Y-95454819D01*
X103780952Y-95454819D02*
X103685714Y-95502438D01*
X103685714Y-95502438D02*
X103638095Y-95550057D01*
X103638095Y-95550057D02*
X103542857Y-95692914D01*
X103542857Y-95692914D02*
X103495238Y-95883390D01*
X103495238Y-95883390D02*
X103495238Y-96264342D01*
X103495238Y-96264342D02*
X103542857Y-96359580D01*
X103542857Y-96359580D02*
X103590476Y-96407200D01*
X103590476Y-96407200D02*
X103685714Y-96454819D01*
X103685714Y-96454819D02*
X103876190Y-96454819D01*
X103876190Y-96454819D02*
X103971428Y-96407200D01*
X103971428Y-96407200D02*
X104019047Y-96359580D01*
X104019047Y-96359580D02*
X104066666Y-96264342D01*
X104066666Y-96264342D02*
X104066666Y-96026247D01*
X104066666Y-96026247D02*
X104019047Y-95931009D01*
X104019047Y-95931009D02*
X103971428Y-95883390D01*
X103971428Y-95883390D02*
X103876190Y-95835771D01*
X103876190Y-95835771D02*
X103685714Y-95835771D01*
X103685714Y-95835771D02*
X103590476Y-95883390D01*
X103590476Y-95883390D02*
X103542857Y-95931009D01*
X103542857Y-95931009D02*
X103495238Y-96026247D01*
X116966666Y-95754819D02*
X116966666Y-96469104D01*
X116966666Y-96469104D02*
X116919047Y-96611961D01*
X116919047Y-96611961D02*
X116823809Y-96707200D01*
X116823809Y-96707200D02*
X116680952Y-96754819D01*
X116680952Y-96754819D02*
X116585714Y-96754819D01*
X117347619Y-95754819D02*
X118014285Y-95754819D01*
X118014285Y-95754819D02*
X117585714Y-96754819D01*
X125757142Y-123859580D02*
X125709523Y-123907200D01*
X125709523Y-123907200D02*
X125566666Y-123954819D01*
X125566666Y-123954819D02*
X125471428Y-123954819D01*
X125471428Y-123954819D02*
X125328571Y-123907200D01*
X125328571Y-123907200D02*
X125233333Y-123811961D01*
X125233333Y-123811961D02*
X125185714Y-123716723D01*
X125185714Y-123716723D02*
X125138095Y-123526247D01*
X125138095Y-123526247D02*
X125138095Y-123383390D01*
X125138095Y-123383390D02*
X125185714Y-123192914D01*
X125185714Y-123192914D02*
X125233333Y-123097676D01*
X125233333Y-123097676D02*
X125328571Y-123002438D01*
X125328571Y-123002438D02*
X125471428Y-122954819D01*
X125471428Y-122954819D02*
X125566666Y-122954819D01*
X125566666Y-122954819D02*
X125709523Y-123002438D01*
X125709523Y-123002438D02*
X125757142Y-123050057D01*
X126709523Y-123954819D02*
X126138095Y-123954819D01*
X126423809Y-123954819D02*
X126423809Y-122954819D01*
X126423809Y-122954819D02*
X126328571Y-123097676D01*
X126328571Y-123097676D02*
X126233333Y-123192914D01*
X126233333Y-123192914D02*
X126138095Y-123240533D01*
X127185714Y-123954819D02*
X127376190Y-123954819D01*
X127376190Y-123954819D02*
X127471428Y-123907200D01*
X127471428Y-123907200D02*
X127519047Y-123859580D01*
X127519047Y-123859580D02*
X127614285Y-123716723D01*
X127614285Y-123716723D02*
X127661904Y-123526247D01*
X127661904Y-123526247D02*
X127661904Y-123145295D01*
X127661904Y-123145295D02*
X127614285Y-123050057D01*
X127614285Y-123050057D02*
X127566666Y-123002438D01*
X127566666Y-123002438D02*
X127471428Y-122954819D01*
X127471428Y-122954819D02*
X127280952Y-122954819D01*
X127280952Y-122954819D02*
X127185714Y-123002438D01*
X127185714Y-123002438D02*
X127138095Y-123050057D01*
X127138095Y-123050057D02*
X127090476Y-123145295D01*
X127090476Y-123145295D02*
X127090476Y-123383390D01*
X127090476Y-123383390D02*
X127138095Y-123478628D01*
X127138095Y-123478628D02*
X127185714Y-123526247D01*
X127185714Y-123526247D02*
X127280952Y-123573866D01*
X127280952Y-123573866D02*
X127471428Y-123573866D01*
X127471428Y-123573866D02*
X127566666Y-123526247D01*
X127566666Y-123526247D02*
X127614285Y-123478628D01*
X127614285Y-123478628D02*
X127661904Y-123383390D01*
X110861905Y-114554819D02*
X110861905Y-113554819D01*
X110861905Y-113554819D02*
X111100000Y-113554819D01*
X111100000Y-113554819D02*
X111242857Y-113602438D01*
X111242857Y-113602438D02*
X111338095Y-113697676D01*
X111338095Y-113697676D02*
X111385714Y-113792914D01*
X111385714Y-113792914D02*
X111433333Y-113983390D01*
X111433333Y-113983390D02*
X111433333Y-114126247D01*
X111433333Y-114126247D02*
X111385714Y-114316723D01*
X111385714Y-114316723D02*
X111338095Y-114411961D01*
X111338095Y-114411961D02*
X111242857Y-114507200D01*
X111242857Y-114507200D02*
X111100000Y-114554819D01*
X111100000Y-114554819D02*
X110861905Y-114554819D01*
X111766667Y-113554819D02*
X112385714Y-113554819D01*
X112385714Y-113554819D02*
X112052381Y-113935771D01*
X112052381Y-113935771D02*
X112195238Y-113935771D01*
X112195238Y-113935771D02*
X112290476Y-113983390D01*
X112290476Y-113983390D02*
X112338095Y-114031009D01*
X112338095Y-114031009D02*
X112385714Y-114126247D01*
X112385714Y-114126247D02*
X112385714Y-114364342D01*
X112385714Y-114364342D02*
X112338095Y-114459580D01*
X112338095Y-114459580D02*
X112290476Y-114507200D01*
X112290476Y-114507200D02*
X112195238Y-114554819D01*
X112195238Y-114554819D02*
X111909524Y-114554819D01*
X111909524Y-114554819D02*
X111814286Y-114507200D01*
X111814286Y-114507200D02*
X111766667Y-114459580D01*
X125159580Y-162442857D02*
X125207200Y-162490476D01*
X125207200Y-162490476D02*
X125254819Y-162633333D01*
X125254819Y-162633333D02*
X125254819Y-162728571D01*
X125254819Y-162728571D02*
X125207200Y-162871428D01*
X125207200Y-162871428D02*
X125111961Y-162966666D01*
X125111961Y-162966666D02*
X125016723Y-163014285D01*
X125016723Y-163014285D02*
X124826247Y-163061904D01*
X124826247Y-163061904D02*
X124683390Y-163061904D01*
X124683390Y-163061904D02*
X124492914Y-163014285D01*
X124492914Y-163014285D02*
X124397676Y-162966666D01*
X124397676Y-162966666D02*
X124302438Y-162871428D01*
X124302438Y-162871428D02*
X124254819Y-162728571D01*
X124254819Y-162728571D02*
X124254819Y-162633333D01*
X124254819Y-162633333D02*
X124302438Y-162490476D01*
X124302438Y-162490476D02*
X124350057Y-162442857D01*
X124350057Y-162061904D02*
X124302438Y-162014285D01*
X124302438Y-162014285D02*
X124254819Y-161919047D01*
X124254819Y-161919047D02*
X124254819Y-161680952D01*
X124254819Y-161680952D02*
X124302438Y-161585714D01*
X124302438Y-161585714D02*
X124350057Y-161538095D01*
X124350057Y-161538095D02*
X124445295Y-161490476D01*
X124445295Y-161490476D02*
X124540533Y-161490476D01*
X124540533Y-161490476D02*
X124683390Y-161538095D01*
X124683390Y-161538095D02*
X125254819Y-162109523D01*
X125254819Y-162109523D02*
X125254819Y-161490476D01*
X124254819Y-160585714D02*
X124254819Y-161061904D01*
X124254819Y-161061904D02*
X124731009Y-161109523D01*
X124731009Y-161109523D02*
X124683390Y-161061904D01*
X124683390Y-161061904D02*
X124635771Y-160966666D01*
X124635771Y-160966666D02*
X124635771Y-160728571D01*
X124635771Y-160728571D02*
X124683390Y-160633333D01*
X124683390Y-160633333D02*
X124731009Y-160585714D01*
X124731009Y-160585714D02*
X124826247Y-160538095D01*
X124826247Y-160538095D02*
X125064342Y-160538095D01*
X125064342Y-160538095D02*
X125159580Y-160585714D01*
X125159580Y-160585714D02*
X125207200Y-160633333D01*
X125207200Y-160633333D02*
X125254819Y-160728571D01*
X125254819Y-160728571D02*
X125254819Y-160966666D01*
X125254819Y-160966666D02*
X125207200Y-161061904D01*
X125207200Y-161061904D02*
X125159580Y-161109523D01*
X116233333Y-150459580D02*
X116185714Y-150507200D01*
X116185714Y-150507200D02*
X116042857Y-150554819D01*
X116042857Y-150554819D02*
X115947619Y-150554819D01*
X115947619Y-150554819D02*
X115804762Y-150507200D01*
X115804762Y-150507200D02*
X115709524Y-150411961D01*
X115709524Y-150411961D02*
X115661905Y-150316723D01*
X115661905Y-150316723D02*
X115614286Y-150126247D01*
X115614286Y-150126247D02*
X115614286Y-149983390D01*
X115614286Y-149983390D02*
X115661905Y-149792914D01*
X115661905Y-149792914D02*
X115709524Y-149697676D01*
X115709524Y-149697676D02*
X115804762Y-149602438D01*
X115804762Y-149602438D02*
X115947619Y-149554819D01*
X115947619Y-149554819D02*
X116042857Y-149554819D01*
X116042857Y-149554819D02*
X116185714Y-149602438D01*
X116185714Y-149602438D02*
X116233333Y-149650057D01*
X117090476Y-149888152D02*
X117090476Y-150554819D01*
X116852381Y-149507200D02*
X116614286Y-150221485D01*
X116614286Y-150221485D02*
X117233333Y-150221485D01*
X129066666Y-95654819D02*
X129066666Y-96369104D01*
X129066666Y-96369104D02*
X129019047Y-96511961D01*
X129019047Y-96511961D02*
X128923809Y-96607200D01*
X128923809Y-96607200D02*
X128780952Y-96654819D01*
X128780952Y-96654819D02*
X128685714Y-96654819D01*
X129685714Y-96083390D02*
X129590476Y-96035771D01*
X129590476Y-96035771D02*
X129542857Y-95988152D01*
X129542857Y-95988152D02*
X129495238Y-95892914D01*
X129495238Y-95892914D02*
X129495238Y-95845295D01*
X129495238Y-95845295D02*
X129542857Y-95750057D01*
X129542857Y-95750057D02*
X129590476Y-95702438D01*
X129590476Y-95702438D02*
X129685714Y-95654819D01*
X129685714Y-95654819D02*
X129876190Y-95654819D01*
X129876190Y-95654819D02*
X129971428Y-95702438D01*
X129971428Y-95702438D02*
X130019047Y-95750057D01*
X130019047Y-95750057D02*
X130066666Y-95845295D01*
X130066666Y-95845295D02*
X130066666Y-95892914D01*
X130066666Y-95892914D02*
X130019047Y-95988152D01*
X130019047Y-95988152D02*
X129971428Y-96035771D01*
X129971428Y-96035771D02*
X129876190Y-96083390D01*
X129876190Y-96083390D02*
X129685714Y-96083390D01*
X129685714Y-96083390D02*
X129590476Y-96131009D01*
X129590476Y-96131009D02*
X129542857Y-96178628D01*
X129542857Y-96178628D02*
X129495238Y-96273866D01*
X129495238Y-96273866D02*
X129495238Y-96464342D01*
X129495238Y-96464342D02*
X129542857Y-96559580D01*
X129542857Y-96559580D02*
X129590476Y-96607200D01*
X129590476Y-96607200D02*
X129685714Y-96654819D01*
X129685714Y-96654819D02*
X129876190Y-96654819D01*
X129876190Y-96654819D02*
X129971428Y-96607200D01*
X129971428Y-96607200D02*
X130019047Y-96559580D01*
X130019047Y-96559580D02*
X130066666Y-96464342D01*
X130066666Y-96464342D02*
X130066666Y-96273866D01*
X130066666Y-96273866D02*
X130019047Y-96178628D01*
X130019047Y-96178628D02*
X129971428Y-96131009D01*
X129971428Y-96131009D02*
X129876190Y-96083390D01*
X127791666Y-130851009D02*
X127458333Y-130851009D01*
X127458333Y-131374819D02*
X127458333Y-130374819D01*
X127458333Y-130374819D02*
X127934523Y-130374819D01*
X128648809Y-130851009D02*
X128791666Y-130898628D01*
X128791666Y-130898628D02*
X128839285Y-130946247D01*
X128839285Y-130946247D02*
X128886904Y-131041485D01*
X128886904Y-131041485D02*
X128886904Y-131184342D01*
X128886904Y-131184342D02*
X128839285Y-131279580D01*
X128839285Y-131279580D02*
X128791666Y-131327200D01*
X128791666Y-131327200D02*
X128696428Y-131374819D01*
X128696428Y-131374819D02*
X128315476Y-131374819D01*
X128315476Y-131374819D02*
X128315476Y-130374819D01*
X128315476Y-130374819D02*
X128648809Y-130374819D01*
X128648809Y-130374819D02*
X128744047Y-130422438D01*
X128744047Y-130422438D02*
X128791666Y-130470057D01*
X128791666Y-130470057D02*
X128839285Y-130565295D01*
X128839285Y-130565295D02*
X128839285Y-130660533D01*
X128839285Y-130660533D02*
X128791666Y-130755771D01*
X128791666Y-130755771D02*
X128744047Y-130803390D01*
X128744047Y-130803390D02*
X128648809Y-130851009D01*
X128648809Y-130851009D02*
X128315476Y-130851009D01*
X129839285Y-131374819D02*
X129267857Y-131374819D01*
X129553571Y-131374819D02*
X129553571Y-130374819D01*
X129553571Y-130374819D02*
X129458333Y-130517676D01*
X129458333Y-130517676D02*
X129363095Y-130612914D01*
X129363095Y-130612914D02*
X129267857Y-130660533D01*
X106654819Y-134766666D02*
X106178628Y-135099999D01*
X106654819Y-135338094D02*
X105654819Y-135338094D01*
X105654819Y-135338094D02*
X105654819Y-134957142D01*
X105654819Y-134957142D02*
X105702438Y-134861904D01*
X105702438Y-134861904D02*
X105750057Y-134814285D01*
X105750057Y-134814285D02*
X105845295Y-134766666D01*
X105845295Y-134766666D02*
X105988152Y-134766666D01*
X105988152Y-134766666D02*
X106083390Y-134814285D01*
X106083390Y-134814285D02*
X106131009Y-134861904D01*
X106131009Y-134861904D02*
X106178628Y-134957142D01*
X106178628Y-134957142D02*
X106178628Y-135338094D01*
X105988152Y-133909523D02*
X106654819Y-133909523D01*
X105607200Y-134147618D02*
X106321485Y-134385713D01*
X106321485Y-134385713D02*
X106321485Y-133766666D01*
X113657142Y-110254819D02*
X113323809Y-109778628D01*
X113085714Y-110254819D02*
X113085714Y-109254819D01*
X113085714Y-109254819D02*
X113466666Y-109254819D01*
X113466666Y-109254819D02*
X113561904Y-109302438D01*
X113561904Y-109302438D02*
X113609523Y-109350057D01*
X113609523Y-109350057D02*
X113657142Y-109445295D01*
X113657142Y-109445295D02*
X113657142Y-109588152D01*
X113657142Y-109588152D02*
X113609523Y-109683390D01*
X113609523Y-109683390D02*
X113561904Y-109731009D01*
X113561904Y-109731009D02*
X113466666Y-109778628D01*
X113466666Y-109778628D02*
X113085714Y-109778628D01*
X114609523Y-110254819D02*
X114038095Y-110254819D01*
X114323809Y-110254819D02*
X114323809Y-109254819D01*
X114323809Y-109254819D02*
X114228571Y-109397676D01*
X114228571Y-109397676D02*
X114133333Y-109492914D01*
X114133333Y-109492914D02*
X114038095Y-109540533D01*
X115466666Y-109588152D02*
X115466666Y-110254819D01*
X115228571Y-109207200D02*
X114990476Y-109921485D01*
X114990476Y-109921485D02*
X115609523Y-109921485D01*
X110133333Y-152659580D02*
X110085714Y-152707200D01*
X110085714Y-152707200D02*
X109942857Y-152754819D01*
X109942857Y-152754819D02*
X109847619Y-152754819D01*
X109847619Y-152754819D02*
X109704762Y-152707200D01*
X109704762Y-152707200D02*
X109609524Y-152611961D01*
X109609524Y-152611961D02*
X109561905Y-152516723D01*
X109561905Y-152516723D02*
X109514286Y-152326247D01*
X109514286Y-152326247D02*
X109514286Y-152183390D01*
X109514286Y-152183390D02*
X109561905Y-151992914D01*
X109561905Y-151992914D02*
X109609524Y-151897676D01*
X109609524Y-151897676D02*
X109704762Y-151802438D01*
X109704762Y-151802438D02*
X109847619Y-151754819D01*
X109847619Y-151754819D02*
X109942857Y-151754819D01*
X109942857Y-151754819D02*
X110085714Y-151802438D01*
X110085714Y-151802438D02*
X110133333Y-151850057D01*
X110514286Y-151850057D02*
X110561905Y-151802438D01*
X110561905Y-151802438D02*
X110657143Y-151754819D01*
X110657143Y-151754819D02*
X110895238Y-151754819D01*
X110895238Y-151754819D02*
X110990476Y-151802438D01*
X110990476Y-151802438D02*
X111038095Y-151850057D01*
X111038095Y-151850057D02*
X111085714Y-151945295D01*
X111085714Y-151945295D02*
X111085714Y-152040533D01*
X111085714Y-152040533D02*
X111038095Y-152183390D01*
X111038095Y-152183390D02*
X110466667Y-152754819D01*
X110466667Y-152754819D02*
X111085714Y-152754819D01*
X105433333Y-151359580D02*
X105385714Y-151407200D01*
X105385714Y-151407200D02*
X105242857Y-151454819D01*
X105242857Y-151454819D02*
X105147619Y-151454819D01*
X105147619Y-151454819D02*
X105004762Y-151407200D01*
X105004762Y-151407200D02*
X104909524Y-151311961D01*
X104909524Y-151311961D02*
X104861905Y-151216723D01*
X104861905Y-151216723D02*
X104814286Y-151026247D01*
X104814286Y-151026247D02*
X104814286Y-150883390D01*
X104814286Y-150883390D02*
X104861905Y-150692914D01*
X104861905Y-150692914D02*
X104909524Y-150597676D01*
X104909524Y-150597676D02*
X105004762Y-150502438D01*
X105004762Y-150502438D02*
X105147619Y-150454819D01*
X105147619Y-150454819D02*
X105242857Y-150454819D01*
X105242857Y-150454819D02*
X105385714Y-150502438D01*
X105385714Y-150502438D02*
X105433333Y-150550057D01*
X105766667Y-150454819D02*
X106385714Y-150454819D01*
X106385714Y-150454819D02*
X106052381Y-150835771D01*
X106052381Y-150835771D02*
X106195238Y-150835771D01*
X106195238Y-150835771D02*
X106290476Y-150883390D01*
X106290476Y-150883390D02*
X106338095Y-150931009D01*
X106338095Y-150931009D02*
X106385714Y-151026247D01*
X106385714Y-151026247D02*
X106385714Y-151264342D01*
X106385714Y-151264342D02*
X106338095Y-151359580D01*
X106338095Y-151359580D02*
X106290476Y-151407200D01*
X106290476Y-151407200D02*
X106195238Y-151454819D01*
X106195238Y-151454819D02*
X105909524Y-151454819D01*
X105909524Y-151454819D02*
X105814286Y-151407200D01*
X105814286Y-151407200D02*
X105766667Y-151359580D01*
X117309580Y-162442857D02*
X117357200Y-162490476D01*
X117357200Y-162490476D02*
X117404819Y-162633333D01*
X117404819Y-162633333D02*
X117404819Y-162728571D01*
X117404819Y-162728571D02*
X117357200Y-162871428D01*
X117357200Y-162871428D02*
X117261961Y-162966666D01*
X117261961Y-162966666D02*
X117166723Y-163014285D01*
X117166723Y-163014285D02*
X116976247Y-163061904D01*
X116976247Y-163061904D02*
X116833390Y-163061904D01*
X116833390Y-163061904D02*
X116642914Y-163014285D01*
X116642914Y-163014285D02*
X116547676Y-162966666D01*
X116547676Y-162966666D02*
X116452438Y-162871428D01*
X116452438Y-162871428D02*
X116404819Y-162728571D01*
X116404819Y-162728571D02*
X116404819Y-162633333D01*
X116404819Y-162633333D02*
X116452438Y-162490476D01*
X116452438Y-162490476D02*
X116500057Y-162442857D01*
X116500057Y-162061904D02*
X116452438Y-162014285D01*
X116452438Y-162014285D02*
X116404819Y-161919047D01*
X116404819Y-161919047D02*
X116404819Y-161680952D01*
X116404819Y-161680952D02*
X116452438Y-161585714D01*
X116452438Y-161585714D02*
X116500057Y-161538095D01*
X116500057Y-161538095D02*
X116595295Y-161490476D01*
X116595295Y-161490476D02*
X116690533Y-161490476D01*
X116690533Y-161490476D02*
X116833390Y-161538095D01*
X116833390Y-161538095D02*
X117404819Y-162109523D01*
X117404819Y-162109523D02*
X117404819Y-161490476D01*
X116404819Y-161157142D02*
X116404819Y-160490476D01*
X116404819Y-160490476D02*
X117404819Y-160919047D01*
X123357142Y-149359580D02*
X123309523Y-149407200D01*
X123309523Y-149407200D02*
X123166666Y-149454819D01*
X123166666Y-149454819D02*
X123071428Y-149454819D01*
X123071428Y-149454819D02*
X122928571Y-149407200D01*
X122928571Y-149407200D02*
X122833333Y-149311961D01*
X122833333Y-149311961D02*
X122785714Y-149216723D01*
X122785714Y-149216723D02*
X122738095Y-149026247D01*
X122738095Y-149026247D02*
X122738095Y-148883390D01*
X122738095Y-148883390D02*
X122785714Y-148692914D01*
X122785714Y-148692914D02*
X122833333Y-148597676D01*
X122833333Y-148597676D02*
X122928571Y-148502438D01*
X122928571Y-148502438D02*
X123071428Y-148454819D01*
X123071428Y-148454819D02*
X123166666Y-148454819D01*
X123166666Y-148454819D02*
X123309523Y-148502438D01*
X123309523Y-148502438D02*
X123357142Y-148550057D01*
X124309523Y-149454819D02*
X123738095Y-149454819D01*
X124023809Y-149454819D02*
X124023809Y-148454819D01*
X124023809Y-148454819D02*
X123928571Y-148597676D01*
X123928571Y-148597676D02*
X123833333Y-148692914D01*
X123833333Y-148692914D02*
X123738095Y-148740533D01*
X124928571Y-148454819D02*
X125023809Y-148454819D01*
X125023809Y-148454819D02*
X125119047Y-148502438D01*
X125119047Y-148502438D02*
X125166666Y-148550057D01*
X125166666Y-148550057D02*
X125214285Y-148645295D01*
X125214285Y-148645295D02*
X125261904Y-148835771D01*
X125261904Y-148835771D02*
X125261904Y-149073866D01*
X125261904Y-149073866D02*
X125214285Y-149264342D01*
X125214285Y-149264342D02*
X125166666Y-149359580D01*
X125166666Y-149359580D02*
X125119047Y-149407200D01*
X125119047Y-149407200D02*
X125023809Y-149454819D01*
X125023809Y-149454819D02*
X124928571Y-149454819D01*
X124928571Y-149454819D02*
X124833333Y-149407200D01*
X124833333Y-149407200D02*
X124785714Y-149359580D01*
X124785714Y-149359580D02*
X124738095Y-149264342D01*
X124738095Y-149264342D02*
X124690476Y-149073866D01*
X124690476Y-149073866D02*
X124690476Y-148835771D01*
X124690476Y-148835771D02*
X124738095Y-148645295D01*
X124738095Y-148645295D02*
X124785714Y-148550057D01*
X124785714Y-148550057D02*
X124833333Y-148502438D01*
X124833333Y-148502438D02*
X124928571Y-148454819D01*
X138704761Y-105865057D02*
X138609523Y-105817438D01*
X138609523Y-105817438D02*
X138514285Y-105722200D01*
X138514285Y-105722200D02*
X138371428Y-105579342D01*
X138371428Y-105579342D02*
X138276190Y-105531723D01*
X138276190Y-105531723D02*
X138180952Y-105531723D01*
X138228571Y-105769819D02*
X138133333Y-105722200D01*
X138133333Y-105722200D02*
X138038095Y-105626961D01*
X138038095Y-105626961D02*
X137990476Y-105436485D01*
X137990476Y-105436485D02*
X137990476Y-105103152D01*
X137990476Y-105103152D02*
X138038095Y-104912676D01*
X138038095Y-104912676D02*
X138133333Y-104817438D01*
X138133333Y-104817438D02*
X138228571Y-104769819D01*
X138228571Y-104769819D02*
X138419047Y-104769819D01*
X138419047Y-104769819D02*
X138514285Y-104817438D01*
X138514285Y-104817438D02*
X138609523Y-104912676D01*
X138609523Y-104912676D02*
X138657142Y-105103152D01*
X138657142Y-105103152D02*
X138657142Y-105436485D01*
X138657142Y-105436485D02*
X138609523Y-105626961D01*
X138609523Y-105626961D02*
X138514285Y-105722200D01*
X138514285Y-105722200D02*
X138419047Y-105769819D01*
X138419047Y-105769819D02*
X138228571Y-105769819D01*
X139561904Y-104769819D02*
X139085714Y-104769819D01*
X139085714Y-104769819D02*
X139038095Y-105246009D01*
X139038095Y-105246009D02*
X139085714Y-105198390D01*
X139085714Y-105198390D02*
X139180952Y-105150771D01*
X139180952Y-105150771D02*
X139419047Y-105150771D01*
X139419047Y-105150771D02*
X139514285Y-105198390D01*
X139514285Y-105198390D02*
X139561904Y-105246009D01*
X139561904Y-105246009D02*
X139609523Y-105341247D01*
X139609523Y-105341247D02*
X139609523Y-105579342D01*
X139609523Y-105579342D02*
X139561904Y-105674580D01*
X139561904Y-105674580D02*
X139514285Y-105722200D01*
X139514285Y-105722200D02*
X139419047Y-105769819D01*
X139419047Y-105769819D02*
X139180952Y-105769819D01*
X139180952Y-105769819D02*
X139085714Y-105722200D01*
X139085714Y-105722200D02*
X139038095Y-105674580D01*
X103654819Y-102966666D02*
X103178628Y-103299999D01*
X103654819Y-103538094D02*
X102654819Y-103538094D01*
X102654819Y-103538094D02*
X102654819Y-103157142D01*
X102654819Y-103157142D02*
X102702438Y-103061904D01*
X102702438Y-103061904D02*
X102750057Y-103014285D01*
X102750057Y-103014285D02*
X102845295Y-102966666D01*
X102845295Y-102966666D02*
X102988152Y-102966666D01*
X102988152Y-102966666D02*
X103083390Y-103014285D01*
X103083390Y-103014285D02*
X103131009Y-103061904D01*
X103131009Y-103061904D02*
X103178628Y-103157142D01*
X103178628Y-103157142D02*
X103178628Y-103538094D01*
X103654819Y-102490475D02*
X103654819Y-102299999D01*
X103654819Y-102299999D02*
X103607200Y-102204761D01*
X103607200Y-102204761D02*
X103559580Y-102157142D01*
X103559580Y-102157142D02*
X103416723Y-102061904D01*
X103416723Y-102061904D02*
X103226247Y-102014285D01*
X103226247Y-102014285D02*
X102845295Y-102014285D01*
X102845295Y-102014285D02*
X102750057Y-102061904D01*
X102750057Y-102061904D02*
X102702438Y-102109523D01*
X102702438Y-102109523D02*
X102654819Y-102204761D01*
X102654819Y-102204761D02*
X102654819Y-102395237D01*
X102654819Y-102395237D02*
X102702438Y-102490475D01*
X102702438Y-102490475D02*
X102750057Y-102538094D01*
X102750057Y-102538094D02*
X102845295Y-102585713D01*
X102845295Y-102585713D02*
X103083390Y-102585713D01*
X103083390Y-102585713D02*
X103178628Y-102538094D01*
X103178628Y-102538094D02*
X103226247Y-102490475D01*
X103226247Y-102490475D02*
X103273866Y-102395237D01*
X103273866Y-102395237D02*
X103273866Y-102204761D01*
X103273866Y-102204761D02*
X103226247Y-102109523D01*
X103226247Y-102109523D02*
X103178628Y-102061904D01*
X103178628Y-102061904D02*
X103083390Y-102014285D01*
X116359580Y-126442857D02*
X116407200Y-126490476D01*
X116407200Y-126490476D02*
X116454819Y-126633333D01*
X116454819Y-126633333D02*
X116454819Y-126728571D01*
X116454819Y-126728571D02*
X116407200Y-126871428D01*
X116407200Y-126871428D02*
X116311961Y-126966666D01*
X116311961Y-126966666D02*
X116216723Y-127014285D01*
X116216723Y-127014285D02*
X116026247Y-127061904D01*
X116026247Y-127061904D02*
X115883390Y-127061904D01*
X115883390Y-127061904D02*
X115692914Y-127014285D01*
X115692914Y-127014285D02*
X115597676Y-126966666D01*
X115597676Y-126966666D02*
X115502438Y-126871428D01*
X115502438Y-126871428D02*
X115454819Y-126728571D01*
X115454819Y-126728571D02*
X115454819Y-126633333D01*
X115454819Y-126633333D02*
X115502438Y-126490476D01*
X115502438Y-126490476D02*
X115550057Y-126442857D01*
X116454819Y-125490476D02*
X116454819Y-126061904D01*
X116454819Y-125776190D02*
X115454819Y-125776190D01*
X115454819Y-125776190D02*
X115597676Y-125871428D01*
X115597676Y-125871428D02*
X115692914Y-125966666D01*
X115692914Y-125966666D02*
X115740533Y-126061904D01*
X115788152Y-124633333D02*
X116454819Y-124633333D01*
X115407200Y-124871428D02*
X116121485Y-125109523D01*
X116121485Y-125109523D02*
X116121485Y-124490476D01*
X113657142Y-111854819D02*
X113323809Y-111378628D01*
X113085714Y-111854819D02*
X113085714Y-110854819D01*
X113085714Y-110854819D02*
X113466666Y-110854819D01*
X113466666Y-110854819D02*
X113561904Y-110902438D01*
X113561904Y-110902438D02*
X113609523Y-110950057D01*
X113609523Y-110950057D02*
X113657142Y-111045295D01*
X113657142Y-111045295D02*
X113657142Y-111188152D01*
X113657142Y-111188152D02*
X113609523Y-111283390D01*
X113609523Y-111283390D02*
X113561904Y-111331009D01*
X113561904Y-111331009D02*
X113466666Y-111378628D01*
X113466666Y-111378628D02*
X113085714Y-111378628D01*
X114609523Y-111854819D02*
X114038095Y-111854819D01*
X114323809Y-111854819D02*
X114323809Y-110854819D01*
X114323809Y-110854819D02*
X114228571Y-110997676D01*
X114228571Y-110997676D02*
X114133333Y-111092914D01*
X114133333Y-111092914D02*
X114038095Y-111140533D01*
X115228571Y-110854819D02*
X115323809Y-110854819D01*
X115323809Y-110854819D02*
X115419047Y-110902438D01*
X115419047Y-110902438D02*
X115466666Y-110950057D01*
X115466666Y-110950057D02*
X115514285Y-111045295D01*
X115514285Y-111045295D02*
X115561904Y-111235771D01*
X115561904Y-111235771D02*
X115561904Y-111473866D01*
X115561904Y-111473866D02*
X115514285Y-111664342D01*
X115514285Y-111664342D02*
X115466666Y-111759580D01*
X115466666Y-111759580D02*
X115419047Y-111807200D01*
X115419047Y-111807200D02*
X115323809Y-111854819D01*
X115323809Y-111854819D02*
X115228571Y-111854819D01*
X115228571Y-111854819D02*
X115133333Y-111807200D01*
X115133333Y-111807200D02*
X115085714Y-111759580D01*
X115085714Y-111759580D02*
X115038095Y-111664342D01*
X115038095Y-111664342D02*
X114990476Y-111473866D01*
X114990476Y-111473866D02*
X114990476Y-111235771D01*
X114990476Y-111235771D02*
X115038095Y-111045295D01*
X115038095Y-111045295D02*
X115085714Y-110950057D01*
X115085714Y-110950057D02*
X115133333Y-110902438D01*
X115133333Y-110902438D02*
X115228571Y-110854819D01*
X103754819Y-149942857D02*
X103278628Y-150276190D01*
X103754819Y-150514285D02*
X102754819Y-150514285D01*
X102754819Y-150514285D02*
X102754819Y-150133333D01*
X102754819Y-150133333D02*
X102802438Y-150038095D01*
X102802438Y-150038095D02*
X102850057Y-149990476D01*
X102850057Y-149990476D02*
X102945295Y-149942857D01*
X102945295Y-149942857D02*
X103088152Y-149942857D01*
X103088152Y-149942857D02*
X103183390Y-149990476D01*
X103183390Y-149990476D02*
X103231009Y-150038095D01*
X103231009Y-150038095D02*
X103278628Y-150133333D01*
X103278628Y-150133333D02*
X103278628Y-150514285D01*
X102754819Y-149609523D02*
X102754819Y-148990476D01*
X102754819Y-148990476D02*
X103135771Y-149323809D01*
X103135771Y-149323809D02*
X103135771Y-149180952D01*
X103135771Y-149180952D02*
X103183390Y-149085714D01*
X103183390Y-149085714D02*
X103231009Y-149038095D01*
X103231009Y-149038095D02*
X103326247Y-148990476D01*
X103326247Y-148990476D02*
X103564342Y-148990476D01*
X103564342Y-148990476D02*
X103659580Y-149038095D01*
X103659580Y-149038095D02*
X103707200Y-149085714D01*
X103707200Y-149085714D02*
X103754819Y-149180952D01*
X103754819Y-149180952D02*
X103754819Y-149466666D01*
X103754819Y-149466666D02*
X103707200Y-149561904D01*
X103707200Y-149561904D02*
X103659580Y-149609523D01*
X102754819Y-148657142D02*
X102754819Y-148038095D01*
X102754819Y-148038095D02*
X103135771Y-148371428D01*
X103135771Y-148371428D02*
X103135771Y-148228571D01*
X103135771Y-148228571D02*
X103183390Y-148133333D01*
X103183390Y-148133333D02*
X103231009Y-148085714D01*
X103231009Y-148085714D02*
X103326247Y-148038095D01*
X103326247Y-148038095D02*
X103564342Y-148038095D01*
X103564342Y-148038095D02*
X103659580Y-148085714D01*
X103659580Y-148085714D02*
X103707200Y-148133333D01*
X103707200Y-148133333D02*
X103754819Y-148228571D01*
X103754819Y-148228571D02*
X103754819Y-148514285D01*
X103754819Y-148514285D02*
X103707200Y-148609523D01*
X103707200Y-148609523D02*
X103659580Y-148657142D01*
X116394761Y-100405057D02*
X116299523Y-100357438D01*
X116299523Y-100357438D02*
X116204285Y-100262200D01*
X116204285Y-100262200D02*
X116061428Y-100119342D01*
X116061428Y-100119342D02*
X115966190Y-100071723D01*
X115966190Y-100071723D02*
X115870952Y-100071723D01*
X115918571Y-100309819D02*
X115823333Y-100262200D01*
X115823333Y-100262200D02*
X115728095Y-100166961D01*
X115728095Y-100166961D02*
X115680476Y-99976485D01*
X115680476Y-99976485D02*
X115680476Y-99643152D01*
X115680476Y-99643152D02*
X115728095Y-99452676D01*
X115728095Y-99452676D02*
X115823333Y-99357438D01*
X115823333Y-99357438D02*
X115918571Y-99309819D01*
X115918571Y-99309819D02*
X116109047Y-99309819D01*
X116109047Y-99309819D02*
X116204285Y-99357438D01*
X116204285Y-99357438D02*
X116299523Y-99452676D01*
X116299523Y-99452676D02*
X116347142Y-99643152D01*
X116347142Y-99643152D02*
X116347142Y-99976485D01*
X116347142Y-99976485D02*
X116299523Y-100166961D01*
X116299523Y-100166961D02*
X116204285Y-100262200D01*
X116204285Y-100262200D02*
X116109047Y-100309819D01*
X116109047Y-100309819D02*
X115918571Y-100309819D01*
X117204285Y-99643152D02*
X117204285Y-100309819D01*
X116966190Y-99262200D02*
X116728095Y-99976485D01*
X116728095Y-99976485D02*
X117347142Y-99976485D01*
X109709523Y-126813509D02*
X109376190Y-126813509D01*
X109376190Y-127337319D02*
X109376190Y-126337319D01*
X109376190Y-126337319D02*
X109852380Y-126337319D01*
X110709523Y-127337319D02*
X110233333Y-127337319D01*
X110233333Y-127337319D02*
X110233333Y-126337319D01*
X110995238Y-127051604D02*
X111471428Y-127051604D01*
X110900000Y-127337319D02*
X111233333Y-126337319D01*
X111233333Y-126337319D02*
X111566666Y-127337319D01*
X111852381Y-127289700D02*
X111995238Y-127337319D01*
X111995238Y-127337319D02*
X112233333Y-127337319D01*
X112233333Y-127337319D02*
X112328571Y-127289700D01*
X112328571Y-127289700D02*
X112376190Y-127242080D01*
X112376190Y-127242080D02*
X112423809Y-127146842D01*
X112423809Y-127146842D02*
X112423809Y-127051604D01*
X112423809Y-127051604D02*
X112376190Y-126956366D01*
X112376190Y-126956366D02*
X112328571Y-126908747D01*
X112328571Y-126908747D02*
X112233333Y-126861128D01*
X112233333Y-126861128D02*
X112042857Y-126813509D01*
X112042857Y-126813509D02*
X111947619Y-126765890D01*
X111947619Y-126765890D02*
X111900000Y-126718271D01*
X111900000Y-126718271D02*
X111852381Y-126623033D01*
X111852381Y-126623033D02*
X111852381Y-126527795D01*
X111852381Y-126527795D02*
X111900000Y-126432557D01*
X111900000Y-126432557D02*
X111947619Y-126384938D01*
X111947619Y-126384938D02*
X112042857Y-126337319D01*
X112042857Y-126337319D02*
X112280952Y-126337319D01*
X112280952Y-126337319D02*
X112423809Y-126384938D01*
X112852381Y-127337319D02*
X112852381Y-126337319D01*
X112852381Y-126813509D02*
X113423809Y-126813509D01*
X113423809Y-127337319D02*
X113423809Y-126337319D01*
X105254819Y-103966666D02*
X104778628Y-104299999D01*
X105254819Y-104538094D02*
X104254819Y-104538094D01*
X104254819Y-104538094D02*
X104254819Y-104157142D01*
X104254819Y-104157142D02*
X104302438Y-104061904D01*
X104302438Y-104061904D02*
X104350057Y-104014285D01*
X104350057Y-104014285D02*
X104445295Y-103966666D01*
X104445295Y-103966666D02*
X104588152Y-103966666D01*
X104588152Y-103966666D02*
X104683390Y-104014285D01*
X104683390Y-104014285D02*
X104731009Y-104061904D01*
X104731009Y-104061904D02*
X104778628Y-104157142D01*
X104778628Y-104157142D02*
X104778628Y-104538094D01*
X104254819Y-103633332D02*
X104254819Y-102966666D01*
X104254819Y-102966666D02*
X105254819Y-103395237D01*
X110961905Y-118054819D02*
X110961905Y-117054819D01*
X110961905Y-117054819D02*
X111200000Y-117054819D01*
X111200000Y-117054819D02*
X111342857Y-117102438D01*
X111342857Y-117102438D02*
X111438095Y-117197676D01*
X111438095Y-117197676D02*
X111485714Y-117292914D01*
X111485714Y-117292914D02*
X111533333Y-117483390D01*
X111533333Y-117483390D02*
X111533333Y-117626247D01*
X111533333Y-117626247D02*
X111485714Y-117816723D01*
X111485714Y-117816723D02*
X111438095Y-117911961D01*
X111438095Y-117911961D02*
X111342857Y-118007200D01*
X111342857Y-118007200D02*
X111200000Y-118054819D01*
X111200000Y-118054819D02*
X110961905Y-118054819D01*
X112390476Y-117388152D02*
X112390476Y-118054819D01*
X112152381Y-117007200D02*
X111914286Y-117721485D01*
X111914286Y-117721485D02*
X112533333Y-117721485D01*
X102204762Y-130954819D02*
X102204762Y-131764342D01*
X102204762Y-131764342D02*
X102252381Y-131859580D01*
X102252381Y-131859580D02*
X102300000Y-131907200D01*
X102300000Y-131907200D02*
X102395238Y-131954819D01*
X102395238Y-131954819D02*
X102585714Y-131954819D01*
X102585714Y-131954819D02*
X102680952Y-131907200D01*
X102680952Y-131907200D02*
X102728571Y-131859580D01*
X102728571Y-131859580D02*
X102776190Y-131764342D01*
X102776190Y-131764342D02*
X102776190Y-130954819D01*
X103204762Y-131669104D02*
X103680952Y-131669104D01*
X103109524Y-131954819D02*
X103442857Y-130954819D01*
X103442857Y-130954819D02*
X103776190Y-131954819D01*
X104680952Y-131954819D02*
X104347619Y-131478628D01*
X104109524Y-131954819D02*
X104109524Y-130954819D01*
X104109524Y-130954819D02*
X104490476Y-130954819D01*
X104490476Y-130954819D02*
X104585714Y-131002438D01*
X104585714Y-131002438D02*
X104633333Y-131050057D01*
X104633333Y-131050057D02*
X104680952Y-131145295D01*
X104680952Y-131145295D02*
X104680952Y-131288152D01*
X104680952Y-131288152D02*
X104633333Y-131383390D01*
X104633333Y-131383390D02*
X104585714Y-131431009D01*
X104585714Y-131431009D02*
X104490476Y-131478628D01*
X104490476Y-131478628D02*
X104109524Y-131478628D01*
X104966667Y-130954819D02*
X105538095Y-130954819D01*
X105252381Y-131954819D02*
X105252381Y-130954819D01*
X133454819Y-140966666D02*
X132978628Y-141299999D01*
X133454819Y-141538094D02*
X132454819Y-141538094D01*
X132454819Y-141538094D02*
X132454819Y-141157142D01*
X132454819Y-141157142D02*
X132502438Y-141061904D01*
X132502438Y-141061904D02*
X132550057Y-141014285D01*
X132550057Y-141014285D02*
X132645295Y-140966666D01*
X132645295Y-140966666D02*
X132788152Y-140966666D01*
X132788152Y-140966666D02*
X132883390Y-141014285D01*
X132883390Y-141014285D02*
X132931009Y-141061904D01*
X132931009Y-141061904D02*
X132978628Y-141157142D01*
X132978628Y-141157142D02*
X132978628Y-141538094D01*
X132454819Y-140633332D02*
X132454819Y-140014285D01*
X132454819Y-140014285D02*
X132835771Y-140347618D01*
X132835771Y-140347618D02*
X132835771Y-140204761D01*
X132835771Y-140204761D02*
X132883390Y-140109523D01*
X132883390Y-140109523D02*
X132931009Y-140061904D01*
X132931009Y-140061904D02*
X133026247Y-140014285D01*
X133026247Y-140014285D02*
X133264342Y-140014285D01*
X133264342Y-140014285D02*
X133359580Y-140061904D01*
X133359580Y-140061904D02*
X133407200Y-140109523D01*
X133407200Y-140109523D02*
X133454819Y-140204761D01*
X133454819Y-140204761D02*
X133454819Y-140490475D01*
X133454819Y-140490475D02*
X133407200Y-140585713D01*
X133407200Y-140585713D02*
X133359580Y-140633332D01*
X104104761Y-100392557D02*
X104009523Y-100344938D01*
X104009523Y-100344938D02*
X103914285Y-100249700D01*
X103914285Y-100249700D02*
X103771428Y-100106842D01*
X103771428Y-100106842D02*
X103676190Y-100059223D01*
X103676190Y-100059223D02*
X103580952Y-100059223D01*
X103628571Y-100297319D02*
X103533333Y-100249700D01*
X103533333Y-100249700D02*
X103438095Y-100154461D01*
X103438095Y-100154461D02*
X103390476Y-99963985D01*
X103390476Y-99963985D02*
X103390476Y-99630652D01*
X103390476Y-99630652D02*
X103438095Y-99440176D01*
X103438095Y-99440176D02*
X103533333Y-99344938D01*
X103533333Y-99344938D02*
X103628571Y-99297319D01*
X103628571Y-99297319D02*
X103819047Y-99297319D01*
X103819047Y-99297319D02*
X103914285Y-99344938D01*
X103914285Y-99344938D02*
X104009523Y-99440176D01*
X104009523Y-99440176D02*
X104057142Y-99630652D01*
X104057142Y-99630652D02*
X104057142Y-99963985D01*
X104057142Y-99963985D02*
X104009523Y-100154461D01*
X104009523Y-100154461D02*
X103914285Y-100249700D01*
X103914285Y-100249700D02*
X103819047Y-100297319D01*
X103819047Y-100297319D02*
X103628571Y-100297319D01*
X104438095Y-99392557D02*
X104485714Y-99344938D01*
X104485714Y-99344938D02*
X104580952Y-99297319D01*
X104580952Y-99297319D02*
X104819047Y-99297319D01*
X104819047Y-99297319D02*
X104914285Y-99344938D01*
X104914285Y-99344938D02*
X104961904Y-99392557D01*
X104961904Y-99392557D02*
X105009523Y-99487795D01*
X105009523Y-99487795D02*
X105009523Y-99583033D01*
X105009523Y-99583033D02*
X104961904Y-99725890D01*
X104961904Y-99725890D02*
X104390476Y-100297319D01*
X104390476Y-100297319D02*
X105009523Y-100297319D01*
X116859580Y-159642857D02*
X116907200Y-159690476D01*
X116907200Y-159690476D02*
X116954819Y-159833333D01*
X116954819Y-159833333D02*
X116954819Y-159928571D01*
X116954819Y-159928571D02*
X116907200Y-160071428D01*
X116907200Y-160071428D02*
X116811961Y-160166666D01*
X116811961Y-160166666D02*
X116716723Y-160214285D01*
X116716723Y-160214285D02*
X116526247Y-160261904D01*
X116526247Y-160261904D02*
X116383390Y-160261904D01*
X116383390Y-160261904D02*
X116192914Y-160214285D01*
X116192914Y-160214285D02*
X116097676Y-160166666D01*
X116097676Y-160166666D02*
X116002438Y-160071428D01*
X116002438Y-160071428D02*
X115954819Y-159928571D01*
X115954819Y-159928571D02*
X115954819Y-159833333D01*
X115954819Y-159833333D02*
X116002438Y-159690476D01*
X116002438Y-159690476D02*
X116050057Y-159642857D01*
X116288152Y-158785714D02*
X116954819Y-158785714D01*
X115907200Y-159023809D02*
X116621485Y-159261904D01*
X116621485Y-159261904D02*
X116621485Y-158642857D01*
X116288152Y-157833333D02*
X116954819Y-157833333D01*
X115907200Y-158071428D02*
X116621485Y-158309523D01*
X116621485Y-158309523D02*
X116621485Y-157690476D01*
X128299580Y-162442857D02*
X128347200Y-162490476D01*
X128347200Y-162490476D02*
X128394819Y-162633333D01*
X128394819Y-162633333D02*
X128394819Y-162728571D01*
X128394819Y-162728571D02*
X128347200Y-162871428D01*
X128347200Y-162871428D02*
X128251961Y-162966666D01*
X128251961Y-162966666D02*
X128156723Y-163014285D01*
X128156723Y-163014285D02*
X127966247Y-163061904D01*
X127966247Y-163061904D02*
X127823390Y-163061904D01*
X127823390Y-163061904D02*
X127632914Y-163014285D01*
X127632914Y-163014285D02*
X127537676Y-162966666D01*
X127537676Y-162966666D02*
X127442438Y-162871428D01*
X127442438Y-162871428D02*
X127394819Y-162728571D01*
X127394819Y-162728571D02*
X127394819Y-162633333D01*
X127394819Y-162633333D02*
X127442438Y-162490476D01*
X127442438Y-162490476D02*
X127490057Y-162442857D01*
X127394819Y-162109523D02*
X127394819Y-161490476D01*
X127394819Y-161490476D02*
X127775771Y-161823809D01*
X127775771Y-161823809D02*
X127775771Y-161680952D01*
X127775771Y-161680952D02*
X127823390Y-161585714D01*
X127823390Y-161585714D02*
X127871009Y-161538095D01*
X127871009Y-161538095D02*
X127966247Y-161490476D01*
X127966247Y-161490476D02*
X128204342Y-161490476D01*
X128204342Y-161490476D02*
X128299580Y-161538095D01*
X128299580Y-161538095D02*
X128347200Y-161585714D01*
X128347200Y-161585714D02*
X128394819Y-161680952D01*
X128394819Y-161680952D02*
X128394819Y-161966666D01*
X128394819Y-161966666D02*
X128347200Y-162061904D01*
X128347200Y-162061904D02*
X128299580Y-162109523D01*
X127728152Y-160633333D02*
X128394819Y-160633333D01*
X127347200Y-160871428D02*
X128061485Y-161109523D01*
X128061485Y-161109523D02*
X128061485Y-160490476D01*
X120449580Y-162442857D02*
X120497200Y-162490476D01*
X120497200Y-162490476D02*
X120544819Y-162633333D01*
X120544819Y-162633333D02*
X120544819Y-162728571D01*
X120544819Y-162728571D02*
X120497200Y-162871428D01*
X120497200Y-162871428D02*
X120401961Y-162966666D01*
X120401961Y-162966666D02*
X120306723Y-163014285D01*
X120306723Y-163014285D02*
X120116247Y-163061904D01*
X120116247Y-163061904D02*
X119973390Y-163061904D01*
X119973390Y-163061904D02*
X119782914Y-163014285D01*
X119782914Y-163014285D02*
X119687676Y-162966666D01*
X119687676Y-162966666D02*
X119592438Y-162871428D01*
X119592438Y-162871428D02*
X119544819Y-162728571D01*
X119544819Y-162728571D02*
X119544819Y-162633333D01*
X119544819Y-162633333D02*
X119592438Y-162490476D01*
X119592438Y-162490476D02*
X119640057Y-162442857D01*
X119640057Y-162061904D02*
X119592438Y-162014285D01*
X119592438Y-162014285D02*
X119544819Y-161919047D01*
X119544819Y-161919047D02*
X119544819Y-161680952D01*
X119544819Y-161680952D02*
X119592438Y-161585714D01*
X119592438Y-161585714D02*
X119640057Y-161538095D01*
X119640057Y-161538095D02*
X119735295Y-161490476D01*
X119735295Y-161490476D02*
X119830533Y-161490476D01*
X119830533Y-161490476D02*
X119973390Y-161538095D01*
X119973390Y-161538095D02*
X120544819Y-162109523D01*
X120544819Y-162109523D02*
X120544819Y-161490476D01*
X119640057Y-161109523D02*
X119592438Y-161061904D01*
X119592438Y-161061904D02*
X119544819Y-160966666D01*
X119544819Y-160966666D02*
X119544819Y-160728571D01*
X119544819Y-160728571D02*
X119592438Y-160633333D01*
X119592438Y-160633333D02*
X119640057Y-160585714D01*
X119640057Y-160585714D02*
X119735295Y-160538095D01*
X119735295Y-160538095D02*
X119830533Y-160538095D01*
X119830533Y-160538095D02*
X119973390Y-160585714D01*
X119973390Y-160585714D02*
X120544819Y-161157142D01*
X120544819Y-161157142D02*
X120544819Y-160538095D01*
X104054819Y-140538094D02*
X103054819Y-140538094D01*
X103054819Y-140538094D02*
X103054819Y-140299999D01*
X103054819Y-140299999D02*
X103102438Y-140157142D01*
X103102438Y-140157142D02*
X103197676Y-140061904D01*
X103197676Y-140061904D02*
X103292914Y-140014285D01*
X103292914Y-140014285D02*
X103483390Y-139966666D01*
X103483390Y-139966666D02*
X103626247Y-139966666D01*
X103626247Y-139966666D02*
X103816723Y-140014285D01*
X103816723Y-140014285D02*
X103911961Y-140061904D01*
X103911961Y-140061904D02*
X104007200Y-140157142D01*
X104007200Y-140157142D02*
X104054819Y-140299999D01*
X104054819Y-140299999D02*
X104054819Y-140538094D01*
X103054819Y-139633332D02*
X103054819Y-138966666D01*
X103054819Y-138966666D02*
X104054819Y-139395237D01*
X118661905Y-154292319D02*
X118661905Y-153292319D01*
X118661905Y-153292319D02*
X118900000Y-153292319D01*
X118900000Y-153292319D02*
X119042857Y-153339938D01*
X119042857Y-153339938D02*
X119138095Y-153435176D01*
X119138095Y-153435176D02*
X119185714Y-153530414D01*
X119185714Y-153530414D02*
X119233333Y-153720890D01*
X119233333Y-153720890D02*
X119233333Y-153863747D01*
X119233333Y-153863747D02*
X119185714Y-154054223D01*
X119185714Y-154054223D02*
X119138095Y-154149461D01*
X119138095Y-154149461D02*
X119042857Y-154244700D01*
X119042857Y-154244700D02*
X118900000Y-154292319D01*
X118900000Y-154292319D02*
X118661905Y-154292319D01*
X119804762Y-153720890D02*
X119709524Y-153673271D01*
X119709524Y-153673271D02*
X119661905Y-153625652D01*
X119661905Y-153625652D02*
X119614286Y-153530414D01*
X119614286Y-153530414D02*
X119614286Y-153482795D01*
X119614286Y-153482795D02*
X119661905Y-153387557D01*
X119661905Y-153387557D02*
X119709524Y-153339938D01*
X119709524Y-153339938D02*
X119804762Y-153292319D01*
X119804762Y-153292319D02*
X119995238Y-153292319D01*
X119995238Y-153292319D02*
X120090476Y-153339938D01*
X120090476Y-153339938D02*
X120138095Y-153387557D01*
X120138095Y-153387557D02*
X120185714Y-153482795D01*
X120185714Y-153482795D02*
X120185714Y-153530414D01*
X120185714Y-153530414D02*
X120138095Y-153625652D01*
X120138095Y-153625652D02*
X120090476Y-153673271D01*
X120090476Y-153673271D02*
X119995238Y-153720890D01*
X119995238Y-153720890D02*
X119804762Y-153720890D01*
X119804762Y-153720890D02*
X119709524Y-153768509D01*
X119709524Y-153768509D02*
X119661905Y-153816128D01*
X119661905Y-153816128D02*
X119614286Y-153911366D01*
X119614286Y-153911366D02*
X119614286Y-154101842D01*
X119614286Y-154101842D02*
X119661905Y-154197080D01*
X119661905Y-154197080D02*
X119709524Y-154244700D01*
X119709524Y-154244700D02*
X119804762Y-154292319D01*
X119804762Y-154292319D02*
X119995238Y-154292319D01*
X119995238Y-154292319D02*
X120090476Y-154244700D01*
X120090476Y-154244700D02*
X120138095Y-154197080D01*
X120138095Y-154197080D02*
X120185714Y-154101842D01*
X120185714Y-154101842D02*
X120185714Y-153911366D01*
X120185714Y-153911366D02*
X120138095Y-153816128D01*
X120138095Y-153816128D02*
X120090476Y-153768509D01*
X120090476Y-153768509D02*
X119995238Y-153720890D01*
X129869580Y-162442857D02*
X129917200Y-162490476D01*
X129917200Y-162490476D02*
X129964819Y-162633333D01*
X129964819Y-162633333D02*
X129964819Y-162728571D01*
X129964819Y-162728571D02*
X129917200Y-162871428D01*
X129917200Y-162871428D02*
X129821961Y-162966666D01*
X129821961Y-162966666D02*
X129726723Y-163014285D01*
X129726723Y-163014285D02*
X129536247Y-163061904D01*
X129536247Y-163061904D02*
X129393390Y-163061904D01*
X129393390Y-163061904D02*
X129202914Y-163014285D01*
X129202914Y-163014285D02*
X129107676Y-162966666D01*
X129107676Y-162966666D02*
X129012438Y-162871428D01*
X129012438Y-162871428D02*
X128964819Y-162728571D01*
X128964819Y-162728571D02*
X128964819Y-162633333D01*
X128964819Y-162633333D02*
X129012438Y-162490476D01*
X129012438Y-162490476D02*
X129060057Y-162442857D01*
X128964819Y-162109523D02*
X128964819Y-161490476D01*
X128964819Y-161490476D02*
X129345771Y-161823809D01*
X129345771Y-161823809D02*
X129345771Y-161680952D01*
X129345771Y-161680952D02*
X129393390Y-161585714D01*
X129393390Y-161585714D02*
X129441009Y-161538095D01*
X129441009Y-161538095D02*
X129536247Y-161490476D01*
X129536247Y-161490476D02*
X129774342Y-161490476D01*
X129774342Y-161490476D02*
X129869580Y-161538095D01*
X129869580Y-161538095D02*
X129917200Y-161585714D01*
X129917200Y-161585714D02*
X129964819Y-161680952D01*
X129964819Y-161680952D02*
X129964819Y-161966666D01*
X129964819Y-161966666D02*
X129917200Y-162061904D01*
X129917200Y-162061904D02*
X129869580Y-162109523D01*
X128964819Y-161157142D02*
X128964819Y-160538095D01*
X128964819Y-160538095D02*
X129345771Y-160871428D01*
X129345771Y-160871428D02*
X129345771Y-160728571D01*
X129345771Y-160728571D02*
X129393390Y-160633333D01*
X129393390Y-160633333D02*
X129441009Y-160585714D01*
X129441009Y-160585714D02*
X129536247Y-160538095D01*
X129536247Y-160538095D02*
X129774342Y-160538095D01*
X129774342Y-160538095D02*
X129869580Y-160585714D01*
X129869580Y-160585714D02*
X129917200Y-160633333D01*
X129917200Y-160633333D02*
X129964819Y-160728571D01*
X129964819Y-160728571D02*
X129964819Y-161014285D01*
X129964819Y-161014285D02*
X129917200Y-161109523D01*
X129917200Y-161109523D02*
X129869580Y-161157142D01*
X110661905Y-121554819D02*
X110661905Y-120554819D01*
X110661905Y-120554819D02*
X110900000Y-120554819D01*
X110900000Y-120554819D02*
X111042857Y-120602438D01*
X111042857Y-120602438D02*
X111138095Y-120697676D01*
X111138095Y-120697676D02*
X111185714Y-120792914D01*
X111185714Y-120792914D02*
X111233333Y-120983390D01*
X111233333Y-120983390D02*
X111233333Y-121126247D01*
X111233333Y-121126247D02*
X111185714Y-121316723D01*
X111185714Y-121316723D02*
X111138095Y-121411961D01*
X111138095Y-121411961D02*
X111042857Y-121507200D01*
X111042857Y-121507200D02*
X110900000Y-121554819D01*
X110900000Y-121554819D02*
X110661905Y-121554819D01*
X111614286Y-120650057D02*
X111661905Y-120602438D01*
X111661905Y-120602438D02*
X111757143Y-120554819D01*
X111757143Y-120554819D02*
X111995238Y-120554819D01*
X111995238Y-120554819D02*
X112090476Y-120602438D01*
X112090476Y-120602438D02*
X112138095Y-120650057D01*
X112138095Y-120650057D02*
X112185714Y-120745295D01*
X112185714Y-120745295D02*
X112185714Y-120840533D01*
X112185714Y-120840533D02*
X112138095Y-120983390D01*
X112138095Y-120983390D02*
X111566667Y-121554819D01*
X111566667Y-121554819D02*
X112185714Y-121554819D01*
X122019580Y-162442857D02*
X122067200Y-162490476D01*
X122067200Y-162490476D02*
X122114819Y-162633333D01*
X122114819Y-162633333D02*
X122114819Y-162728571D01*
X122114819Y-162728571D02*
X122067200Y-162871428D01*
X122067200Y-162871428D02*
X121971961Y-162966666D01*
X121971961Y-162966666D02*
X121876723Y-163014285D01*
X121876723Y-163014285D02*
X121686247Y-163061904D01*
X121686247Y-163061904D02*
X121543390Y-163061904D01*
X121543390Y-163061904D02*
X121352914Y-163014285D01*
X121352914Y-163014285D02*
X121257676Y-162966666D01*
X121257676Y-162966666D02*
X121162438Y-162871428D01*
X121162438Y-162871428D02*
X121114819Y-162728571D01*
X121114819Y-162728571D02*
X121114819Y-162633333D01*
X121114819Y-162633333D02*
X121162438Y-162490476D01*
X121162438Y-162490476D02*
X121210057Y-162442857D01*
X121210057Y-162061904D02*
X121162438Y-162014285D01*
X121162438Y-162014285D02*
X121114819Y-161919047D01*
X121114819Y-161919047D02*
X121114819Y-161680952D01*
X121114819Y-161680952D02*
X121162438Y-161585714D01*
X121162438Y-161585714D02*
X121210057Y-161538095D01*
X121210057Y-161538095D02*
X121305295Y-161490476D01*
X121305295Y-161490476D02*
X121400533Y-161490476D01*
X121400533Y-161490476D02*
X121543390Y-161538095D01*
X121543390Y-161538095D02*
X122114819Y-162109523D01*
X122114819Y-162109523D02*
X122114819Y-161490476D01*
X121114819Y-161157142D02*
X121114819Y-160538095D01*
X121114819Y-160538095D02*
X121495771Y-160871428D01*
X121495771Y-160871428D02*
X121495771Y-160728571D01*
X121495771Y-160728571D02*
X121543390Y-160633333D01*
X121543390Y-160633333D02*
X121591009Y-160585714D01*
X121591009Y-160585714D02*
X121686247Y-160538095D01*
X121686247Y-160538095D02*
X121924342Y-160538095D01*
X121924342Y-160538095D02*
X122019580Y-160585714D01*
X122019580Y-160585714D02*
X122067200Y-160633333D01*
X122067200Y-160633333D02*
X122114819Y-160728571D01*
X122114819Y-160728571D02*
X122114819Y-161014285D01*
X122114819Y-161014285D02*
X122067200Y-161109523D01*
X122067200Y-161109523D02*
X122019580Y-161157142D01*
X116733333Y-149259580D02*
X116685714Y-149307200D01*
X116685714Y-149307200D02*
X116542857Y-149354819D01*
X116542857Y-149354819D02*
X116447619Y-149354819D01*
X116447619Y-149354819D02*
X116304762Y-149307200D01*
X116304762Y-149307200D02*
X116209524Y-149211961D01*
X116209524Y-149211961D02*
X116161905Y-149116723D01*
X116161905Y-149116723D02*
X116114286Y-148926247D01*
X116114286Y-148926247D02*
X116114286Y-148783390D01*
X116114286Y-148783390D02*
X116161905Y-148592914D01*
X116161905Y-148592914D02*
X116209524Y-148497676D01*
X116209524Y-148497676D02*
X116304762Y-148402438D01*
X116304762Y-148402438D02*
X116447619Y-148354819D01*
X116447619Y-148354819D02*
X116542857Y-148354819D01*
X116542857Y-148354819D02*
X116685714Y-148402438D01*
X116685714Y-148402438D02*
X116733333Y-148450057D01*
X117304762Y-148783390D02*
X117209524Y-148735771D01*
X117209524Y-148735771D02*
X117161905Y-148688152D01*
X117161905Y-148688152D02*
X117114286Y-148592914D01*
X117114286Y-148592914D02*
X117114286Y-148545295D01*
X117114286Y-148545295D02*
X117161905Y-148450057D01*
X117161905Y-148450057D02*
X117209524Y-148402438D01*
X117209524Y-148402438D02*
X117304762Y-148354819D01*
X117304762Y-148354819D02*
X117495238Y-148354819D01*
X117495238Y-148354819D02*
X117590476Y-148402438D01*
X117590476Y-148402438D02*
X117638095Y-148450057D01*
X117638095Y-148450057D02*
X117685714Y-148545295D01*
X117685714Y-148545295D02*
X117685714Y-148592914D01*
X117685714Y-148592914D02*
X117638095Y-148688152D01*
X117638095Y-148688152D02*
X117590476Y-148735771D01*
X117590476Y-148735771D02*
X117495238Y-148783390D01*
X117495238Y-148783390D02*
X117304762Y-148783390D01*
X117304762Y-148783390D02*
X117209524Y-148831009D01*
X117209524Y-148831009D02*
X117161905Y-148878628D01*
X117161905Y-148878628D02*
X117114286Y-148973866D01*
X117114286Y-148973866D02*
X117114286Y-149164342D01*
X117114286Y-149164342D02*
X117161905Y-149259580D01*
X117161905Y-149259580D02*
X117209524Y-149307200D01*
X117209524Y-149307200D02*
X117304762Y-149354819D01*
X117304762Y-149354819D02*
X117495238Y-149354819D01*
X117495238Y-149354819D02*
X117590476Y-149307200D01*
X117590476Y-149307200D02*
X117638095Y-149259580D01*
X117638095Y-149259580D02*
X117685714Y-149164342D01*
X117685714Y-149164342D02*
X117685714Y-148973866D01*
X117685714Y-148973866D02*
X117638095Y-148878628D01*
X117638095Y-148878628D02*
X117590476Y-148831009D01*
X117590476Y-148831009D02*
X117495238Y-148783390D01*
X112599580Y-162442857D02*
X112647200Y-162490476D01*
X112647200Y-162490476D02*
X112694819Y-162633333D01*
X112694819Y-162633333D02*
X112694819Y-162728571D01*
X112694819Y-162728571D02*
X112647200Y-162871428D01*
X112647200Y-162871428D02*
X112551961Y-162966666D01*
X112551961Y-162966666D02*
X112456723Y-163014285D01*
X112456723Y-163014285D02*
X112266247Y-163061904D01*
X112266247Y-163061904D02*
X112123390Y-163061904D01*
X112123390Y-163061904D02*
X111932914Y-163014285D01*
X111932914Y-163014285D02*
X111837676Y-162966666D01*
X111837676Y-162966666D02*
X111742438Y-162871428D01*
X111742438Y-162871428D02*
X111694819Y-162728571D01*
X111694819Y-162728571D02*
X111694819Y-162633333D01*
X111694819Y-162633333D02*
X111742438Y-162490476D01*
X111742438Y-162490476D02*
X111790057Y-162442857D01*
X111694819Y-162109523D02*
X111694819Y-161490476D01*
X111694819Y-161490476D02*
X112075771Y-161823809D01*
X112075771Y-161823809D02*
X112075771Y-161680952D01*
X112075771Y-161680952D02*
X112123390Y-161585714D01*
X112123390Y-161585714D02*
X112171009Y-161538095D01*
X112171009Y-161538095D02*
X112266247Y-161490476D01*
X112266247Y-161490476D02*
X112504342Y-161490476D01*
X112504342Y-161490476D02*
X112599580Y-161538095D01*
X112599580Y-161538095D02*
X112647200Y-161585714D01*
X112647200Y-161585714D02*
X112694819Y-161680952D01*
X112694819Y-161680952D02*
X112694819Y-161966666D01*
X112694819Y-161966666D02*
X112647200Y-162061904D01*
X112647200Y-162061904D02*
X112599580Y-162109523D01*
X111694819Y-160871428D02*
X111694819Y-160776190D01*
X111694819Y-160776190D02*
X111742438Y-160680952D01*
X111742438Y-160680952D02*
X111790057Y-160633333D01*
X111790057Y-160633333D02*
X111885295Y-160585714D01*
X111885295Y-160585714D02*
X112075771Y-160538095D01*
X112075771Y-160538095D02*
X112313866Y-160538095D01*
X112313866Y-160538095D02*
X112504342Y-160585714D01*
X112504342Y-160585714D02*
X112599580Y-160633333D01*
X112599580Y-160633333D02*
X112647200Y-160680952D01*
X112647200Y-160680952D02*
X112694819Y-160776190D01*
X112694819Y-160776190D02*
X112694819Y-160871428D01*
X112694819Y-160871428D02*
X112647200Y-160966666D01*
X112647200Y-160966666D02*
X112599580Y-161014285D01*
X112599580Y-161014285D02*
X112504342Y-161061904D01*
X112504342Y-161061904D02*
X112313866Y-161109523D01*
X112313866Y-161109523D02*
X112075771Y-161109523D01*
X112075771Y-161109523D02*
X111885295Y-161061904D01*
X111885295Y-161061904D02*
X111790057Y-161014285D01*
X111790057Y-161014285D02*
X111742438Y-160966666D01*
X111742438Y-160966666D02*
X111694819Y-160871428D01*
X114255833Y-96854819D02*
X113922500Y-96378628D01*
X113684405Y-96854819D02*
X113684405Y-95854819D01*
X113684405Y-95854819D02*
X114065357Y-95854819D01*
X114065357Y-95854819D02*
X114160595Y-95902438D01*
X114160595Y-95902438D02*
X114208214Y-95950057D01*
X114208214Y-95950057D02*
X114255833Y-96045295D01*
X114255833Y-96045295D02*
X114255833Y-96188152D01*
X114255833Y-96188152D02*
X114208214Y-96283390D01*
X114208214Y-96283390D02*
X114160595Y-96331009D01*
X114160595Y-96331009D02*
X114065357Y-96378628D01*
X114065357Y-96378628D02*
X113684405Y-96378628D01*
X114827262Y-96283390D02*
X114732024Y-96235771D01*
X114732024Y-96235771D02*
X114684405Y-96188152D01*
X114684405Y-96188152D02*
X114636786Y-96092914D01*
X114636786Y-96092914D02*
X114636786Y-96045295D01*
X114636786Y-96045295D02*
X114684405Y-95950057D01*
X114684405Y-95950057D02*
X114732024Y-95902438D01*
X114732024Y-95902438D02*
X114827262Y-95854819D01*
X114827262Y-95854819D02*
X115017738Y-95854819D01*
X115017738Y-95854819D02*
X115112976Y-95902438D01*
X115112976Y-95902438D02*
X115160595Y-95950057D01*
X115160595Y-95950057D02*
X115208214Y-96045295D01*
X115208214Y-96045295D02*
X115208214Y-96092914D01*
X115208214Y-96092914D02*
X115160595Y-96188152D01*
X115160595Y-96188152D02*
X115112976Y-96235771D01*
X115112976Y-96235771D02*
X115017738Y-96283390D01*
X115017738Y-96283390D02*
X114827262Y-96283390D01*
X114827262Y-96283390D02*
X114732024Y-96331009D01*
X114732024Y-96331009D02*
X114684405Y-96378628D01*
X114684405Y-96378628D02*
X114636786Y-96473866D01*
X114636786Y-96473866D02*
X114636786Y-96664342D01*
X114636786Y-96664342D02*
X114684405Y-96759580D01*
X114684405Y-96759580D02*
X114732024Y-96807200D01*
X114732024Y-96807200D02*
X114827262Y-96854819D01*
X114827262Y-96854819D02*
X115017738Y-96854819D01*
X115017738Y-96854819D02*
X115112976Y-96807200D01*
X115112976Y-96807200D02*
X115160595Y-96759580D01*
X115160595Y-96759580D02*
X115208214Y-96664342D01*
X115208214Y-96664342D02*
X115208214Y-96473866D01*
X115208214Y-96473866D02*
X115160595Y-96378628D01*
X115160595Y-96378628D02*
X115112976Y-96331009D01*
X115112976Y-96331009D02*
X115017738Y-96283390D01*
X119359580Y-127842857D02*
X119407200Y-127890476D01*
X119407200Y-127890476D02*
X119454819Y-128033333D01*
X119454819Y-128033333D02*
X119454819Y-128128571D01*
X119454819Y-128128571D02*
X119407200Y-128271428D01*
X119407200Y-128271428D02*
X119311961Y-128366666D01*
X119311961Y-128366666D02*
X119216723Y-128414285D01*
X119216723Y-128414285D02*
X119026247Y-128461904D01*
X119026247Y-128461904D02*
X118883390Y-128461904D01*
X118883390Y-128461904D02*
X118692914Y-128414285D01*
X118692914Y-128414285D02*
X118597676Y-128366666D01*
X118597676Y-128366666D02*
X118502438Y-128271428D01*
X118502438Y-128271428D02*
X118454819Y-128128571D01*
X118454819Y-128128571D02*
X118454819Y-128033333D01*
X118454819Y-128033333D02*
X118502438Y-127890476D01*
X118502438Y-127890476D02*
X118550057Y-127842857D01*
X118550057Y-127461904D02*
X118502438Y-127414285D01*
X118502438Y-127414285D02*
X118454819Y-127319047D01*
X118454819Y-127319047D02*
X118454819Y-127080952D01*
X118454819Y-127080952D02*
X118502438Y-126985714D01*
X118502438Y-126985714D02*
X118550057Y-126938095D01*
X118550057Y-126938095D02*
X118645295Y-126890476D01*
X118645295Y-126890476D02*
X118740533Y-126890476D01*
X118740533Y-126890476D02*
X118883390Y-126938095D01*
X118883390Y-126938095D02*
X119454819Y-127509523D01*
X119454819Y-127509523D02*
X119454819Y-126890476D01*
X119454819Y-125938095D02*
X119454819Y-126509523D01*
X119454819Y-126223809D02*
X118454819Y-126223809D01*
X118454819Y-126223809D02*
X118597676Y-126319047D01*
X118597676Y-126319047D02*
X118692914Y-126414285D01*
X118692914Y-126414285D02*
X118740533Y-126509523D01*
X113659580Y-120342857D02*
X113707200Y-120390476D01*
X113707200Y-120390476D02*
X113754819Y-120533333D01*
X113754819Y-120533333D02*
X113754819Y-120628571D01*
X113754819Y-120628571D02*
X113707200Y-120771428D01*
X113707200Y-120771428D02*
X113611961Y-120866666D01*
X113611961Y-120866666D02*
X113516723Y-120914285D01*
X113516723Y-120914285D02*
X113326247Y-120961904D01*
X113326247Y-120961904D02*
X113183390Y-120961904D01*
X113183390Y-120961904D02*
X112992914Y-120914285D01*
X112992914Y-120914285D02*
X112897676Y-120866666D01*
X112897676Y-120866666D02*
X112802438Y-120771428D01*
X112802438Y-120771428D02*
X112754819Y-120628571D01*
X112754819Y-120628571D02*
X112754819Y-120533333D01*
X112754819Y-120533333D02*
X112802438Y-120390476D01*
X112802438Y-120390476D02*
X112850057Y-120342857D01*
X112754819Y-120009523D02*
X112754819Y-119390476D01*
X112754819Y-119390476D02*
X113135771Y-119723809D01*
X113135771Y-119723809D02*
X113135771Y-119580952D01*
X113135771Y-119580952D02*
X113183390Y-119485714D01*
X113183390Y-119485714D02*
X113231009Y-119438095D01*
X113231009Y-119438095D02*
X113326247Y-119390476D01*
X113326247Y-119390476D02*
X113564342Y-119390476D01*
X113564342Y-119390476D02*
X113659580Y-119438095D01*
X113659580Y-119438095D02*
X113707200Y-119485714D01*
X113707200Y-119485714D02*
X113754819Y-119580952D01*
X113754819Y-119580952D02*
X113754819Y-119866666D01*
X113754819Y-119866666D02*
X113707200Y-119961904D01*
X113707200Y-119961904D02*
X113659580Y-120009523D01*
X113754819Y-118914285D02*
X113754819Y-118723809D01*
X113754819Y-118723809D02*
X113707200Y-118628571D01*
X113707200Y-118628571D02*
X113659580Y-118580952D01*
X113659580Y-118580952D02*
X113516723Y-118485714D01*
X113516723Y-118485714D02*
X113326247Y-118438095D01*
X113326247Y-118438095D02*
X112945295Y-118438095D01*
X112945295Y-118438095D02*
X112850057Y-118485714D01*
X112850057Y-118485714D02*
X112802438Y-118533333D01*
X112802438Y-118533333D02*
X112754819Y-118628571D01*
X112754819Y-118628571D02*
X112754819Y-118819047D01*
X112754819Y-118819047D02*
X112802438Y-118914285D01*
X112802438Y-118914285D02*
X112850057Y-118961904D01*
X112850057Y-118961904D02*
X112945295Y-119009523D01*
X112945295Y-119009523D02*
X113183390Y-119009523D01*
X113183390Y-119009523D02*
X113278628Y-118961904D01*
X113278628Y-118961904D02*
X113326247Y-118914285D01*
X113326247Y-118914285D02*
X113373866Y-118819047D01*
X113373866Y-118819047D02*
X113373866Y-118628571D01*
X113373866Y-118628571D02*
X113326247Y-118533333D01*
X113326247Y-118533333D02*
X113278628Y-118485714D01*
X113278628Y-118485714D02*
X113183390Y-118438095D01*
X114454819Y-140142857D02*
X113978628Y-140476190D01*
X114454819Y-140714285D02*
X113454819Y-140714285D01*
X113454819Y-140714285D02*
X113454819Y-140333333D01*
X113454819Y-140333333D02*
X113502438Y-140238095D01*
X113502438Y-140238095D02*
X113550057Y-140190476D01*
X113550057Y-140190476D02*
X113645295Y-140142857D01*
X113645295Y-140142857D02*
X113788152Y-140142857D01*
X113788152Y-140142857D02*
X113883390Y-140190476D01*
X113883390Y-140190476D02*
X113931009Y-140238095D01*
X113931009Y-140238095D02*
X113978628Y-140333333D01*
X113978628Y-140333333D02*
X113978628Y-140714285D01*
X113454819Y-139809523D02*
X113454819Y-139190476D01*
X113454819Y-139190476D02*
X113835771Y-139523809D01*
X113835771Y-139523809D02*
X113835771Y-139380952D01*
X113835771Y-139380952D02*
X113883390Y-139285714D01*
X113883390Y-139285714D02*
X113931009Y-139238095D01*
X113931009Y-139238095D02*
X114026247Y-139190476D01*
X114026247Y-139190476D02*
X114264342Y-139190476D01*
X114264342Y-139190476D02*
X114359580Y-139238095D01*
X114359580Y-139238095D02*
X114407200Y-139285714D01*
X114407200Y-139285714D02*
X114454819Y-139380952D01*
X114454819Y-139380952D02*
X114454819Y-139666666D01*
X114454819Y-139666666D02*
X114407200Y-139761904D01*
X114407200Y-139761904D02*
X114359580Y-139809523D01*
X113550057Y-138809523D02*
X113502438Y-138761904D01*
X113502438Y-138761904D02*
X113454819Y-138666666D01*
X113454819Y-138666666D02*
X113454819Y-138428571D01*
X113454819Y-138428571D02*
X113502438Y-138333333D01*
X113502438Y-138333333D02*
X113550057Y-138285714D01*
X113550057Y-138285714D02*
X113645295Y-138238095D01*
X113645295Y-138238095D02*
X113740533Y-138238095D01*
X113740533Y-138238095D02*
X113883390Y-138285714D01*
X113883390Y-138285714D02*
X114454819Y-138857142D01*
X114454819Y-138857142D02*
X114454819Y-138238095D01*
X113697261Y-105852557D02*
X113602023Y-105804938D01*
X113602023Y-105804938D02*
X113506785Y-105709700D01*
X113506785Y-105709700D02*
X113363928Y-105566842D01*
X113363928Y-105566842D02*
X113268690Y-105519223D01*
X113268690Y-105519223D02*
X113173452Y-105519223D01*
X113221071Y-105757319D02*
X113125833Y-105709700D01*
X113125833Y-105709700D02*
X113030595Y-105614461D01*
X113030595Y-105614461D02*
X112982976Y-105423985D01*
X112982976Y-105423985D02*
X112982976Y-105090652D01*
X112982976Y-105090652D02*
X113030595Y-104900176D01*
X113030595Y-104900176D02*
X113125833Y-104804938D01*
X113125833Y-104804938D02*
X113221071Y-104757319D01*
X113221071Y-104757319D02*
X113411547Y-104757319D01*
X113411547Y-104757319D02*
X113506785Y-104804938D01*
X113506785Y-104804938D02*
X113602023Y-104900176D01*
X113602023Y-104900176D02*
X113649642Y-105090652D01*
X113649642Y-105090652D02*
X113649642Y-105423985D01*
X113649642Y-105423985D02*
X113602023Y-105614461D01*
X113602023Y-105614461D02*
X113506785Y-105709700D01*
X113506785Y-105709700D02*
X113411547Y-105757319D01*
X113411547Y-105757319D02*
X113221071Y-105757319D01*
X114602023Y-105757319D02*
X114030595Y-105757319D01*
X114316309Y-105757319D02*
X114316309Y-104757319D01*
X114316309Y-104757319D02*
X114221071Y-104900176D01*
X114221071Y-104900176D02*
X114125833Y-104995414D01*
X114125833Y-104995414D02*
X114030595Y-105043033D01*
X132657142Y-109154819D02*
X132323809Y-108678628D01*
X132085714Y-109154819D02*
X132085714Y-108154819D01*
X132085714Y-108154819D02*
X132466666Y-108154819D01*
X132466666Y-108154819D02*
X132561904Y-108202438D01*
X132561904Y-108202438D02*
X132609523Y-108250057D01*
X132609523Y-108250057D02*
X132657142Y-108345295D01*
X132657142Y-108345295D02*
X132657142Y-108488152D01*
X132657142Y-108488152D02*
X132609523Y-108583390D01*
X132609523Y-108583390D02*
X132561904Y-108631009D01*
X132561904Y-108631009D02*
X132466666Y-108678628D01*
X132466666Y-108678628D02*
X132085714Y-108678628D01*
X133609523Y-109154819D02*
X133038095Y-109154819D01*
X133323809Y-109154819D02*
X133323809Y-108154819D01*
X133323809Y-108154819D02*
X133228571Y-108297676D01*
X133228571Y-108297676D02*
X133133333Y-108392914D01*
X133133333Y-108392914D02*
X133038095Y-108440533D01*
X133942857Y-108154819D02*
X134609523Y-108154819D01*
X134609523Y-108154819D02*
X134180952Y-109154819D01*
X132857142Y-144659580D02*
X132809523Y-144707200D01*
X132809523Y-144707200D02*
X132666666Y-144754819D01*
X132666666Y-144754819D02*
X132571428Y-144754819D01*
X132571428Y-144754819D02*
X132428571Y-144707200D01*
X132428571Y-144707200D02*
X132333333Y-144611961D01*
X132333333Y-144611961D02*
X132285714Y-144516723D01*
X132285714Y-144516723D02*
X132238095Y-144326247D01*
X132238095Y-144326247D02*
X132238095Y-144183390D01*
X132238095Y-144183390D02*
X132285714Y-143992914D01*
X132285714Y-143992914D02*
X132333333Y-143897676D01*
X132333333Y-143897676D02*
X132428571Y-143802438D01*
X132428571Y-143802438D02*
X132571428Y-143754819D01*
X132571428Y-143754819D02*
X132666666Y-143754819D01*
X132666666Y-143754819D02*
X132809523Y-143802438D01*
X132809523Y-143802438D02*
X132857142Y-143850057D01*
X133809523Y-144754819D02*
X133238095Y-144754819D01*
X133523809Y-144754819D02*
X133523809Y-143754819D01*
X133523809Y-143754819D02*
X133428571Y-143897676D01*
X133428571Y-143897676D02*
X133333333Y-143992914D01*
X133333333Y-143992914D02*
X133238095Y-144040533D01*
X134761904Y-144754819D02*
X134190476Y-144754819D01*
X134476190Y-144754819D02*
X134476190Y-143754819D01*
X134476190Y-143754819D02*
X134380952Y-143897676D01*
X134380952Y-143897676D02*
X134285714Y-143992914D01*
X134285714Y-143992914D02*
X134190476Y-144040533D01*
X107354819Y-160261904D02*
X108164342Y-160261904D01*
X108164342Y-160261904D02*
X108259580Y-160214285D01*
X108259580Y-160214285D02*
X108307200Y-160166666D01*
X108307200Y-160166666D02*
X108354819Y-160071428D01*
X108354819Y-160071428D02*
X108354819Y-159880952D01*
X108354819Y-159880952D02*
X108307200Y-159785714D01*
X108307200Y-159785714D02*
X108259580Y-159738095D01*
X108259580Y-159738095D02*
X108164342Y-159690476D01*
X108164342Y-159690476D02*
X107354819Y-159690476D01*
X107450057Y-159261904D02*
X107402438Y-159214285D01*
X107402438Y-159214285D02*
X107354819Y-159119047D01*
X107354819Y-159119047D02*
X107354819Y-158880952D01*
X107354819Y-158880952D02*
X107402438Y-158785714D01*
X107402438Y-158785714D02*
X107450057Y-158738095D01*
X107450057Y-158738095D02*
X107545295Y-158690476D01*
X107545295Y-158690476D02*
X107640533Y-158690476D01*
X107640533Y-158690476D02*
X107783390Y-158738095D01*
X107783390Y-158738095D02*
X108354819Y-159309523D01*
X108354819Y-159309523D02*
X108354819Y-158690476D01*
D11*
%TO.C,C36*%
X102590000Y-109673733D02*
X102590000Y-109966267D01*
X103610000Y-109673733D02*
X103610000Y-109966267D01*
%TO.C,C17*%
X128478733Y-133390000D02*
X128771267Y-133390000D01*
X128478733Y-134410000D02*
X128771267Y-134410000D01*
%TO.C,R2*%
X105508348Y-156515000D02*
X106017796Y-156515000D01*
X105508348Y-157560000D02*
X106017796Y-157560000D01*
%TO.C,D6*%
X109935000Y-140300000D02*
X109935000Y-142760000D01*
X109935000Y-142760000D02*
X111405000Y-142760000D01*
X111405000Y-142760000D02*
X111405000Y-140300000D01*
%TO.C,R12*%
X118254724Y-108477500D02*
X117745276Y-108477500D01*
X118254724Y-109522500D02*
X117745276Y-109522500D01*
%TO.C,C38*%
X130310000Y-111446267D02*
X130310000Y-111153733D01*
X131330000Y-111446267D02*
X131330000Y-111153733D01*
%TO.C,C28*%
X114890000Y-165153733D02*
X114890000Y-165446267D01*
X115910000Y-165153733D02*
X115910000Y-165446267D01*
%TO.C,C37*%
X120090000Y-109826267D02*
X120090000Y-109533733D01*
X121110000Y-109826267D02*
X121110000Y-109533733D01*
%TO.C,C45*%
X129153733Y-157627500D02*
X129446267Y-157627500D01*
X129153733Y-158647500D02*
X129446267Y-158647500D01*
%TO.C,C42*%
X123290000Y-126046267D02*
X123290000Y-125753733D01*
X124310000Y-126046267D02*
X124310000Y-125753733D01*
D12*
%TO.C,Q3*%
X118340000Y-102595000D02*
X124340000Y-102595000D01*
X124340000Y-108005000D02*
X118340000Y-108005000D01*
X117990000Y-103385000D02*
G75*
G02*
X117730000Y-103385000I-130000J0D01*
G01*
X117730000Y-103385000D02*
G75*
G02*
X117990000Y-103385000I130000J0D01*
G01*
D13*
X118370000Y-102815000D02*
G75*
G02*
X118310000Y-102815000I-30000J0D01*
G01*
X118310000Y-102815000D02*
G75*
G02*
X118370000Y-102815000I30000J0D01*
G01*
D11*
%TO.C,JP1*%
X112520000Y-91836359D02*
X112520000Y-92143641D01*
X113280000Y-91836359D02*
X113280000Y-92143641D01*
%TO.C,L1*%
X112053072Y-153172742D02*
X112053072Y-151502258D01*
X113873072Y-153172742D02*
X113873072Y-151502258D01*
%TO.C,C12*%
X112346267Y-136090000D02*
X112053733Y-136090000D01*
X112346267Y-137110000D02*
X112053733Y-137110000D01*
%TO.C,U7*%
X129700000Y-150327500D02*
X133460000Y-150327500D01*
X129700000Y-157147500D02*
X133460000Y-157147500D01*
X133460000Y-150327500D02*
X133460000Y-151587500D01*
X133460000Y-157147500D02*
X133460000Y-155887500D01*
X128420000Y-150427500D02*
X128180000Y-150097500D01*
X128660000Y-150097500D01*
X128420000Y-150427500D01*
G36*
X128420000Y-150427500D02*
G01*
X128180000Y-150097500D01*
X128660000Y-150097500D01*
X128420000Y-150427500D01*
G37*
%TO.C,C35*%
X125490000Y-165153733D02*
X125490000Y-165446267D01*
X126510000Y-165153733D02*
X126510000Y-165446267D01*
%TO.C,R6*%
X123344167Y-113454724D02*
X123344167Y-112945276D01*
X124389167Y-113454724D02*
X124389167Y-112945276D01*
%TO.C,R16*%
X125945276Y-117577500D02*
X126454724Y-117577500D01*
X125945276Y-118622500D02*
X126454724Y-118622500D01*
%TO.C,C32*%
X108890000Y-165153733D02*
X108890000Y-165446267D01*
X109910000Y-165153733D02*
X109910000Y-165446267D01*
D10*
%TO.C,U4*%
X116792893Y-118833310D02*
X117146446Y-118479757D01*
X117146446Y-119186863D02*
X116792893Y-118833310D01*
X119380904Y-121421321D02*
X119734457Y-121774874D01*
X119734457Y-115891746D02*
X119380904Y-116245299D01*
X119734457Y-121774874D02*
X120088010Y-121421321D01*
X120088010Y-116245299D02*
X119734457Y-115891746D01*
X122322468Y-118479757D02*
X122676021Y-118833310D01*
X122676021Y-118833310D02*
X122322468Y-119186863D01*
D13*
X119764457Y-121661737D02*
G75*
G02*
X119704457Y-121661737I-30000J0D01*
G01*
X119704457Y-121661737D02*
G75*
G02*
X119764457Y-121661737I30000J0D01*
G01*
D10*
X120660056Y-121456676D02*
G75*
G02*
X120520056Y-121456676I-70000J0D01*
G01*
X120520056Y-121456676D02*
G75*
G02*
X120660056Y-121456676I70000J0D01*
G01*
D11*
%TO.C,R1*%
X106017796Y-153515000D02*
X105508348Y-153515000D01*
X106017796Y-154560000D02*
X105508348Y-154560000D01*
%TO.C,C6*%
X132246267Y-148627500D02*
X131953733Y-148627500D01*
X132246267Y-149647500D02*
X131953733Y-149647500D01*
%TO.C,C41*%
X119746267Y-113456620D02*
X119453733Y-113456620D01*
X119746267Y-114476620D02*
X119453733Y-114476620D01*
D14*
%TO.C,S2*%
X107650000Y-129000000D02*
X107880000Y-129000000D01*
X107650000Y-133000000D02*
X107650000Y-129000000D01*
X107650000Y-133000000D02*
X107880000Y-133000000D01*
X110320000Y-129000000D02*
X110550000Y-129000000D01*
X110550000Y-129000000D02*
X110550000Y-133000000D01*
X110550000Y-133000000D02*
X110320000Y-133000000D01*
D11*
%TO.C,R5*%
X106477500Y-110154724D02*
X106477500Y-109645276D01*
X107522500Y-110154724D02*
X107522500Y-109645276D01*
%TO.C,R11*%
X125945276Y-115977500D02*
X126454724Y-115977500D01*
X125945276Y-117022500D02*
X126454724Y-117022500D01*
D12*
%TO.C,Q6*%
X130357500Y-97195000D02*
X136357500Y-97195000D01*
X136357500Y-102605000D02*
X130357500Y-102605000D01*
D13*
X136387500Y-102385000D02*
G75*
G02*
X136327500Y-102385000I-30000J0D01*
G01*
X136327500Y-102385000D02*
G75*
G02*
X136387500Y-102385000I30000J0D01*
G01*
D12*
X136967500Y-101815000D02*
G75*
G02*
X136707500Y-101815000I-130000J0D01*
G01*
X136707500Y-101815000D02*
G75*
G02*
X136967500Y-101815000I130000J0D01*
G01*
D11*
%TO.C,R18*%
X137777500Y-98545276D02*
X137777500Y-99054724D01*
X138822500Y-98545276D02*
X138822500Y-99054724D01*
%TO.C,C20*%
X120090000Y-124253733D02*
X120090000Y-124546267D01*
X121110000Y-124253733D02*
X121110000Y-124546267D01*
%TO.C,C7*%
X113940000Y-146516233D02*
X113940000Y-146808767D01*
X114960000Y-146516233D02*
X114960000Y-146808767D01*
%TO.C,R31*%
X110237500Y-146384724D02*
X110237500Y-145875276D01*
X111282500Y-146384724D02*
X111282500Y-145875276D01*
%TO.C,C15*%
X128478733Y-136490000D02*
X128771267Y-136490000D01*
X128478733Y-137510000D02*
X128771267Y-137510000D01*
%TO.C,JP3*%
X124720000Y-91856359D02*
X124720000Y-92163641D01*
X125480000Y-91856359D02*
X125480000Y-92163641D01*
%TO.C,C9*%
X120696267Y-147072500D02*
X120403733Y-147072500D01*
X120696267Y-148092500D02*
X120403733Y-148092500D01*
%TO.C,D1*%
X130450000Y-160852500D02*
X130450000Y-167862500D01*
X133750000Y-160852500D02*
X130450000Y-160852500D01*
X133750000Y-160852500D02*
X133750000Y-167862500D01*
%TO.C,JP2*%
X136820000Y-91836359D02*
X136820000Y-92143641D01*
X137580000Y-91836359D02*
X137580000Y-92143641D01*
%TO.C,C24*%
X122490000Y-165153733D02*
X122490000Y-165446267D01*
X123510000Y-165153733D02*
X123510000Y-165446267D01*
%TO.C,U3*%
X115552500Y-129940000D02*
X116027500Y-129940000D01*
X115552500Y-130415000D02*
X115552500Y-129940000D01*
X115552500Y-137160000D02*
X115552500Y-136685000D01*
X116027500Y-137160000D02*
X115552500Y-137160000D01*
X122297500Y-129940000D02*
X122772500Y-129940000D01*
X122772500Y-129940000D02*
X122772500Y-130415000D01*
X122772500Y-136685000D02*
X122772500Y-137160000D01*
X122772500Y-137160000D02*
X122297500Y-137160000D01*
X116652500Y-138020000D02*
X116172500Y-138020000D01*
X116412500Y-137690000D01*
X116652500Y-138020000D01*
G36*
X116652500Y-138020000D02*
G01*
X116172500Y-138020000D01*
X116412500Y-137690000D01*
X116652500Y-138020000D01*
G37*
%TO.C,C31*%
X110390000Y-165153733D02*
X110390000Y-165446267D01*
X111410000Y-165153733D02*
X111410000Y-165446267D01*
%TO.C,C40*%
X113635949Y-114476112D02*
X113842802Y-114269259D01*
X114357198Y-115197361D02*
X114564051Y-114990508D01*
%TO.C,C29*%
X113390000Y-165153733D02*
X113390000Y-165446267D01*
X114410000Y-165153733D02*
X114410000Y-165446267D01*
%TO.C,C18*%
X122670406Y-120676112D02*
X122877259Y-120469259D01*
X123391655Y-121397361D02*
X123598508Y-121190508D01*
%TO.C,C1*%
X112240572Y-158141233D02*
X112240572Y-158433767D01*
X113260572Y-158141233D02*
X113260572Y-158433767D01*
%TO.C,R28*%
X127677500Y-126154724D02*
X127677500Y-125645276D01*
X128722500Y-126154724D02*
X128722500Y-125645276D01*
%TO.C,R19*%
X128457500Y-111045276D02*
X128457500Y-111554724D01*
X129502500Y-111045276D02*
X129502500Y-111554724D01*
%TO.C,R13*%
X125577500Y-98545276D02*
X125577500Y-99054724D01*
X126622500Y-98545276D02*
X126622500Y-99054724D01*
%TO.C,R15*%
X121677500Y-113454724D02*
X121677500Y-112945276D01*
X122722500Y-113454724D02*
X122722500Y-112945276D01*
%TO.C,C16*%
X128478733Y-134940000D02*
X128771267Y-134940000D01*
X128478733Y-135960000D02*
X128771267Y-135960000D01*
%TO.C,C26*%
X117890000Y-165153733D02*
X117890000Y-165446267D01*
X118910000Y-165153733D02*
X118910000Y-165446267D01*
%TO.C,C13*%
X128478733Y-130290000D02*
X128771267Y-130290000D01*
X128478733Y-131310000D02*
X128771267Y-131310000D01*
D14*
%TO.C,S1*%
X126950000Y-140200000D02*
X127180000Y-140200000D01*
X126950000Y-144200000D02*
X126950000Y-140200000D01*
X126950000Y-144200000D02*
X127180000Y-144200000D01*
X129620000Y-140200000D02*
X129850000Y-140200000D01*
X129850000Y-140200000D02*
X129850000Y-144200000D01*
X129850000Y-144200000D02*
X129620000Y-144200000D01*
D11*
%TO.C,C19*%
X122953733Y-122990000D02*
X123246267Y-122990000D01*
X122953733Y-124010000D02*
X123246267Y-124010000D01*
%TO.C,D3*%
X110309999Y-112450000D02*
X104799999Y-112450000D01*
X110309999Y-115750000D02*
X104799999Y-115750000D01*
X110309999Y-115750000D02*
X110309999Y-112450000D01*
%TO.C,C25*%
X123990000Y-165153733D02*
X123990000Y-165446267D01*
X125010000Y-165153733D02*
X125010000Y-165446267D01*
%TO.C,C4*%
X115628072Y-151476248D02*
X115628072Y-151998752D01*
X117098072Y-151476248D02*
X117098072Y-151998752D01*
%TO.C,FB1*%
X128453733Y-131840000D02*
X128796267Y-131840000D01*
X128453733Y-132860000D02*
X128796267Y-132860000D01*
D10*
%TO.C,X2*%
X124700000Y-142987500D02*
X119700000Y-142987500D01*
X124700000Y-146487500D02*
X119700000Y-146487500D01*
D11*
%TO.C,R4*%
X105977500Y-131845276D02*
X105977500Y-132354724D01*
X107022500Y-131845276D02*
X107022500Y-132354724D01*
%TO.C,R14*%
X117745276Y-110077500D02*
X118254724Y-110077500D01*
X117745276Y-111122500D02*
X118254724Y-111122500D01*
%TO.C,C2*%
X109766805Y-153577500D02*
X110059339Y-153577500D01*
X109766805Y-154597500D02*
X110059339Y-154597500D01*
%TO.C,C3*%
X105909339Y-152027500D02*
X105616805Y-152027500D01*
X105909339Y-153047500D02*
X105616805Y-153047500D01*
%TO.C,C27*%
X116390000Y-165153733D02*
X116390000Y-165446267D01*
X117410000Y-165153733D02*
X117410000Y-165446267D01*
%TO.C,C10*%
X123853733Y-147072500D02*
X124146267Y-147072500D01*
X123853733Y-148092500D02*
X124146267Y-148092500D01*
D12*
%TO.C,Q5*%
X130457500Y-102595000D02*
X136457500Y-102595000D01*
X136457500Y-108005000D02*
X130457500Y-108005000D01*
X130107500Y-103385000D02*
G75*
G02*
X129847500Y-103385000I-130000J0D01*
G01*
X129847500Y-103385000D02*
G75*
G02*
X130107500Y-103385000I130000J0D01*
G01*
D13*
X130487500Y-102815000D02*
G75*
G02*
X130427500Y-102815000I-30000J0D01*
G01*
X130427500Y-102815000D02*
G75*
G02*
X130487500Y-102815000I30000J0D01*
G01*
D11*
%TO.C,R9*%
X102577500Y-106132776D02*
X102577500Y-106642224D01*
X103622500Y-106132776D02*
X103622500Y-106642224D01*
%TO.C,C14*%
X113890000Y-127946267D02*
X113890000Y-127653733D01*
X114910000Y-127946267D02*
X114910000Y-127653733D01*
%TO.C,R10*%
X116577500Y-113654724D02*
X116577500Y-113145276D01*
X117622500Y-113654724D02*
X117622500Y-113145276D01*
%TO.C,R33*%
X102847500Y-146254724D02*
X102847500Y-145745276D01*
X103892500Y-146254724D02*
X103892500Y-145745276D01*
D12*
%TO.C,Q4*%
X118240000Y-97165000D02*
X124240000Y-97165000D01*
X124240000Y-102575000D02*
X118240000Y-102575000D01*
D13*
X124270000Y-102355000D02*
G75*
G02*
X124210000Y-102355000I-30000J0D01*
G01*
X124210000Y-102355000D02*
G75*
G02*
X124270000Y-102355000I30000J0D01*
G01*
D12*
X124850000Y-101785000D02*
G75*
G02*
X124590000Y-101785000I-130000J0D01*
G01*
X124590000Y-101785000D02*
G75*
G02*
X124850000Y-101785000I130000J0D01*
G01*
D11*
%TO.C,FLASH*%
X110240000Y-127817500D02*
X111400000Y-127817500D01*
X110240000Y-128627500D02*
X110240000Y-127817500D01*
X110240000Y-129437500D02*
X110240000Y-133182500D01*
X110240000Y-129437500D02*
X110733292Y-129437500D01*
X110240000Y-133182500D02*
X111082077Y-133182500D01*
X111717923Y-133182500D02*
X112560000Y-133182500D01*
X112066708Y-129437500D02*
X112560000Y-129437500D01*
X112560000Y-129437500D02*
X112560000Y-133182500D01*
%TO.C,R7*%
X104177500Y-106642224D02*
X104177500Y-106132776D01*
X105222500Y-106642224D02*
X105222500Y-106132776D01*
%TO.C,D4*%
X110309999Y-116050000D02*
X104799999Y-116050000D01*
X110309999Y-119350000D02*
X104799999Y-119350000D01*
X110309999Y-119350000D02*
X110309999Y-116050000D01*
%TO.C,UART*%
X102240000Y-135130000D02*
X102240000Y-132655000D01*
X102733292Y-135130000D02*
X102240000Y-135130000D01*
X103082077Y-132655000D02*
X102240000Y-132655000D01*
X104560000Y-132655000D02*
X103717923Y-132655000D01*
X104560000Y-135130000D02*
X104066708Y-135130000D01*
X104560000Y-135130000D02*
X104560000Y-132655000D01*
X104560000Y-135940000D02*
X104560000Y-136750000D01*
X104560000Y-136750000D02*
X103400000Y-136750000D01*
%TO.C,R3*%
X130507500Y-140545276D02*
X130507500Y-141054724D01*
X131552500Y-140545276D02*
X131552500Y-141054724D01*
D12*
%TO.C,Q2*%
X106242500Y-97152500D02*
X112242500Y-97152500D01*
X112242500Y-102562500D02*
X106242500Y-102562500D01*
D13*
X112272500Y-102342500D02*
G75*
G02*
X112212500Y-102342500I-30000J0D01*
G01*
X112212500Y-102342500D02*
G75*
G02*
X112272500Y-102342500I30000J0D01*
G01*
D12*
X112852500Y-101772500D02*
G75*
G02*
X112592500Y-101772500I-130000J0D01*
G01*
X112592500Y-101772500D02*
G75*
G02*
X112852500Y-101772500I130000J0D01*
G01*
D11*
%TO.C,C44*%
X113803072Y-158141233D02*
X113803072Y-158433767D01*
X114823072Y-158141233D02*
X114823072Y-158433767D01*
D10*
%TO.C,U5*%
X104630000Y-143310000D02*
X109690000Y-143310000D01*
X104630000Y-146350000D02*
X104630000Y-143310000D01*
X109690000Y-143310000D02*
X109690000Y-146350000D01*
X109690000Y-146350000D02*
X104630000Y-146350000D01*
X109690000Y-143080000D02*
G75*
G02*
X109630000Y-143080000I-30000J0D01*
G01*
X109630000Y-143080000D02*
G75*
G02*
X109690000Y-143080000I30000J0D01*
G01*
D11*
%TO.C,C34*%
X126990000Y-165153733D02*
X126990000Y-165446267D01*
X128010000Y-165153733D02*
X128010000Y-165446267D01*
%TO.C,C22*%
X119490000Y-165153733D02*
X119490000Y-165446267D01*
X120510000Y-165153733D02*
X120510000Y-165446267D01*
%TO.C,D7*%
X102635000Y-140940000D02*
X102635000Y-143400000D01*
X104105000Y-140940000D02*
X102635000Y-140940000D01*
X104105000Y-143400000D02*
X104105000Y-140940000D01*
%TO.C,D8*%
X115853072Y-154687500D02*
X115853072Y-157987500D01*
X115853072Y-154687500D02*
X122863072Y-154687500D01*
X115853072Y-157987500D02*
X122863072Y-157987500D01*
%TO.C,C33*%
X128490000Y-165153733D02*
X128490000Y-165446267D01*
X129510000Y-165153733D02*
X129510000Y-165446267D01*
%TO.C,D2*%
X110309999Y-119650000D02*
X104799999Y-119650000D01*
X110309999Y-122950000D02*
X104799999Y-122950000D01*
X110309999Y-122950000D02*
X110309999Y-119650000D01*
%TO.C,C23*%
X120990000Y-165153733D02*
X120990000Y-165446267D01*
X122010000Y-165153733D02*
X122010000Y-165446267D01*
%TO.C,C8*%
X116490000Y-146516233D02*
X116490000Y-146808767D01*
X117510000Y-146516233D02*
X117510000Y-146808767D01*
%TO.C,C30*%
X111890000Y-165153733D02*
X111890000Y-165446267D01*
X112910000Y-165153733D02*
X112910000Y-165446267D01*
%TO.C,R8*%
X113377500Y-98545276D02*
X113377500Y-99054724D01*
X114422500Y-98545276D02*
X114422500Y-99054724D01*
%TO.C,C21*%
X118490000Y-124253733D02*
X118490000Y-124546267D01*
X119510000Y-124253733D02*
X119510000Y-124546267D01*
%TO.C,C39*%
X111190000Y-119946268D02*
X111190000Y-119653732D01*
X112210000Y-119946268D02*
X112210000Y-119653732D01*
%TO.C,R32*%
X111737500Y-139045276D02*
X111737500Y-139554724D01*
X112782500Y-139045276D02*
X112782500Y-139554724D01*
D10*
%TO.C,X1*%
X115100000Y-143012500D02*
X116300000Y-143012500D01*
X116300000Y-144612500D02*
X115100000Y-144612500D01*
D12*
%TO.C,Q1*%
X106342500Y-102582500D02*
X112342500Y-102582500D01*
X112342500Y-107992500D02*
X106342500Y-107992500D01*
X105992500Y-103372500D02*
G75*
G02*
X105732500Y-103372500I-130000J0D01*
G01*
X105732500Y-103372500D02*
G75*
G02*
X105992500Y-103372500I130000J0D01*
G01*
D13*
X106372500Y-102802500D02*
G75*
G02*
X106312500Y-102802500I-30000J0D01*
G01*
X106312500Y-102802500D02*
G75*
G02*
X106372500Y-102802500I30000J0D01*
G01*
D11*
%TO.C,R17*%
X130154724Y-108277500D02*
X129645276Y-108277500D01*
X130154724Y-109322500D02*
X129645276Y-109322500D01*
%TO.C,C11*%
X130520000Y-144153733D02*
X130520000Y-144446267D01*
X131540000Y-144153733D02*
X131540000Y-144446267D01*
D12*
%TO.C,U2*%
X110813072Y-155437500D02*
X109013072Y-155437500D01*
X110813072Y-158537500D02*
X109013072Y-158537500D01*
X108633072Y-155337500D02*
G75*
G02*
X108393072Y-155337500I-120000J0D01*
G01*
X108393072Y-155337500D02*
G75*
G02*
X108633072Y-155337500I120000J0D01*
G01*
D13*
X108543072Y-155537500D02*
G75*
G02*
X108483072Y-155537500I-30000J0D01*
G01*
X108483072Y-155537500D02*
G75*
G02*
X108543072Y-155537500I30000J0D01*
G01*
%TD*%
M02*
