%TF.GenerationSoftware,KiCad,Pcbnew,9.0.7*%
%TF.CreationDate,2026-08-27T20:56:38+07:00*%
%TF.ProjectId,ESC_3S,4553435f-3353-42e6-9b69-6361645f7063,rev?*%
%TF.SameCoordinates,Original*%
%TF.FileFunction,Legend,Bot*%
%TF.FilePolarity,Positive*%
%FSLAX46Y46*%
G04 Gerber Fmt 4.6, Leading zero omitted, Abs format (unit mm)*
G04 Created by KiCad (PCBNEW 9.0.7) date 2026-08-27 20:56:38*
%MOMM*%
%LPD*%
G01*
G04 APERTURE LIST*
%ADD10C,0.150000*%
%ADD11C,0.120000*%
%ADD12C,0.250000*%
%ADD13C,0.060000*%
G04 APERTURE END LIST*
D10*
X132842857Y-130024819D02*
X133176190Y-129548628D01*
X133414285Y-130024819D02*
X133414285Y-129024819D01*
X133414285Y-129024819D02*
X133033333Y-129024819D01*
X133033333Y-129024819D02*
X132938095Y-129072438D01*
X132938095Y-129072438D02*
X132890476Y-129120057D01*
X132890476Y-129120057D02*
X132842857Y-129215295D01*
X132842857Y-129215295D02*
X132842857Y-129358152D01*
X132842857Y-129358152D02*
X132890476Y-129453390D01*
X132890476Y-129453390D02*
X132938095Y-129501009D01*
X132938095Y-129501009D02*
X133033333Y-129548628D01*
X133033333Y-129548628D02*
X133414285Y-129548628D01*
X132461904Y-129120057D02*
X132414285Y-129072438D01*
X132414285Y-129072438D02*
X132319047Y-129024819D01*
X132319047Y-129024819D02*
X132080952Y-129024819D01*
X132080952Y-129024819D02*
X131985714Y-129072438D01*
X131985714Y-129072438D02*
X131938095Y-129120057D01*
X131938095Y-129120057D02*
X131890476Y-129215295D01*
X131890476Y-129215295D02*
X131890476Y-129310533D01*
X131890476Y-129310533D02*
X131938095Y-129453390D01*
X131938095Y-129453390D02*
X132509523Y-130024819D01*
X132509523Y-130024819D02*
X131890476Y-130024819D01*
X131557142Y-129024819D02*
X130938095Y-129024819D01*
X130938095Y-129024819D02*
X131271428Y-129405771D01*
X131271428Y-129405771D02*
X131128571Y-129405771D01*
X131128571Y-129405771D02*
X131033333Y-129453390D01*
X131033333Y-129453390D02*
X130985714Y-129501009D01*
X130985714Y-129501009D02*
X130938095Y-129596247D01*
X130938095Y-129596247D02*
X130938095Y-129834342D01*
X130938095Y-129834342D02*
X130985714Y-129929580D01*
X130985714Y-129929580D02*
X131033333Y-129977200D01*
X131033333Y-129977200D02*
X131128571Y-130024819D01*
X131128571Y-130024819D02*
X131414285Y-130024819D01*
X131414285Y-130024819D02*
X131509523Y-129977200D01*
X131509523Y-129977200D02*
X131557142Y-129929580D01*
X123484819Y-143344642D02*
X123008628Y-143011309D01*
X123484819Y-142773214D02*
X122484819Y-142773214D01*
X122484819Y-142773214D02*
X122484819Y-143154166D01*
X122484819Y-143154166D02*
X122532438Y-143249404D01*
X122532438Y-143249404D02*
X122580057Y-143297023D01*
X122580057Y-143297023D02*
X122675295Y-143344642D01*
X122675295Y-143344642D02*
X122818152Y-143344642D01*
X122818152Y-143344642D02*
X122913390Y-143297023D01*
X122913390Y-143297023D02*
X122961009Y-143249404D01*
X122961009Y-143249404D02*
X123008628Y-143154166D01*
X123008628Y-143154166D02*
X123008628Y-142773214D01*
X122580057Y-143725595D02*
X122532438Y-143773214D01*
X122532438Y-143773214D02*
X122484819Y-143868452D01*
X122484819Y-143868452D02*
X122484819Y-144106547D01*
X122484819Y-144106547D02*
X122532438Y-144201785D01*
X122532438Y-144201785D02*
X122580057Y-144249404D01*
X122580057Y-144249404D02*
X122675295Y-144297023D01*
X122675295Y-144297023D02*
X122770533Y-144297023D01*
X122770533Y-144297023D02*
X122913390Y-144249404D01*
X122913390Y-144249404D02*
X123484819Y-143677976D01*
X123484819Y-143677976D02*
X123484819Y-144297023D01*
X122580057Y-144677976D02*
X122532438Y-144725595D01*
X122532438Y-144725595D02*
X122484819Y-144820833D01*
X122484819Y-144820833D02*
X122484819Y-145058928D01*
X122484819Y-145058928D02*
X122532438Y-145154166D01*
X122532438Y-145154166D02*
X122580057Y-145201785D01*
X122580057Y-145201785D02*
X122675295Y-145249404D01*
X122675295Y-145249404D02*
X122770533Y-145249404D01*
X122770533Y-145249404D02*
X122913390Y-145201785D01*
X122913390Y-145201785D02*
X123484819Y-144630357D01*
X123484819Y-144630357D02*
X123484819Y-145249404D01*
X115984819Y-96357142D02*
X115508628Y-96023809D01*
X115984819Y-95785714D02*
X114984819Y-95785714D01*
X114984819Y-95785714D02*
X114984819Y-96166666D01*
X114984819Y-96166666D02*
X115032438Y-96261904D01*
X115032438Y-96261904D02*
X115080057Y-96309523D01*
X115080057Y-96309523D02*
X115175295Y-96357142D01*
X115175295Y-96357142D02*
X115318152Y-96357142D01*
X115318152Y-96357142D02*
X115413390Y-96309523D01*
X115413390Y-96309523D02*
X115461009Y-96261904D01*
X115461009Y-96261904D02*
X115508628Y-96166666D01*
X115508628Y-96166666D02*
X115508628Y-95785714D01*
X115080057Y-96738095D02*
X115032438Y-96785714D01*
X115032438Y-96785714D02*
X114984819Y-96880952D01*
X114984819Y-96880952D02*
X114984819Y-97119047D01*
X114984819Y-97119047D02*
X115032438Y-97214285D01*
X115032438Y-97214285D02*
X115080057Y-97261904D01*
X115080057Y-97261904D02*
X115175295Y-97309523D01*
X115175295Y-97309523D02*
X115270533Y-97309523D01*
X115270533Y-97309523D02*
X115413390Y-97261904D01*
X115413390Y-97261904D02*
X115984819Y-96690476D01*
X115984819Y-96690476D02*
X115984819Y-97309523D01*
X114984819Y-97928571D02*
X114984819Y-98023809D01*
X114984819Y-98023809D02*
X115032438Y-98119047D01*
X115032438Y-98119047D02*
X115080057Y-98166666D01*
X115080057Y-98166666D02*
X115175295Y-98214285D01*
X115175295Y-98214285D02*
X115365771Y-98261904D01*
X115365771Y-98261904D02*
X115603866Y-98261904D01*
X115603866Y-98261904D02*
X115794342Y-98214285D01*
X115794342Y-98214285D02*
X115889580Y-98166666D01*
X115889580Y-98166666D02*
X115937200Y-98119047D01*
X115937200Y-98119047D02*
X115984819Y-98023809D01*
X115984819Y-98023809D02*
X115984819Y-97928571D01*
X115984819Y-97928571D02*
X115937200Y-97833333D01*
X115937200Y-97833333D02*
X115889580Y-97785714D01*
X115889580Y-97785714D02*
X115794342Y-97738095D01*
X115794342Y-97738095D02*
X115603866Y-97690476D01*
X115603866Y-97690476D02*
X115365771Y-97690476D01*
X115365771Y-97690476D02*
X115175295Y-97738095D01*
X115175295Y-97738095D02*
X115080057Y-97785714D01*
X115080057Y-97785714D02*
X115032438Y-97833333D01*
X115032438Y-97833333D02*
X114984819Y-97928571D01*
X127574819Y-126764286D02*
X127574819Y-127335714D01*
X128574819Y-127050000D02*
X127574819Y-127050000D01*
X128574819Y-127669048D02*
X127574819Y-127669048D01*
X128051009Y-127669048D02*
X128051009Y-128240476D01*
X128574819Y-128240476D02*
X127574819Y-128240476D01*
X128574819Y-129240476D02*
X128574819Y-128669048D01*
X128574819Y-128954762D02*
X127574819Y-128954762D01*
X127574819Y-128954762D02*
X127717676Y-128859524D01*
X127717676Y-128859524D02*
X127812914Y-128764286D01*
X127812914Y-128764286D02*
X127860533Y-128669048D01*
X115942857Y-142024819D02*
X116276190Y-141548628D01*
X116514285Y-142024819D02*
X116514285Y-141024819D01*
X116514285Y-141024819D02*
X116133333Y-141024819D01*
X116133333Y-141024819D02*
X116038095Y-141072438D01*
X116038095Y-141072438D02*
X115990476Y-141120057D01*
X115990476Y-141120057D02*
X115942857Y-141215295D01*
X115942857Y-141215295D02*
X115942857Y-141358152D01*
X115942857Y-141358152D02*
X115990476Y-141453390D01*
X115990476Y-141453390D02*
X116038095Y-141501009D01*
X116038095Y-141501009D02*
X116133333Y-141548628D01*
X116133333Y-141548628D02*
X116514285Y-141548628D01*
X115609523Y-141024819D02*
X114990476Y-141024819D01*
X114990476Y-141024819D02*
X115323809Y-141405771D01*
X115323809Y-141405771D02*
X115180952Y-141405771D01*
X115180952Y-141405771D02*
X115085714Y-141453390D01*
X115085714Y-141453390D02*
X115038095Y-141501009D01*
X115038095Y-141501009D02*
X114990476Y-141596247D01*
X114990476Y-141596247D02*
X114990476Y-141834342D01*
X114990476Y-141834342D02*
X115038095Y-141929580D01*
X115038095Y-141929580D02*
X115085714Y-141977200D01*
X115085714Y-141977200D02*
X115180952Y-142024819D01*
X115180952Y-142024819D02*
X115466666Y-142024819D01*
X115466666Y-142024819D02*
X115561904Y-141977200D01*
X115561904Y-141977200D02*
X115609523Y-141929580D01*
X114371428Y-141024819D02*
X114276190Y-141024819D01*
X114276190Y-141024819D02*
X114180952Y-141072438D01*
X114180952Y-141072438D02*
X114133333Y-141120057D01*
X114133333Y-141120057D02*
X114085714Y-141215295D01*
X114085714Y-141215295D02*
X114038095Y-141405771D01*
X114038095Y-141405771D02*
X114038095Y-141643866D01*
X114038095Y-141643866D02*
X114085714Y-141834342D01*
X114085714Y-141834342D02*
X114133333Y-141929580D01*
X114133333Y-141929580D02*
X114180952Y-141977200D01*
X114180952Y-141977200D02*
X114276190Y-142024819D01*
X114276190Y-142024819D02*
X114371428Y-142024819D01*
X114371428Y-142024819D02*
X114466666Y-141977200D01*
X114466666Y-141977200D02*
X114514285Y-141929580D01*
X114514285Y-141929580D02*
X114561904Y-141834342D01*
X114561904Y-141834342D02*
X114609523Y-141643866D01*
X114609523Y-141643866D02*
X114609523Y-141405771D01*
X114609523Y-141405771D02*
X114561904Y-141215295D01*
X114561904Y-141215295D02*
X114514285Y-141120057D01*
X114514285Y-141120057D02*
X114466666Y-141072438D01*
X114466666Y-141072438D02*
X114371428Y-141024819D01*
X125084819Y-141457142D02*
X124608628Y-141123809D01*
X125084819Y-140885714D02*
X124084819Y-140885714D01*
X124084819Y-140885714D02*
X124084819Y-141266666D01*
X124084819Y-141266666D02*
X124132438Y-141361904D01*
X124132438Y-141361904D02*
X124180057Y-141409523D01*
X124180057Y-141409523D02*
X124275295Y-141457142D01*
X124275295Y-141457142D02*
X124418152Y-141457142D01*
X124418152Y-141457142D02*
X124513390Y-141409523D01*
X124513390Y-141409523D02*
X124561009Y-141361904D01*
X124561009Y-141361904D02*
X124608628Y-141266666D01*
X124608628Y-141266666D02*
X124608628Y-140885714D01*
X124180057Y-141838095D02*
X124132438Y-141885714D01*
X124132438Y-141885714D02*
X124084819Y-141980952D01*
X124084819Y-141980952D02*
X124084819Y-142219047D01*
X124084819Y-142219047D02*
X124132438Y-142314285D01*
X124132438Y-142314285D02*
X124180057Y-142361904D01*
X124180057Y-142361904D02*
X124275295Y-142409523D01*
X124275295Y-142409523D02*
X124370533Y-142409523D01*
X124370533Y-142409523D02*
X124513390Y-142361904D01*
X124513390Y-142361904D02*
X125084819Y-141790476D01*
X125084819Y-141790476D02*
X125084819Y-142409523D01*
X124418152Y-143266666D02*
X125084819Y-143266666D01*
X124037200Y-143028571D02*
X124751485Y-142790476D01*
X124751485Y-142790476D02*
X124751485Y-143409523D01*
X128184819Y-96357142D02*
X127708628Y-96023809D01*
X128184819Y-95785714D02*
X127184819Y-95785714D01*
X127184819Y-95785714D02*
X127184819Y-96166666D01*
X127184819Y-96166666D02*
X127232438Y-96261904D01*
X127232438Y-96261904D02*
X127280057Y-96309523D01*
X127280057Y-96309523D02*
X127375295Y-96357142D01*
X127375295Y-96357142D02*
X127518152Y-96357142D01*
X127518152Y-96357142D02*
X127613390Y-96309523D01*
X127613390Y-96309523D02*
X127661009Y-96261904D01*
X127661009Y-96261904D02*
X127708628Y-96166666D01*
X127708628Y-96166666D02*
X127708628Y-95785714D01*
X127280057Y-96738095D02*
X127232438Y-96785714D01*
X127232438Y-96785714D02*
X127184819Y-96880952D01*
X127184819Y-96880952D02*
X127184819Y-97119047D01*
X127184819Y-97119047D02*
X127232438Y-97214285D01*
X127232438Y-97214285D02*
X127280057Y-97261904D01*
X127280057Y-97261904D02*
X127375295Y-97309523D01*
X127375295Y-97309523D02*
X127470533Y-97309523D01*
X127470533Y-97309523D02*
X127613390Y-97261904D01*
X127613390Y-97261904D02*
X128184819Y-96690476D01*
X128184819Y-96690476D02*
X128184819Y-97309523D01*
X128184819Y-98261904D02*
X128184819Y-97690476D01*
X128184819Y-97976190D02*
X127184819Y-97976190D01*
X127184819Y-97976190D02*
X127327676Y-97880952D01*
X127327676Y-97880952D02*
X127422914Y-97785714D01*
X127422914Y-97785714D02*
X127470533Y-97690476D01*
X132842857Y-134484819D02*
X133176190Y-134008628D01*
X133414285Y-134484819D02*
X133414285Y-133484819D01*
X133414285Y-133484819D02*
X133033333Y-133484819D01*
X133033333Y-133484819D02*
X132938095Y-133532438D01*
X132938095Y-133532438D02*
X132890476Y-133580057D01*
X132890476Y-133580057D02*
X132842857Y-133675295D01*
X132842857Y-133675295D02*
X132842857Y-133818152D01*
X132842857Y-133818152D02*
X132890476Y-133913390D01*
X132890476Y-133913390D02*
X132938095Y-133961009D01*
X132938095Y-133961009D02*
X133033333Y-134008628D01*
X133033333Y-134008628D02*
X133414285Y-134008628D01*
X132461904Y-133580057D02*
X132414285Y-133532438D01*
X132414285Y-133532438D02*
X132319047Y-133484819D01*
X132319047Y-133484819D02*
X132080952Y-133484819D01*
X132080952Y-133484819D02*
X131985714Y-133532438D01*
X131985714Y-133532438D02*
X131938095Y-133580057D01*
X131938095Y-133580057D02*
X131890476Y-133675295D01*
X131890476Y-133675295D02*
X131890476Y-133770533D01*
X131890476Y-133770533D02*
X131938095Y-133913390D01*
X131938095Y-133913390D02*
X132509523Y-134484819D01*
X132509523Y-134484819D02*
X131890476Y-134484819D01*
X131033333Y-133484819D02*
X131223809Y-133484819D01*
X131223809Y-133484819D02*
X131319047Y-133532438D01*
X131319047Y-133532438D02*
X131366666Y-133580057D01*
X131366666Y-133580057D02*
X131461904Y-133722914D01*
X131461904Y-133722914D02*
X131509523Y-133913390D01*
X131509523Y-133913390D02*
X131509523Y-134294342D01*
X131509523Y-134294342D02*
X131461904Y-134389580D01*
X131461904Y-134389580D02*
X131414285Y-134437200D01*
X131414285Y-134437200D02*
X131319047Y-134484819D01*
X131319047Y-134484819D02*
X131128571Y-134484819D01*
X131128571Y-134484819D02*
X131033333Y-134437200D01*
X131033333Y-134437200D02*
X130985714Y-134389580D01*
X130985714Y-134389580D02*
X130938095Y-134294342D01*
X130938095Y-134294342D02*
X130938095Y-134056247D01*
X130938095Y-134056247D02*
X130985714Y-133961009D01*
X130985714Y-133961009D02*
X131033333Y-133913390D01*
X131033333Y-133913390D02*
X131128571Y-133865771D01*
X131128571Y-133865771D02*
X131319047Y-133865771D01*
X131319047Y-133865771D02*
X131414285Y-133913390D01*
X131414285Y-133913390D02*
X131461904Y-133961009D01*
X131461904Y-133961009D02*
X131509523Y-134056247D01*
X132855357Y-136274819D02*
X133188690Y-135798628D01*
X133426785Y-136274819D02*
X133426785Y-135274819D01*
X133426785Y-135274819D02*
X133045833Y-135274819D01*
X133045833Y-135274819D02*
X132950595Y-135322438D01*
X132950595Y-135322438D02*
X132902976Y-135370057D01*
X132902976Y-135370057D02*
X132855357Y-135465295D01*
X132855357Y-135465295D02*
X132855357Y-135608152D01*
X132855357Y-135608152D02*
X132902976Y-135703390D01*
X132902976Y-135703390D02*
X132950595Y-135751009D01*
X132950595Y-135751009D02*
X133045833Y-135798628D01*
X133045833Y-135798628D02*
X133426785Y-135798628D01*
X132522023Y-135274819D02*
X131902976Y-135274819D01*
X131902976Y-135274819D02*
X132236309Y-135655771D01*
X132236309Y-135655771D02*
X132093452Y-135655771D01*
X132093452Y-135655771D02*
X131998214Y-135703390D01*
X131998214Y-135703390D02*
X131950595Y-135751009D01*
X131950595Y-135751009D02*
X131902976Y-135846247D01*
X131902976Y-135846247D02*
X131902976Y-136084342D01*
X131902976Y-136084342D02*
X131950595Y-136179580D01*
X131950595Y-136179580D02*
X131998214Y-136227200D01*
X131998214Y-136227200D02*
X132093452Y-136274819D01*
X132093452Y-136274819D02*
X132379166Y-136274819D01*
X132379166Y-136274819D02*
X132474404Y-136227200D01*
X132474404Y-136227200D02*
X132522023Y-136179580D01*
X131045833Y-135274819D02*
X131236309Y-135274819D01*
X131236309Y-135274819D02*
X131331547Y-135322438D01*
X131331547Y-135322438D02*
X131379166Y-135370057D01*
X131379166Y-135370057D02*
X131474404Y-135512914D01*
X131474404Y-135512914D02*
X131522023Y-135703390D01*
X131522023Y-135703390D02*
X131522023Y-136084342D01*
X131522023Y-136084342D02*
X131474404Y-136179580D01*
X131474404Y-136179580D02*
X131426785Y-136227200D01*
X131426785Y-136227200D02*
X131331547Y-136274819D01*
X131331547Y-136274819D02*
X131141071Y-136274819D01*
X131141071Y-136274819D02*
X131045833Y-136227200D01*
X131045833Y-136227200D02*
X130998214Y-136179580D01*
X130998214Y-136179580D02*
X130950595Y-136084342D01*
X130950595Y-136084342D02*
X130950595Y-135846247D01*
X130950595Y-135846247D02*
X130998214Y-135751009D01*
X130998214Y-135751009D02*
X131045833Y-135703390D01*
X131045833Y-135703390D02*
X131141071Y-135655771D01*
X131141071Y-135655771D02*
X131331547Y-135655771D01*
X131331547Y-135655771D02*
X131426785Y-135703390D01*
X131426785Y-135703390D02*
X131474404Y-135751009D01*
X131474404Y-135751009D02*
X131522023Y-135846247D01*
X132855357Y-137584819D02*
X133188690Y-137108628D01*
X133426785Y-137584819D02*
X133426785Y-136584819D01*
X133426785Y-136584819D02*
X133045833Y-136584819D01*
X133045833Y-136584819D02*
X132950595Y-136632438D01*
X132950595Y-136632438D02*
X132902976Y-136680057D01*
X132902976Y-136680057D02*
X132855357Y-136775295D01*
X132855357Y-136775295D02*
X132855357Y-136918152D01*
X132855357Y-136918152D02*
X132902976Y-137013390D01*
X132902976Y-137013390D02*
X132950595Y-137061009D01*
X132950595Y-137061009D02*
X133045833Y-137108628D01*
X133045833Y-137108628D02*
X133426785Y-137108628D01*
X132522023Y-136584819D02*
X131902976Y-136584819D01*
X131902976Y-136584819D02*
X132236309Y-136965771D01*
X132236309Y-136965771D02*
X132093452Y-136965771D01*
X132093452Y-136965771D02*
X131998214Y-137013390D01*
X131998214Y-137013390D02*
X131950595Y-137061009D01*
X131950595Y-137061009D02*
X131902976Y-137156247D01*
X131902976Y-137156247D02*
X131902976Y-137394342D01*
X131902976Y-137394342D02*
X131950595Y-137489580D01*
X131950595Y-137489580D02*
X131998214Y-137537200D01*
X131998214Y-137537200D02*
X132093452Y-137584819D01*
X132093452Y-137584819D02*
X132379166Y-137584819D01*
X132379166Y-137584819D02*
X132474404Y-137537200D01*
X132474404Y-137537200D02*
X132522023Y-137489580D01*
X131569642Y-136584819D02*
X130902976Y-136584819D01*
X130902976Y-136584819D02*
X131331547Y-137584819D01*
X104884819Y-154194642D02*
X104408628Y-153861309D01*
X104884819Y-153623214D02*
X103884819Y-153623214D01*
X103884819Y-153623214D02*
X103884819Y-154004166D01*
X103884819Y-154004166D02*
X103932438Y-154099404D01*
X103932438Y-154099404D02*
X103980057Y-154147023D01*
X103980057Y-154147023D02*
X104075295Y-154194642D01*
X104075295Y-154194642D02*
X104218152Y-154194642D01*
X104218152Y-154194642D02*
X104313390Y-154147023D01*
X104313390Y-154147023D02*
X104361009Y-154099404D01*
X104361009Y-154099404D02*
X104408628Y-154004166D01*
X104408628Y-154004166D02*
X104408628Y-153623214D01*
X103980057Y-154575595D02*
X103932438Y-154623214D01*
X103932438Y-154623214D02*
X103884819Y-154718452D01*
X103884819Y-154718452D02*
X103884819Y-154956547D01*
X103884819Y-154956547D02*
X103932438Y-155051785D01*
X103932438Y-155051785D02*
X103980057Y-155099404D01*
X103980057Y-155099404D02*
X104075295Y-155147023D01*
X104075295Y-155147023D02*
X104170533Y-155147023D01*
X104170533Y-155147023D02*
X104313390Y-155099404D01*
X104313390Y-155099404D02*
X104884819Y-154527976D01*
X104884819Y-154527976D02*
X104884819Y-155147023D01*
X104884819Y-155623214D02*
X104884819Y-155813690D01*
X104884819Y-155813690D02*
X104837200Y-155908928D01*
X104837200Y-155908928D02*
X104789580Y-155956547D01*
X104789580Y-155956547D02*
X104646723Y-156051785D01*
X104646723Y-156051785D02*
X104456247Y-156099404D01*
X104456247Y-156099404D02*
X104075295Y-156099404D01*
X104075295Y-156099404D02*
X103980057Y-156051785D01*
X103980057Y-156051785D02*
X103932438Y-156004166D01*
X103932438Y-156004166D02*
X103884819Y-155908928D01*
X103884819Y-155908928D02*
X103884819Y-155718452D01*
X103884819Y-155718452D02*
X103932438Y-155623214D01*
X103932438Y-155623214D02*
X103980057Y-155575595D01*
X103980057Y-155575595D02*
X104075295Y-155527976D01*
X104075295Y-155527976D02*
X104313390Y-155527976D01*
X104313390Y-155527976D02*
X104408628Y-155575595D01*
X104408628Y-155575595D02*
X104456247Y-155623214D01*
X104456247Y-155623214D02*
X104503866Y-155718452D01*
X104503866Y-155718452D02*
X104503866Y-155908928D01*
X104503866Y-155908928D02*
X104456247Y-156004166D01*
X104456247Y-156004166D02*
X104408628Y-156051785D01*
X104408628Y-156051785D02*
X104313390Y-156099404D01*
X132842857Y-131284819D02*
X133176190Y-130808628D01*
X133414285Y-131284819D02*
X133414285Y-130284819D01*
X133414285Y-130284819D02*
X133033333Y-130284819D01*
X133033333Y-130284819D02*
X132938095Y-130332438D01*
X132938095Y-130332438D02*
X132890476Y-130380057D01*
X132890476Y-130380057D02*
X132842857Y-130475295D01*
X132842857Y-130475295D02*
X132842857Y-130618152D01*
X132842857Y-130618152D02*
X132890476Y-130713390D01*
X132890476Y-130713390D02*
X132938095Y-130761009D01*
X132938095Y-130761009D02*
X133033333Y-130808628D01*
X133033333Y-130808628D02*
X133414285Y-130808628D01*
X132461904Y-130380057D02*
X132414285Y-130332438D01*
X132414285Y-130332438D02*
X132319047Y-130284819D01*
X132319047Y-130284819D02*
X132080952Y-130284819D01*
X132080952Y-130284819D02*
X131985714Y-130332438D01*
X131985714Y-130332438D02*
X131938095Y-130380057D01*
X131938095Y-130380057D02*
X131890476Y-130475295D01*
X131890476Y-130475295D02*
X131890476Y-130570533D01*
X131890476Y-130570533D02*
X131938095Y-130713390D01*
X131938095Y-130713390D02*
X132509523Y-131284819D01*
X132509523Y-131284819D02*
X131890476Y-131284819D01*
X131557142Y-130284819D02*
X130890476Y-130284819D01*
X130890476Y-130284819D02*
X131319047Y-131284819D01*
X115942857Y-143529580D02*
X115990476Y-143577200D01*
X115990476Y-143577200D02*
X116133333Y-143624819D01*
X116133333Y-143624819D02*
X116228571Y-143624819D01*
X116228571Y-143624819D02*
X116371428Y-143577200D01*
X116371428Y-143577200D02*
X116466666Y-143481961D01*
X116466666Y-143481961D02*
X116514285Y-143386723D01*
X116514285Y-143386723D02*
X116561904Y-143196247D01*
X116561904Y-143196247D02*
X116561904Y-143053390D01*
X116561904Y-143053390D02*
X116514285Y-142862914D01*
X116514285Y-142862914D02*
X116466666Y-142767676D01*
X116466666Y-142767676D02*
X116371428Y-142672438D01*
X116371428Y-142672438D02*
X116228571Y-142624819D01*
X116228571Y-142624819D02*
X116133333Y-142624819D01*
X116133333Y-142624819D02*
X115990476Y-142672438D01*
X115990476Y-142672438D02*
X115942857Y-142720057D01*
X115085714Y-142958152D02*
X115085714Y-143624819D01*
X115323809Y-142577200D02*
X115561904Y-143291485D01*
X115561904Y-143291485D02*
X114942857Y-143291485D01*
X114657142Y-142624819D02*
X114038095Y-142624819D01*
X114038095Y-142624819D02*
X114371428Y-143005771D01*
X114371428Y-143005771D02*
X114228571Y-143005771D01*
X114228571Y-143005771D02*
X114133333Y-143053390D01*
X114133333Y-143053390D02*
X114085714Y-143101009D01*
X114085714Y-143101009D02*
X114038095Y-143196247D01*
X114038095Y-143196247D02*
X114038095Y-143434342D01*
X114038095Y-143434342D02*
X114085714Y-143529580D01*
X114085714Y-143529580D02*
X114133333Y-143577200D01*
X114133333Y-143577200D02*
X114228571Y-143624819D01*
X114228571Y-143624819D02*
X114514285Y-143624819D01*
X114514285Y-143624819D02*
X114609523Y-143577200D01*
X114609523Y-143577200D02*
X114657142Y-143529580D01*
X112884819Y-144357142D02*
X112408628Y-144023809D01*
X112884819Y-143785714D02*
X111884819Y-143785714D01*
X111884819Y-143785714D02*
X111884819Y-144166666D01*
X111884819Y-144166666D02*
X111932438Y-144261904D01*
X111932438Y-144261904D02*
X111980057Y-144309523D01*
X111980057Y-144309523D02*
X112075295Y-144357142D01*
X112075295Y-144357142D02*
X112218152Y-144357142D01*
X112218152Y-144357142D02*
X112313390Y-144309523D01*
X112313390Y-144309523D02*
X112361009Y-144261904D01*
X112361009Y-144261904D02*
X112408628Y-144166666D01*
X112408628Y-144166666D02*
X112408628Y-143785714D01*
X111884819Y-144690476D02*
X111884819Y-145309523D01*
X111884819Y-145309523D02*
X112265771Y-144976190D01*
X112265771Y-144976190D02*
X112265771Y-145119047D01*
X112265771Y-145119047D02*
X112313390Y-145214285D01*
X112313390Y-145214285D02*
X112361009Y-145261904D01*
X112361009Y-145261904D02*
X112456247Y-145309523D01*
X112456247Y-145309523D02*
X112694342Y-145309523D01*
X112694342Y-145309523D02*
X112789580Y-145261904D01*
X112789580Y-145261904D02*
X112837200Y-145214285D01*
X112837200Y-145214285D02*
X112884819Y-145119047D01*
X112884819Y-145119047D02*
X112884819Y-144833333D01*
X112884819Y-144833333D02*
X112837200Y-144738095D01*
X112837200Y-144738095D02*
X112789580Y-144690476D01*
X112218152Y-146166666D02*
X112884819Y-146166666D01*
X111837200Y-145928571D02*
X112551485Y-145690476D01*
X112551485Y-145690476D02*
X112551485Y-146309523D01*
X140284819Y-96357142D02*
X139808628Y-96023809D01*
X140284819Y-95785714D02*
X139284819Y-95785714D01*
X139284819Y-95785714D02*
X139284819Y-96166666D01*
X139284819Y-96166666D02*
X139332438Y-96261904D01*
X139332438Y-96261904D02*
X139380057Y-96309523D01*
X139380057Y-96309523D02*
X139475295Y-96357142D01*
X139475295Y-96357142D02*
X139618152Y-96357142D01*
X139618152Y-96357142D02*
X139713390Y-96309523D01*
X139713390Y-96309523D02*
X139761009Y-96261904D01*
X139761009Y-96261904D02*
X139808628Y-96166666D01*
X139808628Y-96166666D02*
X139808628Y-95785714D01*
X139284819Y-96690476D02*
X139284819Y-97309523D01*
X139284819Y-97309523D02*
X139665771Y-96976190D01*
X139665771Y-96976190D02*
X139665771Y-97119047D01*
X139665771Y-97119047D02*
X139713390Y-97214285D01*
X139713390Y-97214285D02*
X139761009Y-97261904D01*
X139761009Y-97261904D02*
X139856247Y-97309523D01*
X139856247Y-97309523D02*
X140094342Y-97309523D01*
X140094342Y-97309523D02*
X140189580Y-97261904D01*
X140189580Y-97261904D02*
X140237200Y-97214285D01*
X140237200Y-97214285D02*
X140284819Y-97119047D01*
X140284819Y-97119047D02*
X140284819Y-96833333D01*
X140284819Y-96833333D02*
X140237200Y-96738095D01*
X140237200Y-96738095D02*
X140189580Y-96690476D01*
X139284819Y-98214285D02*
X139284819Y-97738095D01*
X139284819Y-97738095D02*
X139761009Y-97690476D01*
X139761009Y-97690476D02*
X139713390Y-97738095D01*
X139713390Y-97738095D02*
X139665771Y-97833333D01*
X139665771Y-97833333D02*
X139665771Y-98071428D01*
X139665771Y-98071428D02*
X139713390Y-98166666D01*
X139713390Y-98166666D02*
X139761009Y-98214285D01*
X139761009Y-98214285D02*
X139856247Y-98261904D01*
X139856247Y-98261904D02*
X140094342Y-98261904D01*
X140094342Y-98261904D02*
X140189580Y-98214285D01*
X140189580Y-98214285D02*
X140237200Y-98166666D01*
X140237200Y-98166666D02*
X140284819Y-98071428D01*
X140284819Y-98071428D02*
X140284819Y-97833333D01*
X140284819Y-97833333D02*
X140237200Y-97738095D01*
X140237200Y-97738095D02*
X140189580Y-97690476D01*
X110414819Y-144568095D02*
X111224342Y-144568095D01*
X111224342Y-144568095D02*
X111319580Y-144615714D01*
X111319580Y-144615714D02*
X111367200Y-144663333D01*
X111367200Y-144663333D02*
X111414819Y-144758571D01*
X111414819Y-144758571D02*
X111414819Y-144949047D01*
X111414819Y-144949047D02*
X111367200Y-145044285D01*
X111367200Y-145044285D02*
X111319580Y-145091904D01*
X111319580Y-145091904D02*
X111224342Y-145139523D01*
X111224342Y-145139523D02*
X110414819Y-145139523D01*
X110414819Y-146044285D02*
X110414819Y-145853809D01*
X110414819Y-145853809D02*
X110462438Y-145758571D01*
X110462438Y-145758571D02*
X110510057Y-145710952D01*
X110510057Y-145710952D02*
X110652914Y-145615714D01*
X110652914Y-145615714D02*
X110843390Y-145568095D01*
X110843390Y-145568095D02*
X111224342Y-145568095D01*
X111224342Y-145568095D02*
X111319580Y-145615714D01*
X111319580Y-145615714D02*
X111367200Y-145663333D01*
X111367200Y-145663333D02*
X111414819Y-145758571D01*
X111414819Y-145758571D02*
X111414819Y-145949047D01*
X111414819Y-145949047D02*
X111367200Y-146044285D01*
X111367200Y-146044285D02*
X111319580Y-146091904D01*
X111319580Y-146091904D02*
X111224342Y-146139523D01*
X111224342Y-146139523D02*
X110986247Y-146139523D01*
X110986247Y-146139523D02*
X110891009Y-146091904D01*
X110891009Y-146091904D02*
X110843390Y-146044285D01*
X110843390Y-146044285D02*
X110795771Y-145949047D01*
X110795771Y-145949047D02*
X110795771Y-145758571D01*
X110795771Y-145758571D02*
X110843390Y-145663333D01*
X110843390Y-145663333D02*
X110891009Y-145615714D01*
X110891009Y-145615714D02*
X110986247Y-145568095D01*
X132855357Y-136034819D02*
X133188690Y-135558628D01*
X133426785Y-136034819D02*
X133426785Y-135034819D01*
X133426785Y-135034819D02*
X133045833Y-135034819D01*
X133045833Y-135034819D02*
X132950595Y-135082438D01*
X132950595Y-135082438D02*
X132902976Y-135130057D01*
X132902976Y-135130057D02*
X132855357Y-135225295D01*
X132855357Y-135225295D02*
X132855357Y-135368152D01*
X132855357Y-135368152D02*
X132902976Y-135463390D01*
X132902976Y-135463390D02*
X132950595Y-135511009D01*
X132950595Y-135511009D02*
X133045833Y-135558628D01*
X133045833Y-135558628D02*
X133426785Y-135558628D01*
X132522023Y-135034819D02*
X131902976Y-135034819D01*
X131902976Y-135034819D02*
X132236309Y-135415771D01*
X132236309Y-135415771D02*
X132093452Y-135415771D01*
X132093452Y-135415771D02*
X131998214Y-135463390D01*
X131998214Y-135463390D02*
X131950595Y-135511009D01*
X131950595Y-135511009D02*
X131902976Y-135606247D01*
X131902976Y-135606247D02*
X131902976Y-135844342D01*
X131902976Y-135844342D02*
X131950595Y-135939580D01*
X131950595Y-135939580D02*
X131998214Y-135987200D01*
X131998214Y-135987200D02*
X132093452Y-136034819D01*
X132093452Y-136034819D02*
X132379166Y-136034819D01*
X132379166Y-136034819D02*
X132474404Y-135987200D01*
X132474404Y-135987200D02*
X132522023Y-135939580D01*
X131331547Y-135463390D02*
X131426785Y-135415771D01*
X131426785Y-135415771D02*
X131474404Y-135368152D01*
X131474404Y-135368152D02*
X131522023Y-135272914D01*
X131522023Y-135272914D02*
X131522023Y-135225295D01*
X131522023Y-135225295D02*
X131474404Y-135130057D01*
X131474404Y-135130057D02*
X131426785Y-135082438D01*
X131426785Y-135082438D02*
X131331547Y-135034819D01*
X131331547Y-135034819D02*
X131141071Y-135034819D01*
X131141071Y-135034819D02*
X131045833Y-135082438D01*
X131045833Y-135082438D02*
X130998214Y-135130057D01*
X130998214Y-135130057D02*
X130950595Y-135225295D01*
X130950595Y-135225295D02*
X130950595Y-135272914D01*
X130950595Y-135272914D02*
X130998214Y-135368152D01*
X130998214Y-135368152D02*
X131045833Y-135415771D01*
X131045833Y-135415771D02*
X131141071Y-135463390D01*
X131141071Y-135463390D02*
X131331547Y-135463390D01*
X131331547Y-135463390D02*
X131426785Y-135511009D01*
X131426785Y-135511009D02*
X131474404Y-135558628D01*
X131474404Y-135558628D02*
X131522023Y-135653866D01*
X131522023Y-135653866D02*
X131522023Y-135844342D01*
X131522023Y-135844342D02*
X131474404Y-135939580D01*
X131474404Y-135939580D02*
X131426785Y-135987200D01*
X131426785Y-135987200D02*
X131331547Y-136034819D01*
X131331547Y-136034819D02*
X131141071Y-136034819D01*
X131141071Y-136034819D02*
X131045833Y-135987200D01*
X131045833Y-135987200D02*
X130998214Y-135939580D01*
X130998214Y-135939580D02*
X130950595Y-135844342D01*
X130950595Y-135844342D02*
X130950595Y-135653866D01*
X130950595Y-135653866D02*
X130998214Y-135558628D01*
X130998214Y-135558628D02*
X131045833Y-135511009D01*
X131045833Y-135511009D02*
X131141071Y-135463390D01*
X123824819Y-143344642D02*
X123348628Y-143011309D01*
X123824819Y-142773214D02*
X122824819Y-142773214D01*
X122824819Y-142773214D02*
X122824819Y-143154166D01*
X122824819Y-143154166D02*
X122872438Y-143249404D01*
X122872438Y-143249404D02*
X122920057Y-143297023D01*
X122920057Y-143297023D02*
X123015295Y-143344642D01*
X123015295Y-143344642D02*
X123158152Y-143344642D01*
X123158152Y-143344642D02*
X123253390Y-143297023D01*
X123253390Y-143297023D02*
X123301009Y-143249404D01*
X123301009Y-143249404D02*
X123348628Y-143154166D01*
X123348628Y-143154166D02*
X123348628Y-142773214D01*
X122920057Y-143725595D02*
X122872438Y-143773214D01*
X122872438Y-143773214D02*
X122824819Y-143868452D01*
X122824819Y-143868452D02*
X122824819Y-144106547D01*
X122824819Y-144106547D02*
X122872438Y-144201785D01*
X122872438Y-144201785D02*
X122920057Y-144249404D01*
X122920057Y-144249404D02*
X123015295Y-144297023D01*
X123015295Y-144297023D02*
X123110533Y-144297023D01*
X123110533Y-144297023D02*
X123253390Y-144249404D01*
X123253390Y-144249404D02*
X123824819Y-143677976D01*
X123824819Y-143677976D02*
X123824819Y-144297023D01*
X122824819Y-145201785D02*
X122824819Y-144725595D01*
X122824819Y-144725595D02*
X123301009Y-144677976D01*
X123301009Y-144677976D02*
X123253390Y-144725595D01*
X123253390Y-144725595D02*
X123205771Y-144820833D01*
X123205771Y-144820833D02*
X123205771Y-145058928D01*
X123205771Y-145058928D02*
X123253390Y-145154166D01*
X123253390Y-145154166D02*
X123301009Y-145201785D01*
X123301009Y-145201785D02*
X123396247Y-145249404D01*
X123396247Y-145249404D02*
X123634342Y-145249404D01*
X123634342Y-145249404D02*
X123729580Y-145201785D01*
X123729580Y-145201785D02*
X123777200Y-145154166D01*
X123777200Y-145154166D02*
X123824819Y-145058928D01*
X123824819Y-145058928D02*
X123824819Y-144820833D01*
X123824819Y-144820833D02*
X123777200Y-144725595D01*
X123777200Y-144725595D02*
X123729580Y-144677976D01*
D11*
%TO.C,R23*%
X132454724Y-130477500D02*
X131945276Y-130477500D01*
X132454724Y-131522500D02*
X131945276Y-131522500D01*
%TO.C,R22*%
X121077500Y-144242224D02*
X121077500Y-143732776D01*
X122122500Y-144242224D02*
X122122500Y-143732776D01*
%TO.C,R20*%
X111190000Y-99177064D02*
X111190000Y-94822936D01*
X114610000Y-99177064D02*
X114610000Y-94822936D01*
%TO.C,TH1*%
X126200000Y-128400000D02*
X126200000Y-127780000D01*
X127120000Y-129320000D02*
G75*
G02*
X125280000Y-129320000I-920000J0D01*
G01*
X125280000Y-129320000D02*
G75*
G02*
X127120000Y-129320000I920000J0D01*
G01*
%TO.C,R30*%
X115554724Y-142477500D02*
X115045276Y-142477500D01*
X115554724Y-143522500D02*
X115045276Y-143522500D01*
%TO.C,R24*%
X122677500Y-142354724D02*
X122677500Y-141845276D01*
X123722500Y-142354724D02*
X123722500Y-141845276D01*
%TO.C,R21*%
X123390000Y-99177064D02*
X123390000Y-94822936D01*
X126810000Y-99177064D02*
X126810000Y-94822936D01*
%TO.C,R26*%
X131945276Y-132077500D02*
X132454724Y-132077500D01*
X131945276Y-133122500D02*
X132454724Y-133122500D01*
%TO.C,R36*%
X132467224Y-136727500D02*
X131957776Y-136727500D01*
X132467224Y-137772500D02*
X131957776Y-137772500D01*
%TO.C,R37*%
X131957776Y-135177500D02*
X132467224Y-135177500D01*
X131957776Y-136222500D02*
X132467224Y-136222500D01*
%TO.C,R29*%
X102477500Y-155092224D02*
X102477500Y-154582776D01*
X103522500Y-155092224D02*
X103522500Y-154582776D01*
%TO.C,R27*%
X131945276Y-128877500D02*
X132454724Y-128877500D01*
X131945276Y-129922500D02*
X132454724Y-129922500D01*
%TO.C,C43*%
X115446267Y-144090000D02*
X115153733Y-144090000D01*
X115446267Y-145110000D02*
X115153733Y-145110000D01*
%TO.C,R34*%
X110477500Y-145254724D02*
X110477500Y-144745276D01*
X111522500Y-145254724D02*
X111522500Y-144745276D01*
%TO.C,R35*%
X135490000Y-99177064D02*
X135490000Y-94822936D01*
X138910000Y-99177064D02*
X138910000Y-94822936D01*
D10*
%TO.C,D5*%
X117340000Y-144200000D02*
X117340000Y-143550000D01*
X117340000Y-144200000D02*
X117340000Y-144850000D01*
X120460000Y-144200000D02*
X120460000Y-143550000D01*
X120460000Y-144200000D02*
X120460000Y-144850000D01*
D11*
X117390000Y-143037500D02*
X117060000Y-143277500D01*
X117060000Y-142797500D01*
X117390000Y-143037500D01*
G36*
X117390000Y-143037500D02*
G01*
X117060000Y-143277500D01*
X117060000Y-142797500D01*
X117390000Y-143037500D01*
G37*
D12*
%TO.C,U6*%
X102650000Y-148330000D02*
X102650000Y-142410000D01*
X107040000Y-141050000D02*
X105340000Y-141050000D01*
X107040000Y-142990000D02*
X107040000Y-141050000D01*
X107050000Y-147690000D02*
X107050000Y-149600000D01*
X107050000Y-149600000D02*
X105400000Y-149600000D01*
X107590000Y-148770000D02*
G75*
G02*
X107330000Y-148770000I-130000J0D01*
G01*
X107330000Y-148770000D02*
G75*
G02*
X107590000Y-148770000I130000J0D01*
G01*
D13*
X107670000Y-149450000D02*
G75*
G02*
X107610000Y-149450000I-30000J0D01*
G01*
X107610000Y-149450000D02*
G75*
G02*
X107670000Y-149450000I30000J0D01*
G01*
D11*
%TO.C,R38*%
X131957776Y-133627500D02*
X132467224Y-133627500D01*
X131957776Y-134672500D02*
X132467224Y-134672500D01*
%TO.C,R25*%
X124277500Y-143732776D02*
X124277500Y-144242224D01*
X125322500Y-143732776D02*
X125322500Y-144242224D01*
%TD*%
M02*
