M48
; DRILL file {KiCad 9.0.7} date 2026-08-27T20:56:26+0700
; FORMAT={-:-/ absolute / metric / decimal}
; #@! TF.CreationDate,2026-08-27T20:56:26+07:00
; #@! TF.GenerationSoftware,Kicad,Pcbnew,9.0.7
; #@! TF.FileFunction,Plated,1,2,PTH
FMAT,2
METRIC
; #@! TA.AperFunction,Plated,PTH,ViaDrill
T1C0.300
; #@! TA.AperFunction,Plated,PTH,ComponentDrill
T2C0.650
; #@! TA.AperFunction,Plated,PTH,ComponentDrill
T3C0.700
; #@! TA.AperFunction,Plated,PTH,ComponentDrill
T4C0.850
%
G90
G05
T1
X103.1Y-110.7
X104.8Y-104.2
X106.5Y-131.188
X106.676Y-157.037
X108.563Y-156.987
X108.9Y-131.0
X109.0Y-104.3
X109.0Y-104.3
X109.0Y-106.3
X109.0Y-106.3
X109.1Y-137.1
X109.1Y-139.2
X109.2Y-145.8
X109.3Y-144.3
X109.7Y-161.0
X110.2Y-134.6
X111.0Y-104.3
X111.0Y-104.3
X111.0Y-106.3
X111.0Y-106.3
X111.1Y-133.9
X111.337Y-136.6
X111.7Y-118.938
X112.751Y-159.15
X112.9Y-93.95
X112.9Y-100.05
X113.9Y-110.0
X114.313Y-159.15
X114.4Y-126.938
X114.4Y-128.6
X114.5Y-117.7
X115.1Y-124.3
X115.2Y-109.0
X115.3Y-115.3
X115.8Y-127.8
X115.8Y-127.8
X115.9Y-109.576
X116.3Y-138.5
X116.8Y-123.5
X117.1Y-114.312
X117.2Y-131.6
X117.2Y-133.6
X117.2Y-135.6
X117.5Y-127.8
X117.9Y-115.5
X118.9Y-159.0
X119.0Y-122.5
X119.0Y-125.263
X119.2Y-131.6
X119.2Y-133.6
X119.2Y-135.6
X119.3Y-115.4
X119.5Y-138.9
X119.6Y-141.2
X119.734Y-118.833
X120.463Y-113.967
X120.5Y-126.9
X120.6Y-108.817
X120.6Y-123.537
X120.6Y-125.263
X121.0Y-104.4
X121.0Y-106.4
X121.2Y-131.6
X121.2Y-133.6
X121.2Y-135.6
X121.5Y-139.2
X121.6Y-140.7
X122.2Y-115.4
X122.525Y-121.543
X123.0Y-104.4
X123.0Y-106.4
X123.0Y-118.8
X123.7Y-120.323
X123.867Y-112.287
X123.9Y-136.3
X124.0Y-159.1
X124.1Y-133.5
X124.6Y-108.8
X125.1Y-93.95
X125.1Y-100.05
X126.2Y-124.0
X126.6Y-134.3
X126.65Y-112.85
X128.4Y-156.2
X128.5Y-140.1
X128.6Y-114.8
X129.0Y-114.0
X130.1Y-153.8
X130.4Y-114.8
X130.812Y-108.8
X130.82Y-110.438
X131.9Y-125.1
X132.0Y-138.4
X132.1Y-116.2
X132.1Y-119.9
X133.1Y-137.3
X133.112Y-129.4
X133.125Y-135.7
X133.2Y-104.4
X133.2Y-106.4
X134.2Y-159.3
X134.5Y-131.0
X134.7Y-138.4
X135.2Y-104.4
X135.2Y-106.4
X135.9Y-135.3
X136.0Y-109.2
X137.2Y-93.95
X137.2Y-100.05
X137.4Y-161.0
X137.4Y-163.0
X137.4Y-167.0
X139.4Y-161.0
X139.4Y-163.0
X139.4Y-165.0
X139.4Y-167.0
T2
X103.4Y-133.4
X103.4Y-134.67
X103.4Y-135.94
X111.4Y-128.627
X111.4Y-129.898
X111.4Y-131.167
X111.4Y-132.438
T3
X126.2Y-126.78
X126.2Y-129.32
T4
X105.4Y-165.162
X137.1Y-165.262
M30
